<?xml version="1.0" encoding="UTF-8"?>
<svg id="svg2" xmlns="http://www.w3.org/2000/svg" xmlns:xlink="http://www.w3.org/1999/xlink" xmlns:svg="http://www.w3.org/2000/svg" xmlns:sodipodi="http://sodipodi.sourceforge.net/DTD/sodipodi-0.dtd" xmlns:inkscape="http://www.inkscape.org/namespaces/inkscape" version="1.1" viewBox="0 0 3933 1212.6">
  <!-- Generator: Adobe Illustrator 29.0.1, SVG Export Plug-In . SVG Version: 2.1.0 Build 192)  -->
  <defs>
    <style>
      .st0, .st1, .st2, .st3, .st4, .st5 {
        fill: none;
      }

      .st1 {
        stroke-width: 5.9px;
      }

      .st1, .st2, .st6 {
        stroke: #000;
      }

      .st1, .st2, .st3, .st4, .st5 {
        stroke-linecap: round;
        stroke-linejoin: round;
      }

      .st2 {
        stroke-width: 4.6px;
      }

      .st7 {
        fill: #3e97ff;
      }

      .st8, .st9, .st10, .st11, .st12, .st13, .st14, .st15, .st16, .st17, .st18 {
        fill-rule: evenodd;
      }

      .st8, .st6 {
        fill: #fff;
      }

      .st9 {
        fill: #d8d8d8;
      }

      .st10 {
        fill: #050505;
      }

      .st11 {
        fill: #d6d6d6;
      }

      .st12 {
        fill: #d3d3d3;
      }

      .st6 {
        font-family: Roboto-Bold, Roboto;
        font-size: 752.5px;
        font-weight: 700;
        stroke-miterlimit: 10;
      }

      .st13 {
        fill: #f0f0f0;
      }

      .st19 {
        isolation: isolate;
      }

      .st20 {
        clip-path: url(#clippath-1);
      }

      .st21 {
        clip-path: url(#clippath-3);
      }

      .st22 {
        clip-path: url(#clippath-4);
      }

      .st23 {
        clip-path: url(#clippath-2);
      }

      .st24 {
        clip-path: url(#clippath-5);
      }

      .st14 {
        fill: #c2c2c2;
      }

      .st16 {
        fill: #c30000;
      }

      .st17 {
        fill: #fafafa;
      }

      .st3 {
        stroke-width: 4.2px;
      }

      .st3, .st4, .st5 {
        stroke: #050505;
      }

      .st4 {
        stroke-width: 4.2px;
      }

      .st5 {
        stroke-width: 4.2px;
      }

      .st18 {
        fill: #ebebeb;
      }

      .st25 {
        display: none;
      }

      .st26 {
        clip-path: url(#clippath);
      }
    </style>
    <clipPath id="clippath">
      <path class="st0" d="M3393.5,519.5c3.4-26.1,10.1-49.5,20.9-69.2,5.7-10.4,14.1-16.7,22.4-24.9,8.1-8,20.5-21.6,31.1-27.7,14.9-8.7,32.7-13.1,54.4-15.1,15.7-1.5,34.6-3.2,53.9-1.8,24.1,1.7,50.2,13.9,70.1,24.8,13.2,7.3,33.1,15,43.6,24,22,19,31.9,36.6,37.4,57,2.8,10.5,1.9,28.9,1.2,37.6-1,11-4.4,21.8-6.1,35.6-1.8,14.8,2.3,37.3,1.4,54-1.5,29.3-6.8,53.7-4.2,81.2l-13.9,2.9c-8.9-12.4-16.5-24.6-21.2-36.4l-7.5-53.1-20-62.4c-102-61.3-198.8-57.4-263.5-26.5Z"/>
    </clipPath>
    <clipPath id="clippath-1">
      <path class="st0" d="M3395.4,588.6c18.9-52.9,182.5-70.5,264.6,2.2,1.1,1,4.2,4.5,5,7,1.2,4,1.8,8.9,1.8,8.9.7,5.5,8.4,5,10.4-3.1l.6-39.4,4.3-40c-51.1-76.9-246.9-71.8-293-21.5-6.3,4.3-10.1,33.7-7.1,41.5-4.4,7.5-.7,19.9-.4,30.9,0,2.5-.3,9.6.4,13.5,1.2,7,3.5,11.2,3.5,11.2.9,2.6,5.5,3,6.8.5,0,0,2.7-10.5,3.2-11.8Z"/>
    </clipPath>
    <clipPath id="clippath-2">
      <path class="st0" d="M3680.8,716.8c-1.5,5.8-1.7,11.6-.9,17.2.9,5.7,2.8,11.2,5.8,16.1,9.2,15.4,20.5,22.1,26.2,23.5.4.1-4.9-4.8.9-3.4s11.6,1.7,17.2.9c5.8-.8,11.3-2.8,16.2-5.8,15.4-9.2,22.1-20.5,23.5-26.2.2-.8-4.8,4.9-3.4-.9,1.5-5.8,1.7-11.6.9-17.2-.8-5.7-2.8-11.2-5.8-16.1-9.3-15.6-20.5-22.1-26.2-23.5-.8-.2,5,4.8-.9,3.4-5.8-1.5-11.6-1.7-17.2-.9-5.7.9-11.2,2.8-16.1,5.8-15.3,9.1-22.1,20.6-23.5,26.2,0,.3,4.8-5,3.4.9Z"/>
    </clipPath>
    <clipPath id="clippath-3">
      <path class="st0" d="M3811.7,574.1c-119.1-51-226.4-58.1-362-37.5-21-33.7,3.8-50.9,3.5-98.3,0-12.4,18.7-16.4,22.1-17.9,112.7-49,210.5-35.6,331.4,24.6,11.3,53.3,29.6,79.5,5,129Z"/>
    </clipPath>
    <clipPath id="clippath-4">
      <path class="st0" d="M3473.1,421.3c4.1-33.7,11.1-66.9,40.4-93.9,35.4-64.1,81.2-82.5,126.6-86.4,110.9-31.4,169,23.2,183.8,99.4,34.3,36.1,40.9,90,43.5,151.1l-35.1,37c-7.9-28.3-12.9-56.8-38.2-83.3-117.5-55.1-223.5-52.3-321-23.8Z"/>
    </clipPath>
    <clipPath id="clippath-5">
      <path class="st0" d="M3890.1,489.3c-8.7-3.6-17.8-5.3-26.7-5.3-9.1,0-18.1,1.9-26.5,5.3-26,10.8-39.1,27-42.6,35.4-.3.7,8.7-6.6,5.1,2.1-3.6,8.7-5.3,17.7-5.3,26.6,0,9.2,1.8,18.2,5.3,26.5,10.8,26.1,27,39.1,35.5,42.6,1.2.5-6.6-8.7,2.1-5.1,8.7,3.6,17.7,5.3,26.6,5.3,9.2,0,18.2-1.8,26.5-5.3,26.4-10.9,39.1-27,42.6-35.4.5-1.1-8.7,6.6-5.1-2.1,3.6-8.7,5.3-17.7,5.3-26.6,0-9.1-1.9-18.1-5.3-26.5-10.8-25.9-27-39.1-35.5-42.6-.5-.2,6.6,8.7-2.1,5.1Z"/>
    </clipPath>
  </defs>
  <sodipodi:namedview id="namedview2" bordercolor="#000000" borderopacity="0.25" inkscape:current-layer="g2" inkscape:cx="43.887821" inkscape:cy="5.539797" inkscape:deskcolor="#d1d1d1" inkscape:pagecheckerboard="0" inkscape:pageopacity="0.0" inkscape:showpageshadow="2" inkscape:window-height="1212" inkscape:window-maximized="0" inkscape:window-width="2272" inkscape:window-x="2240" inkscape:window-y="25" inkscape:zoom="17.419411" pagecolor="#ffffff"/>
  <text class="st6" transform="translate(1065.2 897.3) scale(.9 1)"><tspan x="0" y="0">Dominus</tspan></text>
  <g id="Layer_x5F_1">
    <path class="st7" d="M380.9,163.9c21.5-5.4,43,5.4,59.1,16.1,10.7,5.4,16.1,10.7,26.9,16.1h10.7c10.7-5.4,21.5-10.7,26.9-16.1,16.1-10.7,32.2-10.7,53.7-10.7s21.5,5.4,26.9,10.7c10.7,10.7,21.5,21.5,32.2,32.2,5.4,5.4,10.7,10.7,16.1,10.7,10.7,0,21.5-5.4,32.2-5.4,21.5-5.4,43,0,59.1,16.1,10.7,5.4,16.1,16.1,21.5,26.9,5.4,10.7,10.7,21.5,16.1,32.2,5.4,5.4,5.4,10.7,10.8,16.1,16.1-5.4,21.5-5.4,32.2-5.4,16.1,5.4,26.9,5.4,37.6,16.1,16.1,10.7,32.2,26.9,32.2,43v48.4c0,10.7,0,21.5,10.8,26.9,10.8,10.7,26.9,21.5,32.2,32.2,10.8,16.1,10.8,37.6,5.4,53.7,0,10.7-5.4,26.9-10.8,37.6-5.4,10.7-10.8,26.9-10.8,43s5.4,32.2,0,48.4c0,5.4-5.4,10.7-5.4,21.5-10.8,21.5-32.2,37.6-48.4,53.7-21.5,21.5-43,37.6-64.5,59.1v5.4c-5.4,26.9-10.8,59.1-26.9,86-10.7,21.5-26.9,43-48.4,53.7-10.7,10.8-26.9,10.8-43,10.8-32.2,5.4-64.5,0-96.7-5.4-37.6,21.5-80.6,32.2-118.2,26.9-21.5-5.4-37.6-10.8-59.1-21.5-5.4,0-5.4-5.4-10.7-5.4-16.1,0-26.9,5.4-43,5.4-26.9,0-59.1,0-86-10.8-26.9-10.8-43-32.2-59.1-59.1-16.1-21.5-26.9-53.7-32.2-86-37.6-26.9-69.9-59.1-102.1-91.4-5.4-10.7-16.1-21.5-21.5-32.2-5.4-16.1,0-37.6,0-53.7s0-21.5-5.4-32.2c-5.4-10.7-10.7-21.5-16.1-32.2,0-16.1,0-32.2,0-48.4s5.4-21.5,16.1-32.2c5.4-10.7,16.1-16.1,26.9-26.9,5.4-5.4,10.7-16.1,10.7-21.5,0-16.1-5.4-32.2,0-48.4,0-21.5,10.7-32.2,21.5-43,10.7-10.7,26.9-16.1,37.6-16.1,16.1-5.4,26.9-5.4,32.2-10.7,5.4-5.4,10.7-10.7,10.7-16.1,5.4-16.1,10.7-32.2,21.5-43,10.7-16.1,32.2-26.9,48.4-26.9s26.9,0,37.6,5.4c5.4,0,16.1,5.4,21.5,0,5.4,0,10.7-5.4,16.1-10.7,10.7-10.7,21.5-21.5,32.2-26.9,10.7-10.7,21.5-16.1,32.2-16.1ZM375.5,190.8c-21.5,10.7-32.2,37.6-53.7,43,16.1,91.4,37.6,177.4,59.1,268.7,10.7,53.7,26.9,112.9,37.6,166.6,16.1,59.1,26.9,123.6,43,182.7V217.7c-21.5-5.4-32.2-21.5-53.7-26.9-10.7,0-21.5-5.4-32.2,0ZM526,196.2c-16.1,5.4-26.9,21.5-43,26.9v634.2c5.4-5.4,48.4-215,53.7-236.5,32.2-129,59.1-252.6,86-381.6-16.1-5.4-26.9-21.5-37.6-32.2-5.4-5.4-16.1-16.1-26.9-16.1-10.8,0-21.5,0-32.2,5.4ZM219.6,255.3c-16.1,16.1-16.1,43-37.6,59.1,32.2,80.6,69.9,155.9,102.1,236.5,48.4,107.5,102.1,209.6,150.5,317.1-32.2-129-59.1-252.6-91.4-381.6-16.1-80.6-37.6-161.2-53.7-247.2-5.4,0-21.5-5.4-43-5.4-10.7,5.4-21.5,10.7-26.9,21.5ZM644.3,239.2c-16.1,86-37.6,172-53.7,252.6-26.9,123.6-59.1,247.2-86,370.9,37.6-75.2,75.2-150.5,107.5-225.7,48.4-107.5,102.1-215,145.1-327.9-10.7-10.7-16.1-21.5-16.1-32.2-5.4-10.7-10.7-21.5-16.1-32.2-5.4-10.7-16.1-16.1-26.9-16.1-21.5,5.4-37.6,10.7-53.7,10.7ZM128.3,335.9c-10.7,5.4-21.5,10.7-32.2,21.5-5.4,10.7,0,21.5,0,32.2,0,16.1,5.4,37.6-5.4,53.7,37.6,53.7,75.2,112.9,118.2,166.6,64.5,86,134.4,172,204.2,258,0,5.4,5.4,5.4,10.7,10.8-16.1-32.2-32.2-64.5-48.4-96.7-26.9-53.7-53.7-107.5-75.2-161.2-48.4-96.7-91.4-198.9-134.4-295.6-10.8,5.4-26.9,10.7-37.6,10.7ZM767.9,346.7c-75.2,177.4-161.2,354.7-247.2,526.7,48.4-53.7,91.4-112.9,134.4-166.6,64.5-86,134.4-172,193.5-263.4-5.4-5.4-5.4-16.1-5.4-21.5,0-16.1,5.4-32.2,0-53.7,0-16.1-16.1-26.9-26.9-32.2-16.1-5.4-26.9-10.7-43-16.1,0,16.1,0,21.5-5.4,26.9ZM47.6,491.8c-5.4,10.7-5.4,21.5-5.4,37.6s10.7,26.9,16.1,37.6q0,5.4,5.4,10.7c69.9,75.2,139.7,150.5,215,220.4,43,37.6,80.6,69.9,123.6,107.5-5.4-5.4-5.4-10.8-10.7-16.1-26.9-32.2-59.1-69.9-86-107.5-75.2-107.5-155.9-209.6-231.1-317.1-5.4,5.4-16.1,10.7-26.9,26.9ZM794.8,567.1c-69.9,91.4-139.7,182.7-215,274.1-16.1,21.5-32.2,37.6-48.4,59.1,43-32.2,80.6-64.5,118.2-96.7,37.6-32.2,75.2-69.9,112.9-107.5,37.6-37.6,75.2-80.6,112.9-118.2,5.4-10.7,10.8-16.1,10.8-26.9,5.4-16.1,10.8-32.2,5.4-48.4,0-21.5-16.1-32.2-26.9-37.6-21.5,32.2-43,64.5-69.9,102.1ZM69.1,610.1v32.2c0,5.4,0,10.7,5.4,16.1,16.1,21.5,32.2,37.6,53.7,59.1,37.6,37.6,80.6,64.5,123.6,96.7,48.4,37.6,102.1,69.9,150.5,102.1-26.9-21.5-53.7-43-80.6-64.5-37.6-32.2-75.2-64.5-112.9-102.1-53.7-43-96.7-91.4-139.7-139.7ZM767.9,717.6c-37.6,37.6-80.6,75.2-123.6,112.9-32.2,26.9-69.9,59.1-102.1,86,5.4,0,5.4-5.4,5.4-5.4,43-26.9,86-53.7,123.6-86,43-32.2,86-64.5,129-96.7,21.5-16.1,43-37.6,59.1-59.1,5.4-5.4,10.8-10.7,10.8-21.5v-37.6c-32.3,37.6-64.5,75.2-102.1,107.5ZM198.1,814.3c5.4,26.9,16.1,48.4,32.2,69.9,10.7,10.8,26.9,26.9,43,26.9,21.5,5.4,43,5.4,69.9,0-5.4,0-5.4-5.4-10.7-5.4-48.4-26.9-91.4-59.1-134.4-91.4ZM601.3,916.4c21.5,0,48.4,5.4,69.9,0,16.1-5.4,26.9-10.8,37.6-21.5,21.5-21.5,32.2-48.4,37.6-75.2-48.4,32.2-96.7,64.5-145.1,96.7Z"/>
  </g>
  <g class="st25">
    <path class="st16" d="M3393.5,519.5c3.4-26.1,10.1-49.5,20.9-69.2,5.7-10.4,14.1-16.7,22.4-24.9,8.1-8,20.5-21.6,31.1-27.7,14.9-8.7,32.7-13.1,54.4-15.1,15.7-1.5,34.6-3.2,53.9-1.8,24.1,1.7,50.2,13.9,70.1,24.8,13.2,7.3,33.1,15,43.6,24,22,19,31.9,36.6,37.4,57,2.8,10.5,1.9,28.9,1.2,37.6-1,11-4.4,21.8-6.1,35.6-1.8,14.8,2.3,37.3,1.4,54-1.5,29.3-6.8,53.7-4.2,81.2l-13.9,2.9c-8.9-12.4-16.5-24.6-21.2-36.4l-7.5-53.1-20-62.4c-102-61.3-198.8-57.4-263.5-26.5Z"/>
    <g class="st26">
      <g>
        <image id="_Image2" class="st19" width="375" height="591" transform="translate(3560.9 462.7) scale(.4)" xlink:href="default-dark-natal-1.png"/>
        <image id="_Image3" class="st19" width="321" height="256" transform="translate(3397.9 393.1) scale(.4)" xlink:href="default-dark-natal-2.png"/>
        <image id="_Image4" class="st19" width="366" height="139" transform="translate(3563.3 394.2) scale(.4)" xlink:href="default-dark-natal-3.png"/>
        <g>
          <path class="st15" d="M3710.5,450.1c-13.5-10.5-32.6-20.2-53.8-26.5-19.1-5.7-39.9-8.5-59.5-6.6-.1,0-.2.1-.2.2,0,.1.1.2.2.2,19.5-1.8,40.1,1.3,59.1,7.1,20.9,6.4,39.8,16.3,53.1,26.8.4.3.9.2,1.2-.1.3-.4.2-.9-.1-1.2Z"/>
          <path class="st15" d="M3430.9,432.1c6.2-5.1,12.9-9.1,20.3-12.3,7.1-3.1,14.7-5.3,22.9-7,.1,0,.2-.1.2-.2,0-.1-.1-.2-.2-.2-8.3,1.4-16,3.5-23.2,6.4-7.6,3.1-14.5,7-20.9,12-.4.3-.4.8-.1,1.2.3.4.8.4,1.2.1Z"/>
          <path class="st15" d="M3682.9,524.4c.6-3.6.8-8.9.7-14.4,0-5.2-.3-10.5-.8-14.3,0-.1-.1-.2-.2-.2-.1,0-.2.1-.2.2.3,3.8.3,9.1.1,14.3-.2,5.3-.6,10.6-1.3,14.1,0,.5.2.9.7,1,.5,0,.9-.2,1-.7Z"/>
        </g>
      </g>
    </g>
    <path class="st2" d="M3393.5,519.5c3.4-26.1,10.1-49.5,20.9-69.2,5.7-10.4,14.1-16.7,22.4-24.9,8.1-8,20.5-21.6,31.1-27.7,14.9-8.7,32.7-13.1,54.4-15.1,15.7-1.5,34.6-3.2,53.9-1.8,24.1,1.7,50.2,13.9,70.1,24.8,13.2,7.3,33.1,15,43.6,24,22,19,31.9,36.6,37.4,57,2.8,10.5,1.9,28.9,1.2,37.6-1,11-4.4,21.8-6.1,35.6-1.8,14.8,2.3,37.3,1.4,54-1.5,29.3-6.8,53.7-4.2,81.2l-13.9,2.9c-8.9-12.4-16.5-24.6-21.2-36.4l-7.5-53.1-20-62.4c-102-61.3-198.8-57.4-263.5-26.5Z"/>
    <g>
      <path class="st8" d="M3395.4,588.6c18.9-52.9,182.5-70.5,264.6,2.2,1.1,1,4.2,4.5,5,7,1.2,4,1.8,8.9,1.8,8.9.7,5.5,8.4,5,10.4-3.1l.6-39.4,4.3-40c-51.1-76.9-246.9-71.8-293-21.5-6.3,4.3-10.1,33.7-7.1,41.5-4.4,7.5-.7,19.9-.4,30.9,0,2.5-.3,9.6.4,13.5,1.2,7,3.5,11.2,3.5,11.2.9,2.6,5.5,3,6.8.5,0,0,2.7-10.5,3.2-11.8Z"/>
      <g class="st20">
        <g>
          <path class="st13" d="M3571.9,468.4l82.7-2.7,27.6,58.7-4.5,73.6-163.7-41.3,1-26.9c62.2,5,70-27.9,57-61.3Z"/>
          <image id="_Image6" class="st19" width="127" height="260" transform="translate(3631.7 494.3) scale(.4)" xlink:href="default-dark-natal-4.png"/>
          <path class="st14" d="M3381.6,582.4c11.4-51,202.4-91.1,295.8,9.3l-.5,16.8-13.8,2.1-276.1-5.9c-3.4-5.4-6.4-18.2-5.5-22.3Z"/>
        </g>
      </g>
      <path class="st1" d="M3395.4,588.6c18.9-52.9,182.5-70.5,264.6,2.2,1.1,1,4.2,4.5,5,7,1.2,4,1.8,8.9,1.8,8.9.7,5.5,8.4,5,10.4-3.1l.6-39.4,4.3-40c-51.1-76.9-246.9-71.8-293-21.5-6.3,4.3-10.1,33.7-7.1,41.5-4.4,7.5-.7,19.9-.4,30.9,0,2.5-.3,9.6.4,13.5,1.2,7,3.5,11.2,3.5,11.2.9,2.6,5.5,3,6.8.5,0,0,2.7-10.5,3.2-11.8Z"/>
    </g>
    <g>
      <path class="st11" d="M3680.8,716.8c-1.5,5.8-1.7,11.6-.9,17.2.9,5.7,2.8,11.2,5.8,16.1,9.2,15.4,20.5,22.1,26.2,23.5s-4.9-4.8.9-3.4,11.6,1.7,17.2.9c5.8-.8,11.3-2.8,16.2-5.8,15.4-9.2,22.1-20.5,23.5-26.2s-4.8,4.9-3.4-.9,1.7-11.6.9-17.2c-.8-5.7-2.8-11.2-5.8-16.1-9.3-15.6-20.5-22.1-26.2-23.5-.8-.2,5,4.8-.9,3.4s-11.6-1.7-17.2-.9c-5.7.9-11.2,2.8-16.1,5.8-15.3,9.1-22.1,20.6-23.5,26.2s4.8-5,3.4.9Z"/>
      <g class="st23">
        <path class="st17" d="M3671.3,715.2c-1.4,5.6,6.5,7.9,7.3,13.2.8,5.5,2.7,10.8,5.5,15.5,8.8,14.8,19.7,21.2,25.2,22.6s-4.7-4.6.8-3.2,11.2,1.6,16.5.8c5.5-.8,10.8-2.7,15.6-5.5,14.8-8.8,21.2-19.7,22.6-25.2.2-.8-4.6,4.7-3.2-.8,1.4-5.6,1.6-11.2.8-16.5-.8-5.5-2.7-10.8-5.5-15.5-8.9-15-19.8-21.3-25.2-22.6s4.8,4.7-.8,3.2-11.2-1.6-16.6-.8c-5.5.8-10.8,2.7-15.5,5.5-14.7,8.8-21.7,18-23.1,23.4s-3.1.3-4.5,5.9Z"/>
      </g>
      <path class="st5" d="M3680.8,716.8c-1.5,5.8-1.7,11.6-.9,17.2.9,5.7,2.8,11.2,5.8,16.1,9.2,15.4,20.5,22.1,26.2,23.5s-4.9-4.8.9-3.4,11.6,1.7,17.2.9c5.8-.8,11.3-2.8,16.2-5.8,15.4-9.2,22.1-20.5,23.5-26.2s-4.8,4.9-3.4-.9,1.7-11.6.9-17.2c-.8-5.7-2.8-11.2-5.8-16.1-9.3-15.6-20.5-22.1-26.2-23.5-.8-.2,5,4.8-.9,3.4s-11.6-1.7-17.2-.9c-5.7.9-11.2,2.8-16.1,5.8-15.3,9.1-22.1,20.6-23.5,26.2s4.8-5,3.4.9Z"/>
    </g>
  </g>
  <g>
    <g>
      <path class="st17" d="M3811.7,574.1c-119.1-51-226.4-58.1-362-37.5-21-33.7,3.8-50.9,3.5-98.3,0-12.4,18.7-16.4,22.1-17.9,112.7-49,210.5-35.6,331.4,24.6,11.3,53.3,29.6,79.5,5,129Z"/>
      <g class="st21">
        <g>
          <path class="st18" d="M3713.4,415l85.9,22c28,25.4,32.2,46.5,28.5,66.1,2.3,39,10.4,84-18.8,76l-128.4-44.7c40.8,3.4,49.4-11.3,47.1-41.3-2-26-14.8-44.6-14.3-78.1Z"/>
          <path class="st9" d="M3770.4,434.7l86.5,21.5c27,25.9,31.1,47.3,27.5,67.3,2.2,39.7,10,85.5-18.1,77.4l-125.3-52.2c39.3,3.5,49.1-4.8,47-35.3-1.9-26.5-18-44.5-17.5-78.6Z"/>
          <image id="_Image21" data-name="_Image2" class="st19" width="177" height="241" transform="translate(3527 420.3) rotate(-180) scale(.5 -.5)" xlink:href="default-dark-natal-5.png"/>
          <path class="st12" d="M3442.8,521.7c3.2,4.2,9.8,7.6,15,6.7,81.6-14.1,215.9-30,356.4,40.2l-2.6,5.5c-62.1.3-231.3-34.3-362-37.5-4.6-4.8-9-13.5-6.8-15Z"/>
        </g>
      </g>
      <path class="st4" d="M3811.7,574.1c-119.1-51-226.4-58.1-362-37.5-21-33.7,3.8-50.9,3.5-98.3,0-12.4,18.7-16.4,22.1-17.9,112.7-49,210.5-35.6,331.4,24.6,11.3,53.3,29.6,79.5,5,129Z"/>
    </g>
    <g>
      <path class="st16" d="M3473.1,421.3c4.1-33.7,11.1-66.9,40.4-93.9,35.4-64.1,81.2-82.5,126.6-86.4,110.9-31.4,169,23.2,183.8,99.4,34.3,36.1,40.9,90,43.5,151.1l-35.1,37c-7.9-28.3-12.9-56.8-38.2-83.3-117.5-55.1-223.5-52.3-321-23.8Z"/>
      <g class="st22">
        <g>
          <image id="_Image41" data-name="_Image4" class="st19" width="424" height="516" transform="translate(3837.6 278.7) rotate(-180) scale(.5 -.5)" xlink:href="default-dark-natal-6.png"/>
          <image id="_Image5" class="st19" width="262" height="179" transform="translate(3640.1 240.8) rotate(-180) scale(.5 -.5)" xlink:href="default-dark-natal-7.png"/>
          <image id="_Image61" data-name="_Image6" class="st19" width="183" height="232" transform="translate(3561.8 308.7) rotate(-180) scale(.5 -.5)" xlink:href="default-dark-natal-8.png"/>
          <image id="_Image7" class="st19" width="422" height="462" transform="translate(3836.3 278.7) rotate(-180) scale(.5 -.5)" xlink:href="default-dark-natal-9.png"/>
          <g>
            <path class="st10" d="M3793.6,447.6c-8.4-10-14.1-19.7-18.4-29.7-6.6-15.5-9.9-31.6-14.5-49.8-18.4-23-37.4-41.1-57-55.1-23.2-16.6-47.2-27.4-71.7-34-.2,0-.3-.3-.3-.5,0-.2.3-.3.5-.3,24.7,6.4,48.9,17.1,72.4,33.5,19.9,13.9,39.3,32,58,55.1,0,.1.2.3.2.4,4.8,18.1,8.2,34.1,14.9,49.5,4.3,9.7,9.9,19.2,18.2,28.8.5.6.5,1.6-.2,2.1-.6.5-1.6.5-2.1-.2Z"/>
            <path class="st10" d="M3760.9,367c10.1-14,14.7-26.6,15-38.3.4-14-5.4-26.5-15-38.1,0-.1,0-.3,0-.3.1,0,.3,0,.3,0,10,11.6,16,24.2,15.8,38.4-.1,11.9-4.5,24.9-14.6,39.4-.3.5-1,.6-1.4.2-.5-.3-.6-1-.2-1.4Z"/>
            <path class="st10" d="M3512.9,326.5c6.3-4.5,12.4-7.7,18.5-10,9.7-3.8,19.4-5.7,30.4-8.1.1,0,.3,0,.3.2,0,.1,0,.3-.2.3-10.8,2.7-20.4,4.8-29.9,8.9-5.9,2.5-11.8,5.8-17.8,10.4-.4.3-1.1.2-1.4-.2-.3-.4-.2-1.1.2-1.4Z"/>
          </g>
        </g>
      </g>
      <path class="st4" d="M3473.1,421.3c4.1-33.7,11.1-66.9,40.4-93.9,35.4-64.1,81.2-82.5,126.6-86.4,110.9-31.4,169,23.2,183.8,99.4,34.3,36.1,40.9,90,43.5,151.1l-35.1,37c-7.9-28.3-12.9-56.8-38.2-83.3-117.5-55.1-223.5-52.3-321-23.8Z"/>
    </g>
    <g>
      <path class="st11" d="M3890.1,489.3c-8.7-3.6-17.8-5.3-26.7-5.3-9.1,0-18.1,1.9-26.5,5.3-26,10.8-39.1,27-42.6,35.4-.3.7,8.7-6.6,5.1,2.1-3.6,8.7-5.3,17.7-5.3,26.6,0,9.2,1.8,18.2,5.3,26.5,10.8,26.1,27,39.1,35.5,42.6s-6.6-8.7,2.1-5.1,17.7,5.3,26.6,5.3c9.2,0,18.2-1.8,26.5-5.3,26.4-10.9,39.1-27,42.6-35.4s-8.7,6.6-5.1-2.1c3.6-8.7,5.3-17.7,5.3-26.6,0-9.1-1.9-18.1-5.3-26.5-10.8-25.9-27-39.1-35.5-42.6-.5-.2,6.6,8.7-2.1,5.1Z"/>
      <g class="st24">
        <path class="st17" d="M3896,479.1c-7.9-3.3-13,7.9-21.1,7.9-8.3,0-16.5,1.7-24,4.8-23.7,9.8-35.5,24.5-38.7,32.2s7.9-6,4.6,1.9c-3.3,7.9-4.8,16.1-4.8,24.1,0,8.3,1.7,16.5,4.8,24.1,9.8,23.7,24.5,35.6,32.2,38.7s-6-7.9,1.9-4.6,16.1,4.8,24.2,4.8c8.3,0,16.5-1.7,24.1-4.8,24-9.9,35.6-24.5,38.7-32.2s-7.9,6-4.6-1.9,4.8-16.1,4.8-24.2c0-8.3-1.7-16.5-4.8-24-9.8-23.6-21.9-35.8-29.6-39s.2-4.6-7.7-7.9Z"/>
      </g>
      <path class="st3" d="M3890.1,489.3c-8.7-3.6-17.8-5.3-26.7-5.3-9.1,0-18.1,1.9-26.5,5.3-26,10.8-39.1,27-42.6,35.4-.3.7,8.7-6.6,5.1,2.1-3.6,8.7-5.3,17.7-5.3,26.6,0,9.2,1.8,18.2,5.3,26.5,10.8,26.1,27,39.1,35.5,42.6s-6.6-8.7,2.1-5.1,17.7,5.3,26.6,5.3c9.2,0,18.2-1.8,26.5-5.3,26.4-10.9,39.1-27,42.6-35.4s-8.7,6.6-5.1-2.1c3.6-8.7,5.3-17.7,5.3-26.6,0-9.1-1.9-18.1-5.3-26.5-10.8-25.9-27-39.1-35.5-42.6-.5-.2,6.6,8.7-2.1,5.1Z"/>
    </g>
  </g>
</svg>