<svg width="154" height="154" viewBox="0 0 154 154" fill="none" xmlns="http://www.w3.org/2000/svg">
<path d="M65.5361 131.157C61.0475 138.278 59.5322 142.765 56.7405 144.23C55.278 144.998 53.1723 143.886 53.5835 143.209C54.1065 142.346 55.6287 145.042 58.0192 141.567C59.9449 138.769 63.569 132.357 65.0751 130.841C65.5767 130.337 65.9396 130.516 65.5361 131.157V131.157Z" fill="#191919"/>
<path d="M102.372 52.0861C103.817 51.1213 105.376 50.4621 107.248 50.1872C106.709 49.9781 106.164 49.8395 105.615 49.7622C104.414 50.2155 103.301 50.6435 102.042 51.4353C102.16 51.6428 102.268 51.8602 102.371 52.0869L102.372 52.0861Z" fill="#38A1FF"/>
<path d="M109.625 62.867C109.177 62.5324 109.094 62.3747 111.586 60.5523C112.517 59.8716 113.467 59.2185 114.5 58.6947C114.514 58.4351 114.59 58.1649 114.389 57.9359C106.13 62.4673 110.944 63.4574 103.127 58.2039C103.087 58.4949 103.042 58.7958 102.997 59.1136C107.751 62.3954 107.979 62.4099 107.536 62.8479C103.052 67.292 103.625 68.8372 102.611 68.2484C102.449 68.1542 102.213 68.0255 101.924 67.8747C100.957 68.3663 100.056 67.6534 99.5791 66.7093C99.1258 66.4941 98.6672 66.282 98.233 66.0891C97.9436 65.7828 97.6442 65.7392 93.8479 63.9444C93.0776 63.5799 93.1105 63.6802 94.0224 61.7414C94.158 61.4474 94.3417 61.0998 94.5646 60.7131C94.2032 60.9375 93.7996 61.122 93.4145 61.1779C91.6786 64.5064 93.6258 63.1465 87.6633 61.7996C87.5232 62.001 87.3708 62.1986 87.3195 62.4474C88.8593 62.7759 90.3203 63.3448 91.7881 63.8992C92.7721 64.2713 90.5967 66.0309 90.1779 73.9031C90.1419 74.5807 90.148 74.5677 89.4727 74.4689C87.8953 74.2369 86.3333 73.8732 84.7246 73.9061C84.6495 74.1312 84.8019 74.3372 84.7812 74.5585C90.4818 75.4681 90.0799 75.1037 90.1848 76.3625C90.7361 83.0592 92.0845 83.315 90.5867 82.9505C88.393 82.4176 88.2169 82.3012 87.7728 82.3816C87.8769 82.7506 88.1373 82.9911 88.4405 83.197C89.4543 83.3287 90.4122 83.6856 91.3976 83.9321C92.3218 84.1634 91.8923 86.2307 93.2169 85.9436C93.2453 85.5715 92.7705 84.8862 92.8341 84.5026C93.037 84.3265 92.8846 84.4053 96.1074 85.488C96.2989 85.5523 96.4558 85.6465 96.5852 85.7943C97.0003 85.7361 97.4183 85.6925 97.792 85.475C97.4758 85.0569 93.5263 83.8265 93.0201 83.6932C92.5423 83.5676 92.2766 83.3065 92.1289 82.8379C91.4704 80.7499 91.0952 78.6128 90.9849 76.4291C90.9459 75.681 90.988 75.6657 91.7139 75.8364C94.1304 76.4023 96.5002 77.1281 98.8486 77.9298C100.221 78.3992 98.8019 78.3808 99.1993 85.4459C100.728 85.2009 99.2483 83.769 100.225 79.0171C100.394 78.197 100.411 78.4597 106.714 81.0163C107.105 80.5309 107.164 80.3417 106.104 79.8708C100.372 77.3318 100.355 77.9888 100.624 76.8693C101.207 74.4467 102.116 72.1496 103.294 69.9559C103.473 69.6213 103.63 69.6435 103.934 69.8135C108.467 72.3556 111.205 74.7606 111.646 74.8081C112.46 74.3181 111.146 73.7055 110.728 73.3931C104.153 68.4811 103.532 69.5386 104.268 68.3334C105.294 66.6534 106.565 65.1626 107.901 63.7284C108.528 63.0562 108.595 63.0768 109.304 63.6404C114.443 67.7315 114.471 68.7093 114.68 67.1381C113.103 65.8104 111.281 64.1006 109.627 62.867H109.625ZM99.7905 76.6312C99.5049 77.8111 99.7277 76.9405 91.7284 74.9873C91.1105 74.8364 90.9298 74.9796 90.9757 73.9972C91.0875 71.6496 91.4122 69.3318 92.0408 67.0646C92.7728 64.4283 92.844 64.2989 93.3149 64.5301L97.658 66.5477C99.3127 67.4467 101.549 68.5324 102.071 68.815C103.457 69.5615 101.587 69.2154 99.7912 76.6319L99.7905 76.6312Z" fill="#38A1FF"/>
<path d="M116.305 51.887C117.119 51.9168 130.723 63.5187 133.439 86.0523C134.085 91.4138 134.948 97.6137 133.379 104.31C131.574 112.016 126.582 111.632 124.481 109.965C121.965 107.97 120.142 104.486 115.947 101.827C111.884 99.253 107.021 98.1803 100.682 95.0554C99.1911 94.3204 92.822 90.557 91.7378 89.2468C94.9415 89.8158 92.502 89.2706 95.2899 90.7446C98.8014 92.6006 98.561 92.8533 99.4476 92.8104C103.161 92.6312 106.443 91.6634 107.7 91.0363C106.073 90.0355 104.35 89.2323 102.732 88.423C103.062 88.1795 103.52 88.0179 103.922 87.9314C103.942 88.3548 104.725 88.2767 108.304 90.4972C109.06 90.9658 112.407 88.5363 113.091 88.0225C114.989 86.596 115.079 86.436 114.761 86.1932C113.426 85.1726 112.143 84.0814 110.651 83.2851L111.339 82.6725C115.742 85.243 115.201 86.2422 116.045 85.3847C117.035 84.3785 117.898 83.2683 118.681 82.0944C118.886 81.7882 118.883 81.5447 118.628 81.2866C117.465 80.1098 116.373 78.8578 115.02 77.8831L115.465 77.2154C119.544 80.5133 119.001 81.6182 119.813 80.256C120.493 79.1166 120.994 77.8946 121.511 76.6794C121.769 76.0747 121.814 75.9644 117.981 71.763C118.13 71.5869 118.095 71.2982 118.337 71.1788C119.092 71.3503 121.538 75.1665 122.071 75.0065C123.57 71.0693 123.803 66.1887 123.606 61.982C123.538 60.5195 119.068 55.6902 118.082 54.5738C117.947 54.4214 117.798 54.3127 117.583 54.341C117.2 53.5003 116.628 52.7576 116.305 51.887ZM124.757 63.3112C124.35 64.1596 125.313 68.423 122.944 75.6443C122.674 76.4675 122.7 75.8312 128.365 83.8104C129.352 81.8793 130.517 75.9292 129.511 73.335C128.303 70.2217 126.471 66.1749 124.756 63.3104L124.757 63.3112ZM109.772 91.253C110.1 91.7668 112.156 92.7767 115.739 95.6305C115.938 95.789 116.12 95.8051 116.347 95.714C117.86 95.1075 119.297 94.3541 120.671 93.4812C121.047 93.2423 121.031 93.0187 120.791 92.6764C119.44 90.7514 117.857 89.0332 116.161 87.413C115.472 86.7553 116.12 87.6726 109.772 91.253ZM122.59 77.2322C121.982 77.4413 122.015 78.8349 120.396 81.2974C119.681 82.3862 121.148 82.0761 125.052 88.6772C125.297 89.0906 125.306 90.0302 127.737 85.4704C128.147 84.7024 128.271 84.7491 122.59 77.2322ZM115.023 96.1458C113.762 94.9796 110.534 92.8441 109.234 91.9896C108.18 91.2966 106.528 93.2109 101.335 93.5072C100.025 93.5815 98.8665 93.5195 108.644 97.3411C109.775 97.7829 114.197 96.4659 115.023 96.1466L115.023 96.1458ZM129.474 98.0049C130.086 98.0539 132.06 94.6113 132.579 93.5868C133.055 92.6473 129.726 87.5378 128.715 85.9C128.612 85.9926 128.53 86.0347 128.497 86.1013C126.492 90.1848 125.687 89.6603 126.141 90.5547C126.537 91.3341 128.231 94.2867 129.474 98.0042V98.0049ZM119.742 82.5921C119.308 82.8219 118.647 84.1978 116.683 86.2139C116.012 86.9023 117.645 86.9222 121.475 92.3449C121.889 92.9306 122.16 92.4467 124.455 90.2882C124.898 89.8717 125.062 89.7262 122.283 85.8134C121.488 84.6948 120.649 83.609 119.741 82.5921H119.742ZM117.063 96.5478C117.11 96.9812 120.168 99.119 122.177 102.513C122.353 102.81 122.608 102.83 122.89 102.716C125.538 101.642 125.415 101.719 125.087 100.844C124.265 98.6458 123.26 96.534 122.014 94.5432C121.471 93.6772 121.932 94.3403 117.063 96.5478ZM126.052 101.109C126.951 100.67 127.564 100.024 128.266 99.4973C128.739 99.1412 128.86 98.7369 128.672 98.132C127.766 95.2239 125.713 91.0554 125.313 90.8977C124.526 91.6458 123.782 92.4613 122.903 93.1335C121.694 94.0562 122.936 93.1381 126.052 101.109ZM129.108 99.9444C126.261 102.4 126.303 101.768 126.606 102.821C127.371 105.48 127.449 109 127.422 109.598C127.385 110.405 129.122 109.711 129.772 109.242C130.263 108.888 130.498 108.487 130.437 107.853C130.236 105.779 129.729 101.742 129.108 99.9452V99.9444ZM111.955 98.6466C119.185 101.774 119.118 103.54 119.905 103.403C120.332 103.329 121.774 103.281 121.498 102.831C120.159 100.644 118.386 98.8426 116.44 97.1994C116.192 96.9904 115.934 96.9245 115.601 97.044C111.804 98.4054 110.008 97.8043 111.955 98.6466ZM131.145 107.446C132.851 105.499 133.782 96.4138 133.234 94.3901C132.986 94.5562 132.917 94.8365 132.791 95.0723C130.641 99.0731 129.574 98.4383 130.025 100.3C131.328 105.678 130.683 106.65 131.145 107.446ZM133.038 91.7086L133.222 91.668C132.687 87.0279 132.279 82.3647 130.846 77.8739C129.231 88.1213 127.344 81.5477 133.038 91.7086ZM126.893 109.618C126.673 107.24 126.673 105.764 125.829 102.965C125.641 102.343 125.498 102.622 123.494 103.477C122.258 104.006 123.323 103.596 124.58 108.23C124.855 109.244 125.608 109.594 126.462 109.873C126.713 109.955 126.901 109.869 126.893 109.618ZM123.513 107.63C123.377 107.004 122.468 103.705 121.808 103.983C120.463 104.549 119.713 103.285 123.513 107.63Z" fill="#38A1FF"/>
<path d="M100.372 49.347C100.364 49.347 100.351 49.35 100.351 49.35L100.321 49.3592C100.679 49.6601 101.007 49.9894 101.305 50.3531C103.234 49.7612 105.351 49.5315 107.223 50.2597C113.581 52.2605 118.158 61.2168 112.122 73.1181C109.363 78.5577 105 82.8701 100.449 84.6542C86.829 90.0018 79.3106 74.2682 89.4155 58.9182C89.5319 58.7413 89.6636 58.556 89.8091 58.3654C89.5021 58.2092 89.2723 57.9695 89.1406 57.6808C87.3926 59.9289 85.8282 62.7176 84.8037 66.148C79.5311 83.7981 94.4033 93.4245 107.144 81.3923C121.888 67.4657 116.157 44.471 100.371 49.3462L100.372 49.347Z" fill="#191919"/>
<path d="M119.493 62.55C119.242 49.3647 108.353 43.1296 97.413 47.6717C97.851 47.8517 98.266 48.0431 98.6588 48.2521C111.448 43.3516 121.313 54.4528 117.758 69.0026C115.36 78.818 107.872 86.292 100.163 88.266C84.7935 92.2009 76.2873 74.6113 86.475 58.4635C87.1618 57.3747 87.9046 56.3624 88.6925 55.4267C88.3349 55.2736 88.0539 55.0301 87.8793 54.7276C87.4474 55.2154 87.021 55.7246 86.6021 56.2567C83.4689 60.2307 76.6901 75.5087 85.57 85.0416C85.8563 85.3487 85.8847 85.6174 85.6833 85.9988C84.2828 88.6534 56.5192 129.86 50.8324 140.826C49.7841 142.847 50.3025 145.397 53.4595 147.514C55.4235 148.831 58.742 148.229 59.9878 146.44C64.445 140.038 80.3954 109.784 84.4176 102.101C90.3793 90.7109 91.0302 90.1098 91.5386 89.2629C107.725 92.8617 119.744 75.629 119.494 62.5508L119.493 62.55ZM80.2866 108.131C76.2988 115.855 61.3669 142.829 61.3561 142.846C60.6134 144.04 59.7765 145.168 58.8201 146.202C55.9932 149.258 49.5291 145.022 51.6884 141.07C59.5437 126.694 82.3563 93.2048 86.6335 86.2599C87.8716 87.2086 89.1634 88.0416 90.6312 88.7109C87.5455 93.3418 84.8709 99.2515 80.2866 108.131Z" fill="#191919"/>
<path d="M74.4806 80.485C77.3565 75.4231 68.7087 69.6543 68.4093 76.9352C68.3664 77.9582 68.8656 79.2653 68.4866 78.511C68.3993 78.3357 68.3893 78.3234 68.2515 78.158C66.9521 76.5998 67.2538 75.7577 67.0241 75.6605C66.9728 75.6398 66.9146 75.6475 66.8717 75.6804C66.2814 76.1337 66.7187 77.2392 67.1329 77.8296C67.6161 78.5202 67.8403 78.7844 67.8304 78.8694C67.2354 78.8441 64.5884 77.5325 64.5838 78.6136C64.5838 79.2744 65.4177 78.4927 67.8197 79.8357C66.7668 79.7691 64.299 79.6129 63.4009 81.3809C61.9644 84.2055 66.1856 87.9092 70.5019 85.348C71.0302 88.0057 73.9407 88.776 74.4652 86.3426C74.6244 85.6052 74.4361 85.0784 74.2339 84.3671C75.1076 84.4682 76.9483 84.5601 77.2699 82.9758C77.5724 81.4942 75.9652 80.7737 74.4789 80.485H74.4806ZM71.3511 84.4452C71.3648 84.2293 71.6345 83.7783 71.2064 83.5631C70.8902 83.4023 70.6504 83.6228 70.4261 83.8924C69.7194 84.7415 68.8924 85.3518 67.8074 85.312C61.9207 84.7622 63.3939 79.645 68.1175 80.6734C68.3916 80.7331 68.6474 80.8518 68.9169 80.9781C70.0096 81.4896 69.6566 81.1244 69.9858 81.5386C70.3304 81.9728 71.0463 82.8778 72.6428 83.6604C73.5241 84.0938 73.9445 85.567 73.5892 86.4108C72.9698 87.8878 71.2079 86.5547 71.3518 84.4437L71.3511 84.4452ZM70.5946 80.5179C70.521 80.4781 70.469 80.4521 70.459 80.4521C69.7829 79.2989 69.0211 78.2614 69.123 76.9352C69.0165 74.9384 70.6382 73.577 72.3449 74.6689C73.8197 75.6099 74.3404 77.3548 74.2033 78.6665C74.0632 79.9988 73.5073 80.4314 73.139 80.7178C72.9108 80.8947 72.675 81.0784 72.8228 81.4023C72.9851 81.7553 73.2378 81.665 73.4813 81.5761C75.6452 80.7936 77.2883 82.5378 76.1199 83.3326C75.2309 83.9253 73.8802 83.6382 73.2363 82.8196C72.0541 81.3143 71.031 80.7576 70.5946 80.5195V80.5179Z" fill="#191919"/>
<path d="M30.2835 49.0085C29.4328 48.4817 28.0393 48.2574 28.8732 48.3033C29.0761 48.3133 29.0867 48.3102 29.2942 48.2719C31.2904 47.9028 31.8801 48.5797 32.0746 48.4274C32.3288 48.2298 31.8119 47.2903 30.1312 47.4564C29.2017 47.5476 28.9474 47.6004 28.8824 47.5545C29.1948 47.0514 31.6357 45.3822 30.6985 44.8515C30.4244 44.6969 30.3012 44.899 30.1817 45.0943C29.6894 45.8959 28.8502 46.5813 28.047 47.0698C28.622 46.1846 29.9666 44.1119 28.867 42.4618C27.0983 39.8094 21.811 41.7175 21.9274 46.7038C19.357 45.863 17.249 48.0162 19.1173 49.6709C19.6824 50.1724 20.2322 50.265 20.9512 50.4373C20.4359 51.1487 19.4528 52.7084 20.6756 53.7658C21.818 54.7543 23.2307 53.7137 24.2131 52.5568C27.2131 57.5445 36.4857 52.8416 30.285 49.0078L30.2835 49.0085ZM30.3264 53.5499C28.7835 54.3722 27.0079 53.971 25.9321 53.2076C24.0523 51.8738 25.089 50.6601 24.1633 50.6601C23.4994 50.6601 24.0998 51.4121 22.9941 52.7206C22.3701 53.4595 21.017 53.7061 20.9251 52.5859C20.8417 51.5683 21.7299 50.4924 22.7888 50.3293C24.6778 50.0369 25.6663 49.4189 26.0882 49.1555C26.1625 49.1088 26.2139 49.069 26.2139 49.069C27.5508 49.046 28.8279 48.8906 29.9321 49.6295C31.7254 50.517 32.1151 52.5989 30.3264 53.5499ZM23.1358 48.1938C23.4934 47.9541 23.2981 47.5391 23.1947 47.2566C22.7583 46.0629 22.7966 45.167 23.2759 44.373C26.632 39.5269 30.3847 43.2987 27.1671 46.9189C26.7827 47.3515 26.1993 47.6035 25.8019 48.0583C25.6181 48.1678 24.2552 48.082 22.3447 49.396C21.5277 49.9572 20.0546 49.5859 19.4933 48.8868C18.5064 47.4618 20.6526 46.8079 22.2958 47.886C22.4811 48.007 22.7391 48.4564 23.1358 48.1923V48.1938Z" fill="#191919"/>
<path d="M73.501 14.6096C72.9926 13.8607 72.2514 13.0391 70.8486 13.0767C73.975 8.95795 73.1197 6.99925 72.596 6.33998C71.8088 5.3507 70.2521 5.1677 68.723 5.88363C66.1227 7.10109 65.3739 9.58429 64.8172 12.2619C64.7575 12.2313 64.6855 12.1915 64.6181 12.154C63.9642 11.791 62.6043 11.0368 60.9198 11.7528C57.6441 13.1448 59.9795 17.4932 63.831 16.7696C65.4305 16.4695 64.4022 17.1609 65.8157 16.9243C67.4282 16.6525 68.1128 16.1019 68.6633 15.6601C69.5822 14.9205 69.5691 15.2566 69.7085 14.9235C69.7644 14.7888 69.8341 14.6218 70.4466 14.8623C70.7047 14.9633 71.2047 15.6372 71.4528 15.4564C71.4933 15.4258 71.5163 15.3768 71.514 15.327C71.4849 14.6624 71.0967 14.4082 70.5982 14.0606C71.6534 13.5391 72.3976 14.399 73.3081 14.8339C73.4497 14.9005 73.5883 14.7375 73.501 14.6096ZM72.3624 8.09347C72.2644 9.8454 70.733 12.2083 69.308 13.4809C68.988 13.7665 68.4397 13.8454 68.2368 14.3837C68.2116 14.3891 68.1756 14.3952 68.1465 14.3937C65.1947 14.3186 64.0071 17.2068 61.2146 15.3875C59.674 14.3845 60.0392 12.5185 62.0921 12.4848C63.2827 12.4649 64.635 12.9633 64.9903 14.1096C65.0232 14.2183 65.1656 14.2535 65.246 14.1701C65.9145 13.5606 65.1533 11.8852 66.6901 9.06821C68.5607 5.63707 72.5094 5.40583 72.3624 8.09347Z" fill="#191919"/>
<path d="M83.6688 50.1763C82.776 50.3463 83.5042 50.7139 78.7836 53.3877C78.1328 53.7568 77.6221 53.9911 77.165 53.4267C76.1297 52.148 75.642 53.612 74.6841 52.5975C74.021 51.8953 73.5164 50.5722 71.6925 48.6549C70.8671 47.7874 72.2783 47.6511 72.2063 46.2521C72.1588 45.3218 72.7009 45.8815 76.7094 43.1832C76.8449 43.0921 77.0034 43.0262 77.0708 42.8578C77.3265 42.9635 77.534 43.1189 77.6282 43.3938C76.9827 43.3922 76.0677 44.6457 73.3778 45.8861C72.3801 46.3463 73.096 46.7315 72.41 47.756C72.2132 48.05 72.2768 48.282 72.492 48.491C73.5088 49.4796 74.2453 50.6817 75.0623 51.8234C75.6764 52.6817 76.593 51.3188 77.6389 52.7522C77.864 53.0615 78.0409 52.913 78.2584 52.7851C83.4536 49.7299 82.5149 49.2721 83.6696 50.1771L83.6688 50.1763Z" fill="#38A1FF"/>
<path d="M91.586 40.9168C92.2353 39.8088 94.3532 38.2851 94.5255 38.1863C95.5401 37.6074 94.6855 36.998 95.72 35.9551C96.1097 35.5623 95.8372 35.4918 94.1051 33.6404C93.6051 33.1059 92.5048 34.3287 91.1779 32.88C90.3417 31.9673 86.2046 34.8785 85.3126 35.4979C85.151 35.4175 85.0469 35.2904 84.9956 35.1174C85.7797 34.1541 88.2812 32.4987 90.4512 32.0064C91.9834 31.6587 91.5921 33.4007 93.2322 32.8861C94.3019 32.5508 94.5508 33.0607 96.4911 35.2292C97.377 36.2192 95.7062 35.9773 95.6304 37.913C95.6067 38.5301 95.4421 38.1863 91.9581 41.2721C91.7851 41.2062 91.609 41.1419 91.5845 40.9168H91.586Z" fill="#38A1FF"/>
<path d="M87.6704 42.7767C87.724 43.7851 86.8657 44.1074 87.7271 44.6672C88.6008 45.2346 88.0494 46.2085 87.0762 45.2859C86.2776 44.5286 86.1352 45.5761 84.9805 45.5531C84.6834 45.547 84.3098 45.6174 84.2278 45.2277C84.1459 44.8379 84.5073 44.7269 84.7983 44.6664C87.6023 44.0806 87.1643 40.1289 84.2278 42.413C83.0387 43.3372 81.7301 43.6442 81.0724 42.3548C80.1888 40.6243 81.3733 40.475 80.4124 39.6802C80.0946 39.4168 79.7209 39.0707 79.9238 38.7391C80.384 37.9864 80.9307 39.7445 82.1314 38.6465C82.2914 38.5002 82.6773 38.756 82.482 39.0531C82.0295 39.7437 81.5127 39.9956 81.6964 41.3861C81.9422 43.2468 83.662 41.6786 84.2592 41.2514C85.7975 40.1511 87.711 40.9145 87.6704 42.7767Z" fill="#38A1FF"/>
<path d="M96.4148 57.7054C95.8443 57.9321 95.489 59.429 93.7593 60.2667C92.7838 60.7391 92.2792 60.0155 92.5763 59.2062C92.8351 58.501 93.8298 57.4987 94.4936 55.6487C94.7593 54.9091 94.6651 54.5691 93.7631 55.7008C91.27 58.8295 89.2088 57.8333 89.953 56.5745C90.3588 55.8884 91.8765 54.2927 91.9247 53.8968C91.5495 53.8968 90.669 54.8256 89.6069 54.8256C88.6582 54.8256 88.0862 54.1373 88.7256 53.2261C89.2585 52.4657 89.6268 52.2521 90.0503 51.4336C90.5625 50.4435 90.5671 50.4121 89.7693 49.5921C88.7899 48.5852 89.5395 47.0461 90.8029 47.0071C92.1169 46.9657 93.3841 47.1916 94.6353 47.5507C98.3053 48.6028 100.948 49.906 102.045 53.4098C103.303 57.4305 101.635 58.2697 101.929 64.9819C101.997 66.5439 101.955 67.0393 101.497 67.2177C101.093 67.3747 100.818 67.0791 100.576 66.8157C99.0748 65.1764 99.6812 57.9014 98.9331 60.0783C98.7838 60.5132 98.1897 62.4275 97.6475 63.1159C97.035 63.8938 95.9661 63.4038 95.9362 61.988C95.901 60.3478 96.5756 58.3769 96.414 57.7047L96.4148 57.7054Z" fill="#38A1FF"/>
<path d="M72.5662 31.641C72.0179 31.2766 66.7652 30.3761 67.3326 28.8822C67.8288 27.5767 70.544 29.0017 71.7836 28.785C71.8885 28.1954 69.6749 28.0009 67.1504 25.3363C66.3441 24.4848 66.1021 23.2666 67.2492 23.3248C67.7806 23.3516 76.3296 27.275 76.4927 27.35C79.9751 28.9542 81.2416 31.0759 81.6604 33.8141C81.7293 34.2651 81.5111 34.4879 80.9583 35.0553C76.5808 39.5492 76.717 39.5645 76.2048 39.566C74.3618 39.5706 72.8694 40.6097 72.3411 39.6839C71.8127 38.7582 72.7385 38.1234 73.4728 37.3868C72.8051 37.3378 71.5057 37.8516 70.9383 37.9144C69.7821 38.0408 69.5807 36.7329 70.982 35.6862C72.3411 34.6709 73.325 34.7023 73.7836 34.3149C71.106 34.1028 71.4345 34.5384 69.962 34.4404C68.0041 34.3103 69.6397 31.8432 71.544 31.6464C71.8158 31.6181 72.0937 31.6418 72.567 31.6418L72.5662 31.641Z" fill="#38A1FF"/>
<path d="M102.13 37.3869C100.947 35.4428 96.3947 31.1595 94.8985 29.7521C94.227 29.1197 93.7485 29.0439 90.5746 29.7499C84.3288 31.1396 81.6297 34.7529 77.9643 38.9314C74.1756 43.2453 69.8425 44.1129 67.4428 45.1044C66.2889 45.5815 66.3517 46.4812 66.0944 48.07C65.9352 49.0539 66.2996 49.1167 68.1932 52.0516C69.6856 54.3656 71.4811 56.7094 73.681 59.2171C74.1534 59.7569 74.6871 59.9544 75.3701 59.7982C82.4934 58.1749 88.9376 51.4283 89.4735 50.4682C89.701 50.0654 89.3028 49.7262 88.9697 49.9751C88.4 50.3993 87.263 51.717 86.1221 52.6404C85.4919 50.9957 85.4069 51.0355 85.753 50.6826C88.5248 47.8587 90.0409 45.0646 92.6099 43.3456C92.8242 43.6718 92.8533 44.0018 93.0126 44.3081C93.6757 45.5792 92.6803 45.7047 92.3916 46.1052C92.2729 46.2706 91.9582 46.4758 92.1834 46.756C92.6435 47.3227 94.0111 45.1481 97.2607 43.9605C100.618 42.7308 100.925 43.2576 101.19 42.2958C102.368 38.0148 102.529 38.0431 102.13 37.3869ZM83.6358 51.3548C78.8678 55.1542 77.5409 54.9077 75.6481 55.6405C74.717 56.0019 75.0378 55.0486 72.4321 51.9329C72.0209 51.4429 68.2223 46.4865 67.7215 45.8142C70.4459 44.9161 73.5156 43.8893 76.083 41.8357C78.0845 44.1764 82.3464 49.1726 83.9261 50.4996C84.3855 50.8847 84.361 50.7783 83.6358 51.3548ZM75.3732 57.6826C75.4758 56.8765 75.6685 56.4317 75.9513 56.348C82.4299 54.4284 83.9751 51.9911 84.8954 51.5731C85.6397 53.0907 85.6167 53.0968 84.3181 54.1665C81.0424 56.8641 76.4298 58.8947 75.2576 58.8947C75.181 58.8947 75.2032 59.0218 75.374 57.6826H75.3732ZM76.7423 41.3517C78.9544 39.1304 80.8502 36.671 83.0792 34.5393C85.8196 37.4643 89.7967 40.462 92.0463 42.5815C89.1696 44.792 88.3434 46.6289 84.9238 50.2461C81.9467 47.4628 79.4574 44.2736 76.7423 41.3517ZM101.511 37.7966C98.1742 38.328 95.8335 39.939 93.3572 41.6435C92.9682 41.9109 92.5991 41.8818 92.25 41.5562C91.7255 41.001 88.5746 38.475 83.7844 33.9704C85.9942 31.9604 88.8472 30.7001 92.2668 30.2238C94.74 29.877 93.8388 29.8571 98.2217 34.0485C99.639 35.4038 100.765 36.4804 101.511 37.7966ZM74.2798 55.9215C74.6741 56.4743 74.5141 56.7829 74.4643 57.5861C74.4429 57.9322 74.4199 58.289 74.3157 58.652C73.426 57.8342 70.4084 53.9743 68.0531 50.3434C67.2039 49.0325 66.6932 48.9682 66.8731 48.1642C67.0048 47.5753 66.978 47.0439 67.1955 46.4084C68.6526 48.1458 73.0945 54.2538 74.2798 55.9215ZM93.5976 42.573C97.191 40.0784 98.2347 39.5477 101.253 38.7239C100.209 41.8471 100.641 42.0378 99.7944 42.2568C96.8855 43.0064 95.5769 43.7423 94.0915 44.6925C93.325 42.7683 93.2285 42.8303 93.5976 42.573Z" fill="#191919"/>
<path d="M77.1916 46.8701C79.2781 46.8433 79.5009 49.844 77.4427 49.8793C75.3531 49.9152 75.1028 46.8969 77.1916 46.8701ZM78.2429 48.4589C78.285 47.2644 76.409 46.9711 76.3822 48.2606C76.3585 49.4045 78.2016 49.6419 78.2429 48.4589Z" fill="#38A1FF"/>
<path d="M92.1497 36.5945C92.1658 38.8732 89.3519 38.557 89.3312 36.6435C89.3097 34.6335 92.1344 34.4123 92.1497 36.5945ZM91.59 36.6381C91.6888 35.5348 90.1145 35.1029 89.9698 36.3617C89.8097 37.7492 91.4667 38.0179 91.59 36.6381Z" fill="#38A1FF"/>
<path d="M42.2798 26.9135C41.7912 26.412 41.864 27.0322 38.1381 25.1348C37.6243 24.8729 37.2568 24.6432 37.426 24.1103C37.8088 22.9005 36.6603 23.2098 36.9046 22.1631C37.0738 21.4372 37.7101 20.5513 38.168 18.5636C38.3755 17.6646 39.0623 18.5138 39.9321 17.8737C40.5102 17.4479 40.3747 18.046 43.8196 19.4656C43.936 19.5138 44.0455 19.5881 44.1825 19.5597C44.2231 19.7688 44.2109 19.9686 44.0753 20.147C43.802 19.732 42.6067 19.6761 40.6657 18.4724C39.9459 18.026 40.001 18.6501 39.0508 18.644C38.7775 18.6424 38.6565 18.7826 38.6128 19.0084C38.4084 20.0819 37.949 21.0666 37.5615 22.0774C37.2698 22.8377 38.537 22.8477 38.0592 24.1294C37.9559 24.4059 38.1266 24.4556 38.3027 24.5414C42.4804 26.5751 42.3709 25.7864 42.2798 26.9135Z" fill="#38A1FF"/>
<path d="M51.5991 28.0666C52.5876 28.0145 54.4682 28.7281 54.6037 28.7971C55.4062 29.2036 55.4353 28.3951 56.5471 28.6179C56.9651 28.7014 56.8939 28.4954 57.3488 26.5957C57.4805 26.0459 56.2255 25.8591 56.593 24.3897C56.8243 23.464 53.1941 22.0405 52.4154 21.7297C52.3993 21.5926 52.436 21.4701 52.5256 21.3636C53.4782 21.4578 55.6068 22.3644 56.8449 23.5505C57.7201 24.3882 56.433 24.8767 57.4621 25.7128C58.1328 26.258 57.9093 26.6355 57.3396 28.8047C57.0792 29.7963 56.5264 28.6187 55.2485 29.392C54.8411 29.6386 54.9927 29.3874 51.5279 28.4586C51.4965 28.3185 51.4636 28.1776 51.5984 28.0674L51.5991 28.0666Z" fill="#38A1FF"/>
<path d="M42.8577 38.3097C42.4695 38.0394 41.3538 38.4452 40.0797 37.6902C39.3615 37.2645 39.6119 36.632 40.2589 36.4789C40.8217 36.3456 41.8898 36.5593 43.3607 36.2009C43.9496 36.0577 44.1287 35.8533 43.0169 35.7545C39.945 35.4819 39.7099 33.7315 40.8362 33.6756C41.4503 33.645 43.1211 33.9429 43.3975 33.8058C43.2375 33.5654 42.2666 33.3923 41.814 32.7093C41.4105 32.0998 41.6096 31.4383 42.4679 31.462C43.1831 31.4819 43.4764 31.6274 44.1839 31.5516C45.0384 31.4597 45.0606 31.4497 45.249 30.5883C45.4794 29.5309 46.7888 29.3579 47.3516 30.1534C47.9373 30.9811 48.3294 31.8923 48.6303 32.8494C49.5116 35.6573 49.798 37.9092 48.0116 40.1037C45.9611 42.6221 44.713 41.9069 40.52 44.9475C39.5437 45.6558 39.2076 45.8388 38.8982 45.6213C38.6249 45.4284 38.6984 45.1251 38.765 44.8595C39.1846 43.1971 44.1165 40.4973 42.4006 40.9391C42.0568 41.0271 40.5744 41.4605 39.9005 41.4038C39.1402 41.3395 39.0001 40.4452 39.8975 39.8234C40.9373 39.1037 42.4917 38.6986 42.8561 38.3104L42.8577 38.3097Z" fill="#38A1FF"/>
<path d="M49.4781 11.8937C49.4781 11.386 47.828 7.62565 49.0301 7.35612C50.0799 7.12105 50.3188 9.47253 50.985 10.1777C51.4092 9.99397 50.5937 8.4886 51.2331 5.73284C51.4375 4.85152 52.1182 4.17847 52.5684 4.94111C52.7775 5.29486 53.8877 12.4595 53.9084 12.5951C54.3395 15.5185 53.5294 17.2314 51.9475 18.6663C51.6871 18.9021 51.4505 18.8569 50.851 18.7421C46.1006 17.8324 46.1496 17.9312 45.9298 17.6012C45.1434 16.419 43.8402 15.8998 44.2124 15.167C44.5845 14.4335 45.3846 14.7597 46.1702 14.919C45.9176 14.4695 45.0355 13.8523 44.7545 13.5139C44.1825 12.824 44.9367 12.1387 46.2047 12.5935C47.4352 13.0353 47.8341 13.6823 48.2775 13.814C47.2752 12.0024 47.135 12.3983 46.5722 11.4097C45.8242 10.0958 48.1036 10.0989 49.0409 11.2382C49.1749 11.4013 49.2767 11.5905 49.4788 11.8937H49.4781Z" fill="#38A1FF"/>
<path d="M58.3908 22.6334C54.8356 19.2023 51.3739 18.9994 47.0959 18.4113C42.7269 17.811 40.3356 15.4014 38.6778 14.2781C37.8379 13.7069 37.1993 14.19 36.1441 14.6655C35.4167 14.9933 35.5362 15.2628 34.4481 17.736C33.5951 19.6755 32.8501 21.8287 32.1694 24.3195C32.0155 24.883 32.1296 25.3241 32.5293 25.7069C36.6089 29.6066 43.7192 30.8777 44.5645 30.8272C44.7805 30.8111 44.8961 30.6702 44.9145 30.537C44.9933 29.9612 43.7858 30.1105 41.8279 29.5079C42.5622 28.4765 42.4987 28.4596 42.8287 28.5239C45.7927 29.0997 48.2284 28.8984 50.3992 29.7904C50.282 30.0278 50.1006 30.1809 49.9773 30.403C49.6005 31.0837 49.2591 30.9527 48.929 30.8264C48.6427 30.7169 48.6794 30.7537 48.5033 30.7253C48.3716 30.7031 48.1258 30.6641 48.0454 30.9198C47.9505 31.2177 48.3303 31.3455 48.9597 31.5561C50.6649 32.1273 51.7859 32.6687 53.7422 34.4826C54.1779 34.8869 54.3226 35.0423 54.8111 34.8846C58.0677 33.821 58.1373 33.9351 58.4015 33.3739C59.1534 31.7789 59.9735 27.0262 60.243 25.4642C60.3678 24.7406 60.2116 24.3915 58.3908 22.6334ZM34.9933 24.6135C38.8631 27.8662 41.1227 27.9405 41.8241 28.3134C41.2177 29.344 41.1832 29.3325 40.004 28.9711C36.9144 28.0224 33.6908 25.9611 33.1587 25.2008C34.7781 24.4282 34.7016 24.37 34.9933 24.6135ZM37.6173 14.7972C37.0745 16.5744 35.1212 21.795 34.5415 23.2957C34.3616 23.7598 34.1281 23.7743 33.5699 24.0936C33.3669 24.21 33.1587 24.3294 32.9251 24.4144C33.1303 23.3784 34.3149 19.8723 35.5859 16.9619C36.0699 15.8516 35.8884 15.5231 36.4535 15.3072C36.8547 15.1556 37.1755 14.9312 37.6173 14.7972ZM42.0768 27.5048C42.0408 27.5155 41.893 27.465 41.7376 27.4129C36.8762 25.7843 36.8815 25.0944 35.3861 24.0331C34.8126 23.6273 35.54 23.4091 36.4236 20.4496C36.5354 20.0783 38.0339 15.7161 38.3287 14.8937C40.0431 16.2467 41.9818 17.7498 44.3478 18.5247C43.9175 20.0637 42.2483 25.8379 42.1625 26.8991C42.1579 26.9305 42.0936 27.478 42.0768 27.5048ZM51.3663 30.1166C54.4428 31.3432 55.2468 31.7919 57.001 33.3233C54.6389 33.9665 54.7246 34.2927 54.2606 33.8731C52.5669 32.3425 51.5385 31.8034 50.318 31.259C51.1442 30.0684 51.0937 30.0063 51.3663 30.1166ZM45.05 18.7712C47.3831 19.2391 49.73 19.4144 52.0156 19.929C51.3257 22.8585 51.0653 26.71 50.6779 28.9979C48.1028 28.1227 46.4727 28.3363 42.8287 27.7039C43.3524 24.6495 44.3302 21.7184 45.0492 18.772L45.05 18.7712ZM51.903 29.4657C51.4382 29.2774 51.429 29.2751 51.5232 28.7751C51.6825 27.9336 51.9183 25.2582 52.7928 20.1694C54.9911 20.7414 56.985 22.03 58.7216 24.0002C59.3035 24.6572 59.7652 24.8486 59.4138 26.2988C58.6672 29.3869 58.6082 31.4022 57.8073 33.0293C56.0508 31.1419 54.034 30.3272 51.9022 29.4665L51.903 29.4657Z" fill="#191919"/>
<path d="M48.7363 26.3403C48.1107 26.8035 47.5403 26.3878 47.5456 27.1795C47.5517 27.9812 46.6919 28.0417 46.8703 27.0225C47.0173 26.1864 46.2845 26.5417 45.8082 25.789C45.6857 25.5953 45.4828 25.3855 45.698 25.1665C45.9131 24.9475 46.139 25.1335 46.3014 25.2951C47.8687 26.8502 50.2248 24.8893 47.5081 23.9704C46.4085 23.5983 45.6551 22.8877 46.2041 21.9168C46.9422 20.6129 47.5403 21.3104 47.6436 20.3563C47.6781 20.0393 47.7424 19.6527 48.041 19.6427C48.7202 19.619 47.8228 20.7201 49.0387 21.0225C49.2018 21.0631 49.2003 21.4199 48.9254 21.4214C48.2876 21.4237 47.9078 21.1986 47.0916 21.9084C45.9997 22.8579 47.7386 23.2966 48.2684 23.4988C49.6314 24.0187 49.9514 25.5738 48.7363 26.3403Z" fill="#38A1FF"/>
<path d="M41.6528 21.3401C42.5563 22.6709 40.7225 24.0882 39.8251 22.7796C38.9277 21.471 40.7485 20.0078 41.6528 21.3401ZM41.0778 22.6916C41.8649 22.2107 41.2539 20.8799 40.4147 21.4098C39.6696 21.8807 40.2998 23.1663 41.0778 22.6916Z" fill="#38A1FF"/>
<path d="M54.6173 26.593C53.1579 27.5731 52.1663 25.6274 53.3884 24.8005C54.6709 23.9322 56.0139 25.655 54.6173 26.593ZM54.3516 26.2507C55.1028 25.8449 54.7115 24.6496 53.8409 25.0914C52.8807 25.5784 53.4121 26.7584 54.3516 26.2507Z" fill="#38A1FF"/>
<path d="M52.9421 68.4089C53.841 68.2741 53.2691 68.8629 58.6083 69.8262C59.3449 69.9594 59.9046 70.0115 60.1496 69.3277C60.704 67.7787 61.6481 68.9992 62.2178 67.7266C62.6121 66.8453 62.6512 65.428 63.74 63.0176C64.2331 61.9257 62.8564 62.2634 62.4613 60.9195C62.1987 60.026 61.8694 60.7434 57.1963 59.5099C57.0378 59.4678 56.8663 59.4594 56.7484 59.3215C56.5424 59.5053 56.3977 59.722 56.4008 60.0114C57.0087 59.7963 58.2882 60.6776 61.2369 60.9601C62.3304 61.065 61.7829 61.6661 62.7691 62.4058C63.0524 62.6179 63.0677 62.8583 62.9353 63.1255C62.3028 64.3943 62.0042 65.7718 61.6106 67.1194C61.3143 68.1332 59.9988 67.1477 59.485 68.8476C59.3748 69.2136 59.1581 69.1317 58.91 69.0834C54.8663 68.2955 53.6994 67.5865 53.2599 67.6807C53.0562 67.7243 52.9184 67.9923 52.9421 68.4089Z" fill="#38A1FF"/>
<path d="M42.4037 62.2844C41.4251 61.4543 38.9219 60.7147 38.7282 60.6787C37.5804 60.4689 38.1847 59.6105 36.8631 58.9674C36.3661 58.7254 36.5996 58.5684 37.6218 56.2491C37.9173 55.5784 39.3607 56.3701 40.134 54.5646C40.621 53.4267 45.4887 54.8065 46.5354 55.0975C46.661 54.9689 46.7175 54.8134 46.7083 54.6327C45.6509 53.9819 42.7413 53.2476 40.5314 53.4995C38.9694 53.6779 39.9158 55.1924 38.1953 55.2483C37.0751 55.2851 37.0085 55.8487 35.8936 58.537C35.3844 59.7644 36.8814 58.9834 37.5935 60.7859C37.8209 61.3609 37.8608 60.9827 42.1694 62.7423C42.311 62.6228 42.4565 62.5041 42.4037 62.2844Z" fill="#38A1FF"/>
<path d="M49.8077 64.6066C48.8521 64.932 48.3092 64.1924 48.0053 65.174C47.6967 66.1686 46.6102 65.9045 47.2334 64.7153C47.7442 63.7398 46.6997 63.8891 46.4057 62.772C46.3299 62.4833 46.1622 62.1441 46.5144 61.9581C46.8812 61.7643 47.0726 62.0913 47.2089 62.3539C48.5282 64.896 52.2189 63.3953 49.2235 61.1916C48.0114 60.2995 47.3598 59.1234 48.4218 58.1403C49.8483 56.8202 50.3123 57.9175 50.8161 56.7781C50.9831 56.3998 51.2151 55.9465 51.588 56.0507C52.4379 56.288 50.895 57.2934 52.2763 58.1502C52.4616 58.2651 52.32 58.7054 51.9808 58.5982C51.1921 58.3485 50.8116 57.922 49.5221 58.4772C47.7985 59.2199 49.7748 60.4481 50.3498 60.9067C51.8292 62.0875 51.6117 64.1357 49.8077 64.6043V64.6066Z" fill="#38A1FF"/>
<path d="M59.4297 63.314C58.3722 62.376 56.2436 63.5008 56.8171 65.2236C57.0774 66.0039 57.8094 66.4503 58.7375 66.1432C60.131 65.6823 60.2788 64.0666 59.4297 63.314ZM58.5307 65.3829C57.6655 65.7137 57.2145 64.667 57.7007 64.0644C57.9036 63.8124 58.2398 63.6532 58.546 63.7022C59.2329 63.814 59.4963 65.0131 58.53 65.3821L58.5307 65.3829Z" fill="#38A1FF"/>
<path d="M43.1945 57.4818C42.7542 56.1817 41.2963 56.0017 40.5904 56.8095C39.8078 57.7046 40.5023 59.6128 41.794 59.6128C42.732 59.6128 43.5827 58.6304 43.1945 57.4818ZM42.353 58.5094C42.0551 58.9397 41.3928 58.9558 41.0582 58.2161C40.7741 57.5898 41.2366 57.0033 41.7213 57.0033C42.3185 57.0033 42.7121 57.9903 42.353 58.5094Z" fill="#38A1FF"/>
<path d="M43.3919 79.7254C44.0045 79.7522 44.836 81.0455 46.7449 81.2653C47.82 81.3893 48.0589 80.5394 47.5114 79.8732C47.0351 79.2936 45.7625 78.6772 44.5259 77.1489C44.0313 76.5377 44.0075 76.187 45.2327 76.9574C48.6186 79.0876 50.2358 77.4659 49.1171 76.5239C48.5076 76.0101 46.5481 75.0047 46.3705 74.6479C46.7243 74.5254 47.8629 75.1096 48.8659 74.7597C49.7603 74.4481 50.0742 73.6081 49.1707 72.9588C48.4165 72.4167 47.9999 72.337 47.3292 71.7046C46.5183 70.9396 46.503 70.9113 46.9854 69.8738C47.578 68.5997 46.3628 67.3945 45.1561 67.7742C43.9494 68.154 42.7817 68.8003 41.7181 69.553C38.6025 71.7589 36.5389 73.8615 36.6614 77.5302C36.8015 81.7408 38.6515 81.9827 40.5941 88.4131C41.0466 89.9108 41.2495 90.3641 41.7395 90.3817C42.1729 90.397 42.3337 90.0279 42.4746 89.6994C43.3475 87.655 40.3766 80.9881 41.7993 82.7982C42.0833 83.1596 43.2763 84.7699 44.016 85.24C44.8506 85.7714 45.699 84.9559 45.2602 83.6106C44.751 82.0516 43.4647 80.413 43.3935 79.7262L43.3919 79.7254Z" fill="#38A1FF"/>
<path d="M57.2951 47.2467C57.6925 46.7207 62.3487 44.1372 61.3204 42.9151C60.4214 41.847 58.3288 44.0874 57.0876 44.2934C56.7951 43.7704 58.8181 42.8562 60.3211 39.5085C60.802 38.4373 60.6266 37.2076 59.5639 37.6418C59.0707 37.8431 52.2981 44.37 52.1695 44.494C49.4137 47.1594 48.9191 49.5798 49.4275 52.3019C49.511 52.7498 49.7905 52.8884 50.4995 53.2414C56.1174 56.0346 55.9926 56.0959 56.4766 55.9282C58.217 55.3248 59.9697 55.8118 60.1626 54.7636C60.3556 53.7153 59.2721 53.4221 58.3364 52.9695C58.9505 52.7023 60.3464 52.7582 60.9023 52.6288C62.034 52.3654 61.7936 51.0652 60.1259 50.5407C58.508 50.0316 57.5883 50.3853 57.0286 50.1732C59.4857 49.089 59.3196 49.6081 60.6772 49.0293C62.4812 48.2597 60.122 46.4665 58.2622 46.9129C57.9965 46.9764 57.7407 47.0905 57.2959 47.2459L57.2951 47.2467Z" fill="#38A1FF"/>
<path d="M68.8264 60.6157C68.0737 59.226 67.8264 58.3309 66.5737 58.262C63.8532 58.1134 59.5646 58.7091 54.6044 55.912C49.6411 53.1142 46.0154 50.6624 39.6685 51.412C36.4419 51.7941 36.0146 52.0238 35.5873 52.8431C33.0498 57.7214 31.6019 60.9496 31.2849 62.4373C31.1256 63.1839 31.2504 63.0843 33.7941 66.7597C34.3622 67.5805 34.4794 66.9825 38.0529 67.0331C41.5215 67.0813 43.5192 68.6839 43.7689 67.9948C43.8898 67.6602 43.5108 67.5568 43.3577 67.4504C42.9541 67.1701 41.9725 67.3784 42.177 65.9611C42.2267 65.6173 42.1456 65.2926 42.2397 64.9167C45.2405 65.6923 47.556 67.8125 51.1341 69.576C51.5767 69.7942 51.4833 69.7873 51.432 71.5461C50.0407 71.0469 48.5652 70.1916 47.8631 69.9703C47.4687 69.847 47.2038 70.2957 47.5506 70.6028C48.6617 71.5867 57.0224 75.5346 63.945 74.7498C64.6296 74.6725 65.0752 74.3202 65.347 73.6434C66.5967 70.543 67.517 67.7383 68.1595 65.0675C68.978 61.667 69.3011 61.4902 68.8256 60.6165L68.8264 60.6157ZM32.5582 63.4052C35.6785 63.1854 36.8385 63.3416 41.0544 64.5109C41.4932 64.6326 41.3745 64.6188 41.2895 66.674C40.043 66.3784 38.9212 66.1586 37.2497 66.1586C33.4618 66.1586 35.4151 67.092 32.5582 63.4052ZM40.9717 63.556C37.8883 62.7153 35.2543 62.0323 32.0054 62.6173C32.4342 60.2513 33.9618 58.1571 35.657 54.2888C36.4472 52.4863 37.1578 52.6303 38.2298 52.4174C41.6126 51.7374 44.7221 51.9855 47.4725 53.1517C44.7061 58.4733 42.6379 61.8631 41.9863 63.1089C41.7648 63.5315 41.4263 63.6803 40.971 63.5553L40.9717 63.556ZM48.3263 53.4549C51.1272 54.729 53.7436 56.4289 56.5591 57.7918C54.9557 61.4595 53.6709 65.2681 51.775 68.8891C47.3309 66.5936 46.0131 65.1594 42.5192 64.0078C43.8676 61.4121 46.7558 57.0101 48.3263 53.4549ZM67.7291 63.4075C66.7062 67.6135 65.1326 72.2513 64.563 73.3172C64.2077 72.8149 64.0706 72.2773 63.8042 71.7766C63.6189 71.4305 63.5852 71.1066 63.6954 70.7291C64.2881 68.6816 66.442 61.5223 67.2391 59.4105C67.651 59.935 67.8157 60.4672 68.1235 60.9611C68.5561 61.6571 68.0974 61.896 67.7291 63.4075ZM64.1219 66.3562C62.6839 70.1793 63.3141 70.9511 62.311 70.919C60.3409 70.8524 59.092 71.5178 53.3562 69.5116C52.9909 69.3838 52.6433 69.2873 52.6127 69.2069C52.5828 69.1273 52.762 68.8799 53.0009 68.4511C53.6349 67.4557 56.6946 59.6785 57.3401 58.0307C60.4443 59.1234 63.6793 59.0774 66.5454 59.0246C66.2889 59.8424 64.3486 65.7513 64.1212 66.3569L64.1219 66.3562ZM52.2398 70.1311C53.2207 70.2199 55.5798 72.0086 62.2582 71.6824C62.2536 71.5897 62.249 71.5721 62.2666 71.6824C62.8141 71.6564 62.6694 71.661 63.7973 73.8417C62.7842 74.2559 57.677 73.88 53.6403 72.3891C52.0667 71.808 52.0369 71.8225 52.239 70.1319L52.2398 70.1311Z" fill="#191919"/>
</svg>
