<svg version="1.1" id="Layer_1" xmlns="http://www.w3.org/2000/svg" xmlns:xlink="http://www.w3.org/1999/xlink" x="0px" y="0px" viewBox="0 0 500 500" style="width: 144px;" xml:space="preserve" data-imageid="seo-1-33" imageName="SEO 1" class="illustrations_image">
<style type="text/css">
	.st0_seo-1-33{fill:#FFFFFF;}
	.st1_seo-1-33{fill:#231F20;}
	.st2_seo-1-33{fill:#68E1FD;}
	.st3_seo-1-33{fill:#D1D3D4;}
</style>
<g id="Screen_seo-1-33">
	<path class="st0_seo-1-33" d="M413.5,192.5v206c0,7.6-8.5,13.8-19.1,13.8H108.8c-10.6,0-19.2-6.2-19.2-13.8v-206c0-7.6,8.6-13.8,19.2-13.8&#10;&#9;&#9;h285.6C405,178.7,413.5,184.9,413.5,192.5z"/>
	<path class="st1_seo-1-33" d="M394.4,413H108.8c-11,0-19.8-6.5-19.8-14.5v-206c0-8,8.9-14.5,19.8-14.5h285.6c10.9,0,19.8,6.5,19.8,14.5v206&#10;&#9;&#9;C414.2,406.5,405.3,413,394.4,413z M108.8,179.4c-10.2,0-18.4,5.9-18.4,13.1v206c0,7.2,8.3,13.1,18.4,13.1h285.6&#10;&#9;&#9;c10.2,0,18.4-5.9,18.4-13.1v-206c0-7.2-8.3-13.1-18.4-13.1L108.8,179.4z"/>
	<path class="st0_seo-1-33" d="M413.5,192.5v10.8H89.7v-10.8c0-7.6,8.6-13.8,19.2-13.8h285.6C405,178.7,413.5,184.9,413.5,192.5z"/>
	<path class="st1_seo-1-33" d="M413.5,204.1H89.7c-0.4,0-0.7-0.3-0.7-0.7v-10.8c0-8,8.9-14.5,19.8-14.5h285.6c10.9,0,19.8,6.5,19.8,14.5v10.8&#10;&#9;&#9;C414.2,203.7,413.9,204,413.5,204.1L413.5,204.1L413.5,204.1z M90.4,202.7h322.4v-10.1c0-7.2-8.3-13.1-18.4-13.1H108.8&#10;&#9;&#9;c-10.2,0-18.4,5.9-18.4,13.1L90.4,202.7L90.4,202.7z"/>
	<rect x="143.7" y="218.5" class="st0_seo-1-33" width="218.9" height="21.8"/>
	<path class="st1_seo-1-33" d="M362.6,241H143.7c-0.4,0-0.7-0.3-0.7-0.7v-21.8c0-0.4,0.3-0.7,0.7-0.7h218.9c0.4,0,0.7,0.3,0.7,0.7&#10;&#9;&#9;c0,0,0,0,0,0v21.8C363.3,240.7,363,241,362.6,241z M144.4,239.6h217.5v-20.4H144.4V239.6z"/>
	<rect x="332.9" y="218.5" class="st2_seo-1-33 targetColor" width="29.7" height="21.8" style="fill: rgb(104, 225, 253);"/>
	<path class="st1_seo-1-33" d="M362.6,241h-29.7c-0.4,0-0.7-0.3-0.7-0.7c0,0,0,0,0,0v-21.8c0-0.4,0.3-0.7,0.7-0.7l0,0h29.7&#10;&#9;&#9;c0.4,0,0.7,0.3,0.7,0.7c0,0,0,0,0,0v21.8C363.3,240.7,363,241,362.6,241z M333.6,239.6h28.3v-20.4h-28.3L333.6,239.6z"/>
	<rect x="279.9" y="255.4" class="st3_seo-1-33" width="113" height="113"/>
	<rect x="119.7" y="258.2" class="st2_seo-1-33 targetColor" width="125.7" height="2.8" style="fill: rgb(104, 225, 253);"/>
	<rect x="119.7" y="266.6" class="st2_seo-1-33 targetColor" width="83.6" height="2.8" style="fill: rgb(104, 225, 253);"/>
	<rect x="119.7" y="275" class="st3_seo-1-33" width="134.8" height="2.8"/>
	<rect x="119.7" y="283.3" class="st3_seo-1-33" width="118.5" height="2.8"/>
	<rect x="120.7" y="292.3" class="st3_seo-1-33" width="17.8" height="1.4"/>
	<rect x="143.7" y="292.3" class="st3_seo-1-33" width="9.9" height="1.4"/>
	<rect x="158.1" y="292.3" class="st3_seo-1-33" width="9.5" height="1.4"/>
	<rect x="119.7" y="308.8" class="st2_seo-1-33 targetColor" width="98.6" height="2.8" style="fill: rgb(104, 225, 253);"/>
	<rect x="119.7" y="317.1" class="st2_seo-1-33 targetColor" width="118.5" height="2.8" style="fill: rgb(104, 225, 253);"/>
	<rect x="119.7" y="325.5" class="st3_seo-1-33" width="79.2" height="2.8"/>
	<rect x="119.7" y="333.9" class="st3_seo-1-33" width="103.9" height="2.8"/>
	<rect x="120.7" y="342.8" class="st3_seo-1-33" width="8.9" height="1.4"/>
	<rect x="134.1" y="342.8" class="st3_seo-1-33" width="19.4" height="1.4"/>
	<rect x="158.1" y="342.8" class="st3_seo-1-33" width="6.4" height="1.4"/>
	<rect x="119.7" y="359.3" class="st2_seo-1-33 targetColor" width="110.2" height="2.8" style="fill: rgb(104, 225, 253);"/>
	<rect x="119.7" y="367.7" class="st2_seo-1-33 targetColor" width="125.7" height="2.8" style="fill: rgb(104, 225, 253);"/>
	<rect x="119.7" y="376" class="st3_seo-1-33" width="86.1" height="2.8"/>
	<rect x="119.7" y="384.4" class="st3_seo-1-33" width="70.9" height="2.8"/>
	<rect x="120.7" y="393.3" class="st3_seo-1-33" width="23.2" height="1.4"/>
	<rect x="149.8" y="393.3" class="st3_seo-1-33" width="13.1" height="1.4"/>
	<circle class="st2_seo-1-33 targetColor" cx="111.2" cy="191" r="4.6" style="fill: rgb(104, 225, 253);"/>
	<circle class="st3_seo-1-33" cx="125.1" cy="191" r="4.6"/>
	<circle class="st3_seo-1-33" cx="139" cy="191" r="4.6"/>
	<path class="st1_seo-1-33" d="M344.2,234c-3.3,0-5.9-2.7-5.9-5.9s2.7-5.9,5.9-5.9c3.3,0,5.9,2.7,5.9,5.9c0,1.6-0.6,3.1-1.7,4.2&#10;&#9;&#9;C347.3,233.4,345.8,234,344.2,234z M344.2,223.6c-2.5,0-4.5,2-4.5,4.5c0,2.5,2,4.5,4.5,4.5c2.5,0,4.5-2,4.5-4.5&#10;&#9;&#9;c0-1.2-0.5-2.4-1.3-3.2C346.6,224,345.4,223.6,344.2,223.6z"/>
	<path class="st1_seo-1-33" d="M352.2,236.7c-0.2,0-0.4-0.1-0.5-0.2l-4.3-4.3c-0.3-0.3-0.3-0.7,0-1s0.7-0.3,1,0l0,0l4.3,4.3&#10;&#9;&#9;c0.3,0.3,0.3,0.7,0,1C352.6,236.7,352.4,236.7,352.2,236.7L352.2,236.7z"/>
</g>
<g id="Magnifyng_Glass_seo-1-33">

		<rect x="91.9" y="316.8" transform="matrix(0.4551 -0.8905 0.8905 0.4551 -228.7879 275.3019)" class="st1_seo-1-33" width="37.2" height="15.6"/>
	<path class="st1_seo-1-33" d="M109,345.4c-0.1,0-0.2,0-0.3-0.1l-13.9-7.1c-0.3-0.2-0.5-0.6-0.3-0.9l16.9-33.1c0.1-0.2,0.2-0.3,0.4-0.4&#10;&#9;&#9;c0.2-0.1,0.4-0.1,0.5,0l13.9,7.1c0.3,0.2,0.5,0.6,0.3,0.9L109.7,345c-0.1,0.2-0.2,0.3-0.4,0.4L109,345.4L109,345.4z M96,337.3&#10;&#9;&#9;l12.7,6.5l16.3-31.9l-12.7-6.5L96,337.3z"/>
	<path class="st0_seo-1-33" d="M66.4,387.9l30-58.7c0.6-1.2,2.1-1.7,3.4-1.1l14.3,7.3c1.2,0.6,1.7,2.1,1.1,3.4l-30,58.7&#10;&#9;&#9;c-0.6,1.2-2.1,1.7-3.4,1.1l-14.3-7.3C66.2,390.6,65.8,389.1,66.4,387.9z"/>
	<path class="st1_seo-1-33" d="M82.4,399.1c-0.7,0-1.3-0.2-1.9-0.5L68,392.3c-1-0.5-1.7-1.4-2-2.4c-0.3-1.1-0.2-2.2,0.2-3.2l29.1-56.9&#10;&#9;&#9;c1-2.1,3.5-2.9,5.6-1.8c0,0,0,0,0,0l12.5,6.4l0,0c2.1,1.1,2.9,3.6,1.8,5.6l-29.1,56.9c-0.5,1-1.4,1.7-2.4,2.1&#10;&#9;&#9;C83.3,399.1,82.9,399.1,82.4,399.1L82.4,399.1z M99,328.8c-0.3,0-0.6,0-0.9,0.1c-0.7,0.2-1.3,0.7-1.6,1.4l-29.1,56.9&#10;&#9;&#9;c-0.7,1.4-0.2,3,1.2,3.7l12.5,6.4c1.4,0.7,3,0.2,3.7-1.2l29.1-56.9c0.7-1.4,0.2-3-1.2-3.7l-12.5-6.4C99.9,329,99.5,328.9,99,328.8&#10;&#9;&#9;L99,328.8z"/>
	<path class="st0_seo-1-33" d="M151.1,243.3c-19.8-10.1-44-2.3-54.1,17.5s-2.3,44,17.5,54.1c19.8,10.1,44,2.3,54.1-17.5&#10;&#9;&#9;C178.7,277.6,170.9,253.4,151.1,243.3C151.1,243.3,151.1,243.3,151.1,243.3L151.1,243.3z M119.2,305.8c-14.7-7.5-20.5-25.6-13-40.3&#10;&#9;&#9;c7.5-14.7,25.6-20.5,40.3-13c14.7,7.5,20.5,25.6,13,40.3c0,0,0,0,0,0C151.9,307.5,133.9,313.3,119.2,305.8z"/>
	<path class="st1_seo-1-33" d="M132.7,320c-22.6,0-41-18.3-41-41c0-22.6,18.3-41,41-41s41,18.3,41,41c0,17.8-11.4,33.5-28.4,39&#10;&#9;&#9;C141.3,319.3,137,320,132.7,320z M132.8,239.5c-21.8-0.1-39.6,17.6-39.7,39.5c-0.1,21.8,17.6,39.6,39.5,39.7&#10;&#9;&#9;c21.8,0.1,39.6-17.6,39.7-39.5c0-14.9-8.3-28.5-21.5-35.3C145.2,241,139.1,239.5,132.8,239.5z M132.7,309.7&#10;&#9;&#9;c-4.8,0-9.6-1.1-13.9-3.4l0,0c-15.1-7.7-21.1-26.2-13.4-41.3c7.7-15.1,26.2-21.1,41.3-13.4c15.1,7.7,21.1,26.2,13.4,41.3&#10;&#9;&#9;C154.9,303.3,144.3,309.7,132.7,309.7L132.7,309.7z M119.5,305.1c14.4,7.3,32,1.6,39.3-12.7c7.3-14.4,1.6-32-12.7-39.3&#10;&#9;&#9;c-14.4-7.3-32-1.6-39.3,12.7C99.4,280.1,105.1,297.7,119.5,305.1L119.5,305.1z"/>
</g>
<g id="Line_seo-1-33">
	<rect x="318.6" y="294.5" class="st0_seo-1-33" width="114.9" height="85.3"/>
	<path class="st1_seo-1-33" d="M433.5,380.4h-115c-0.4,0-0.7-0.3-0.7-0.7v0v-85.3c0-0.4,0.3-0.7,0.7-0.7h0h115c0.4,0,0.7,0.3,0.7,0.7v0v85.3&#10;&#9;&#9;C434.3,380.1,434,380.4,433.5,380.4L433.5,380.4L433.5,380.4z M319.3,379h113.5v-83.9H319.3V379z"/>
	<path class="st1_seo-1-33" d="M330.9,363.6h-0.1c-10-0.3-12.8-9.9-12.8-10c-0.1-0.4,0.1-0.8,0.5-0.9c0.4-0.1,0.7,0.1,0.9,0.5c0,0,0,0,0,0&#10;&#9;&#9;c0.1,0.4,2.5,8.7,11.5,9h0.1c4.4,0,7.5-11.9,10.3-22.4c2.9-10.9,5.6-21.2,10.1-22.3c1.8-0.5,3.8-0.2,5.4,0.7&#10;&#9;&#9;c4.1,2.6,5.6,9.7,7.5,18c0.9,4.7,2.2,9.3,3.7,13.9c2.4,6.8,7,10.9,11.4,10.4c5.5-0.6,9.6-8.2,11-20.4c4-34.6,16.1-38.4,21-38.4h0.2&#10;&#9;&#9;c12.4,0,18.8,6.7,22.8,23.7c0.1,0.4-0.1,0.8-0.5,0.9s-0.8-0.1-0.9-0.5c0,0,0-0.1,0-0.1c-3.9-16.5-9.7-22.6-21.5-22.6h-0.2&#10;&#9;&#9;c-9.6,0-16.9,14-19.6,37.2c-1.5,13-6,20.9-12.2,21.6c-5,0.6-10.2-4-12.9-11.4c-1.5-4.6-2.8-9.3-3.7-14.1&#10;&#9;&#9;c-1.7-7.6-3.3-14.9-6.8-17.1c-1.3-0.8-2.9-1-4.3-0.6c-3.8,0.9-6.6,11.7-9.1,21.3C339.3,352.3,336.4,363.7,330.9,363.6L330.9,363.6z&#10;&#9;&#9;"/>
	<path class="st3_seo-1-33" d="M422.8,345.7h-16.1c-0.4,0-0.7-0.3-0.7-0.7c0-0.4,0.3-0.7,0.7-0.7h16.1c0.4,0,0.7,0.3,0.7,0.7&#10;&#9;&#9;S423.2,345.7,422.8,345.7C422.8,345.7,422.8,345.7,422.8,345.7z"/>
	<path class="st3_seo-1-33" d="M422.8,352.4h-16.1c-0.4,0-0.7-0.3-0.7-0.7c0-0.4,0.3-0.7,0.7-0.7h16.1c0.4,0,0.7,0.3,0.7,0.7&#10;&#9;&#9;S423.2,352.3,422.8,352.4C422.8,352.4,422.8,352.4,422.8,352.4z"/>
	<path class="st3_seo-1-33" d="M414.8,359h-8c-0.4,0-0.7-0.3-0.7-0.7c0-0.4,0.3-0.7,0.7-0.7h8c0.4,0,0.7,0.3,0.7,0.7&#10;&#9;&#9;C415.5,358.7,415.2,359,414.8,359z"/>
	<path class="st3_seo-1-33" d="M346.3,303.2h-16.1c-0.4,0-0.7-0.3-0.7-0.7s0.3-0.7,0.7-0.7c0,0,0,0,0,0h16.1c0.4,0,0.7,0.3,0.7,0.7&#10;&#9;&#9;C347,302.9,346.7,303.2,346.3,303.2z"/>
	<path class="st3_seo-1-33" d="M346.3,309.9h-16.1c-0.4,0-0.7-0.3-0.7-0.7s0.3-0.7,0.7-0.7c0,0,0,0,0,0h16.1c0.4,0,0.7,0.3,0.7,0.7&#10;&#9;&#9;C347,309.6,346.7,309.9,346.3,309.9z"/>
	<path class="st3_seo-1-33" d="M338.3,316.5h-8c-0.4,0-0.7-0.3-0.7-0.7s0.3-0.7,0.7-0.7c0,0,0,0,0,0h8c0.4,0,0.7,0.3,0.7,0.7&#10;&#9;&#9;S338.7,316.5,338.3,316.5C338.3,316.5,338.3,316.5,338.3,316.5z"/>
</g>
<g id="Character_seo-1-33">
	<path class="st0_seo-1-33" d="M317.2,117.2c2.7-2.7,6.2-7.3,3.2-11.2c-0.8-1-2-1.7-2.6-2.8s-0.6-2.7-0.9-4c-0.9-4.9-5.6-8.2-10.4-9.8&#10;&#9;&#9;s-12.2-2.9-16.8,0s-6.2,8.6-11,10.9c-5.9,2.8-14-1.4-19.1,2.7c-1.7,1.4-2.7,3.5-4.6,4.7c-1.6,0.9-3.4,1.3-5.3,1.2&#10;&#9;&#9;c-8.8,0.5-18.6,0.3-24.8,6.5s-6,16.2-4,24.7c0.9,3.9,2.2,7.9,4.6,11.1c3.6,4.8,9.4,7.6,15.4,8.4c8.9,1.1,18.9,0,22.6-9.1&#10;&#9;&#9;c0.8-2.1,1.4-4.4,3-6c3.5-3.5,9.5-1.2,14.2-2.8c8-2.6,9.4-14.6,17.2-17.6c7.4-2.9,13.2-1,19.4-7.1L317.2,117.2z"/>
	<path class="st1_seo-1-33" d="M246.3,160.8c-1.8,0-3.7-0.1-5.5-0.4c-6.6-0.9-12.4-4-15.9-8.6c-2.6-3.6-3.9-7.9-4.7-11.4&#10;&#9;&#9;c-1.8-7.8-2.6-18.6,4.2-25.4c5.8-5.8,14.4-6.2,22.7-6.6l2.6-0.1c1.7,0,3.4-0.4,4.9-1.2c0.9-0.7,1.7-1.5,2.4-2.4&#10;&#9;&#9;c0.6-0.8,1.3-1.6,2.1-2.2c3-2.4,6.8-2.2,10.5-2c3,0.2,6.1,0.4,8.7-0.8s4.1-3.3,5.9-5.6c1.4-2,3.1-3.8,5.1-5.2&#10;&#9;&#9;c5.3-3.5,13.9-1.2,17.4-0.1c6,2,10.1,5.8,10.9,10.3c0.1,0.4,0.1,0.8,0.2,1.2c-0.1,1.6,0.7,3.1,2,4c0.4,0.4,0.8,0.8,1.2,1.2&#10;&#9;&#9;c2.5,3.2,1.4,7.6-3.2,12.1l0,0c-4.1,4-8.1,4.7-12.2,5.4c-2.5,0.3-5,1-7.4,1.8c-3.6,1.4-5.8,4.8-8.1,8.5c-2.4,3.8-4.9,7.8-9.2,9.1&#10;&#9;&#9;c-2,0.5-4.1,0.7-6.2,0.7c-3,0-5.9,0-7.8,1.9c-1.1,1.2-1.8,2.7-2.3,4.2c-0.2,0.5-0.4,1-0.6,1.5C261.5,157.3,255.4,160.7,246.3,160.8&#10;&#9;&#9;L246.3,160.8z M266.4,101.8c-2.4,0-4.5,0.3-6.3,1.8c-0.7,0.6-1.3,1.3-1.9,2c-0.8,1-1.7,2-2.7,2.7c-1.7,0.9-3.7,1.4-5.6,1.4&#10;&#9;&#9;c-0.9,0-1.7,0.1-2.6,0.1c-8.1,0.4-16.4,0.8-21.8,6.2c-6.6,6.7-5.2,18-3.8,24.1c0.8,3.3,2,7.5,4.4,10.9c3.2,4.3,8.6,7.3,14.9,8.1&#10;&#9;&#9;c7.9,1,18.2,0.3,21.8-8.7c0.2-0.5,0.4-0.9,0.5-1.4c0.5-1.8,1.4-3.4,2.6-4.8c2.3-2.3,5.6-2.3,8.7-2.3c1.9,0.1,3.9-0.1,5.8-0.6&#10;&#9;&#9;c3.8-1.2,6-4.8,8.4-8.5s4.7-7.5,8.7-9c2.5-0.9,5-1.5,7.6-1.9c4.1-0.7,7.7-1.3,11.5-5c2.4-2.3,5.9-6.7,3.1-10.2&#10;&#9;&#9;c-0.3-0.4-0.7-0.7-1.1-1.1c-1.5-1.2-2.4-3-2.4-4.9c0-0.4-0.1-0.8-0.1-1.1c-0.7-4-4.4-7.4-9.9-9.2c-2.5-0.8-11.2-3.3-16.2,0&#10;&#9;&#9;c-1.8,1.4-3.4,3-4.7,4.9c-1.8,2.3-3.6,4.7-6.4,6s-6.2,1.2-9.4,1C268.5,101.9,267.4,101.9,266.4,101.8L266.4,101.8z M317.2,117.2&#10;&#9;&#9;L317.2,117.2z"/>
	<polygon class="st0_seo-1-33" points="159.2,119.7 159,108.2 169.3,108.2 170.7,122.3 &#9;"/>
	<path class="st1_seo-1-33" d="M170.7,123.1c-0.1,0-0.1,0-0.2,0l-11.5-2.7c-0.3-0.1-0.5-0.3-0.5-0.7l-0.2-11.5c0-0.2,0.1-0.4,0.2-0.5&#10;&#9;&#9;c0.1-0.1,0.3-0.2,0.5-0.2h10.2c0.4,0,0.7,0.3,0.7,0.6l1.4,14.2c0,0.2-0.1,0.4-0.2,0.6C171.1,123,170.9,123.1,170.7,123.1&#10;&#9;&#9;L170.7,123.1z M159.9,119.1l10,2.3l-1.3-12.6h-8.9L159.9,119.1L159.9,119.1z"/>
	<path class="st1_seo-1-33" d="M169.3,108.2l1.4-7.2c0,0-23.1-7.3-21.8-3.9s10.2,11.1,10.2,11.1L169.3,108.2L169.3,108.2z"/>
	<path class="st1_seo-1-33" d="M169.3,108.9H159c-0.2,0-0.3-0.1-0.4-0.2c-0.4-0.3-9.1-7.9-10.4-11.4c-0.2-0.4-0.1-0.9,0.2-1.3&#10;&#9;&#9;c1.9-2,16.3,2.3,22.5,4.3c0.3,0.1,0.5,0.5,0.5,0.8l-1.3,7.2C169.9,108.7,169.7,108.9,169.3,108.9L169.3,108.9z M159.3,107.5h9.4&#10;&#9;&#9;l1.2-6.1c-8.8-2.8-18.7-5.2-20.3-4.5C150.6,99.6,156.7,105.3,159.3,107.5L159.3,107.5z"/>
	<path class="st1_seo-1-33" d="M153.8,167.6c0-1.1,4-50.7,4-50.7s15-0.7,14.7,0s3.7,50.7,3.7,50.7H153.8z"/>
	<path class="st1_seo-1-33" d="M176.1,168.3h-22.4c-0.2,0-0.4-0.1-0.5-0.2c-0.1-0.1-0.2-0.3-0.2-0.5c0-1.1,3.9-48.7,4-50.7&#10;&#9;&#9;c0-0.3,0.3-0.6,0.7-0.6c14.7-0.7,15-0.1,15.3,0.3c0.1,0.2,0.1,0.4,0.1,0.6c-0.2,1.6,2.1,31,3.7,50.5c0,0.2,0,0.4-0.2,0.5&#10;&#9;&#9;C176.5,168.2,176.3,168.3,176.1,168.3L176.1,168.3z M154.5,166.9h20.9c-3.1-38.2-3.6-47.3-3.6-49.5c-1.6-0.2-7.7-0.1-13.4,0.2&#10;&#9;&#9;C157.1,133.6,154.8,162,154.5,166.9L154.5,166.9z"/>
	<path class="st0_seo-1-33" d="M309.4,133.1c0,0-8.1-12.2-6.7-15.7s3.7-6,5.6-5.3s7.1,16.6,7.1,16.6L309.4,133.1L309.4,133.1z"/>
	<path class="st1_seo-1-33" d="M309.4,133.9h-0.1c-0.2,0-0.4-0.1-0.5-0.3c-0.9-1.3-8.3-12.6-6.7-16.3c1.8-4.2,4.3-6.4,6.4-5.7&#10;&#9;&#9;c2,0.7,5.9,12.2,7.5,17.1c0.1,0.3,0,0.6-0.2,0.8l-6,4.4C309.6,133.8,309.5,133.9,309.4,133.9L309.4,133.9z M307.6,112.7&#10;&#9;&#9;c-1.3,0-3,2-4.3,5c-0.9,2.2,3.1,9.8,6.2,14.4l5-3.7c-2.4-7.3-5.5-15.1-6.5-15.7C307.9,112.7,307.8,112.7,307.6,112.7z"/>
	<polygon class="st0_seo-1-33" points="120.9,125.4 114.7,115.9 106,122.3 111.2,132.6 &#9;"/>
	<path class="st1_seo-1-33" d="M111.2,133.3c-0.1,0-0.1,0-0.2,0c-0.2,0-0.4-0.2-0.5-0.4l-5.2-10.3c-0.2-0.3-0.1-0.7,0.2-0.9l8.7-6.4&#10;&#9;&#9;c0.2-0.1,0.4-0.2,0.5-0.1c0.2,0,0.4,0.1,0.5,0.3l6.2,9.5c0.2,0.3,0.2,0.8-0.2,1c0,0,0,0,0,0l-9.7,7.1&#10;&#9;&#9;C111.5,133.3,111.3,133.3,111.2,133.3L111.2,133.3z M106.9,122.5l4.5,9l8.5-6.2l-5.4-8.3L106.9,122.5L106.9,122.5z"/>
	<path class="st1_seo-1-33" d="M114.7,115.9c0,0-5-8.3-5.2-7.7s-18.4,12.9-18.2,14.1s14.7,0,14.7,0L114.7,115.9z"/>
	<path class="st1_seo-1-33" d="M95.7,123.5c-4.8,0-4.9-0.7-5-1.1c-0.2-0.9,0.9-2,13.2-10.9c2.3-1.7,4.8-3.4,5.1-3.8c0.1-0.2,0.3-0.3,0.5-0.3&#10;&#9;&#9;c0.5,0,0.9-0.1,5.8,8.1c0.2,0.3,0.1,0.7-0.2,0.9l-8.7,6.4c-0.1,0.1-0.2,0.1-0.3,0.1C101.2,123.4,97.9,123.5,95.7,123.5L95.7,123.5z&#10;&#9;&#9; M92.4,122c1.9,0.3,7.9,0.1,13.4-0.4l8-5.9c-1.7-2.7-3.4-5.6-4.2-6.6c-0.6,0.5-2,1.5-4.9,3.5C100.8,115.4,94.1,120.3,92.4,122z"/>
	<path class="st2_seo-1-33 targetColor" d="M294.3,127c1.6,0.6,15.2,28.7,19.4,27.2s-8.1-22.2-8.1-22.2l11-7.9c0,0,28.2,41.6,17.4,50.7&#10;&#9;&#9;s-51.7-20.8-51.7-20.8L294.3,127L294.3,127z" style="fill: rgb(104, 225, 253);"/>
	<path class="st2_seo-1-33 targetColor" d="M290,120.7c0,0-9.6-11.1-23.8-1.6s-41.1,25.6-41.1,25.6l8.9,34.9c0,0,21.6,9.6,47.3-2.9&#10;&#9;&#9;c22.5-11,23.6-28.6,20.7-36S290,120.7,290,120.7L290,120.7z" style="fill: rgb(104, 225, 253);"/>
	<path class="st1_seo-1-33" d="M279.9,173.4c-0.2,0-0.5-0.1-0.6-0.3c-0.2-0.3-0.2-0.7,0.1-1c0,0,0,0,0.1,0c0.2-0.1,19.9-13.5,23.3-27.6&#10;&#9;&#9;c0.1-0.4,0.5-0.6,0.8-0.5c0.4,0.1,0.6,0.5,0.5,0.8c-3.5,14.6-23.1,27.9-23.9,28.4C280.2,173.3,280,173.4,279.9,173.4L279.9,173.4z"/>
	<path class="st0_seo-1-33" d="M311.4,114.7c0,0,0.8,7.8-0.6,8.6s-3.6-1.4-3.6-1.4"/>
	<path class="st1_seo-1-33" d="M310.1,124.2c-1.6,0-3.2-1.6-3.5-1.8c-0.3-0.3-0.3-0.7,0-1c0,0,0,0,0,0c0.3-0.3,0.7-0.3,1,0&#10;&#9;&#9;c0.6,0.6,2.1,1.7,2.8,1.3c0.5-0.4,0.6-4.2,0.3-7.9c0-0.4,0.2-0.7,0.6-0.8c0.4,0,0.7,0.2,0.8,0.6c0.3,3.1,0.6,8.4-1,9.3&#10;&#9;&#9;C310.8,124.1,310.5,124.2,310.1,124.2L310.1,124.2z"/>
	<path class="st0_seo-1-33" d="M290,141.8c-5.2-4.3-8.9-17.1-8.7-17.3c2.1-4,4.5-7.9,7-11.7c0,0,4.2,2.2,9.3-1.5s9.9-0.4,17.1-4.8&#10;&#9;&#9;c1.4,3.3-1.5,7.1-3,9.9c-2.1,3.9-4.2,7.7-6.4,11.4c-1.4,2.4-7.8-0.9-8.5-2.2C295.6,128.3,293.4,133.7,290,141.8z"/>
	<path class="st1_seo-1-33" d="M290,142.5c-0.2,0-0.3-0.1-0.4-0.2c-5.2-4.2-9.4-17.3-8.9-18.2c2.1-4,4.5-8,7-11.8c0.2-0.3,0.6-0.4,0.9-0.2&#10;&#9;&#9;c0.1,0.1,3.9,2,8.5-1.4c2.6-1.9,5.1-2.1,7.8-2.2c3.3,0,6.5-0.9,9.3-2.5c0.2-0.1,0.4-0.1,0.6-0.1c0.2,0.1,0.4,0.2,0.4,0.4&#10;&#9;&#9;c1.3,3-0.6,6.4-2.2,9c-0.3,0.5-0.6,1-0.8,1.4c-2,3.8-4.2,7.7-6.4,11.4c-0.6,0.8-1.5,1.3-2.5,1.2c-2.3-0.2-4.5-1.1-6.3-2.5&#10;&#9;&#9;c-1.3,3.1-1.7,4.1-6.3,15.2c-0.1,0.2-0.3,0.4-0.5,0.4C290.1,142.5,290,142.5,290,142.5L290,142.5z M282,124.6&#10;&#9;&#9;c0.3,1.4,3.4,11.7,7.8,16c4.7-11.3,4.7-11.4,6.3-15.3c0.1-0.2,0.3-0.4,0.6-0.4c0.3,0,0.5,0.1,0.6,0.4c0.4,0.7,3.7,2.7,6,2.7&#10;&#9;&#9;c0.7,0,1.1-0.2,1.3-0.5c2.2-3.7,4.4-7.6,6.4-11.4c0.2-0.5,0.5-1,0.9-1.5c1.2-2.1,2.8-4.8,2.3-7c-2.8,1.5-6,2.3-9.2,2.3&#10;&#9;&#9;c-2.6,0.2-4.8,0.3-7.1,2c-4.3,3.1-8,2.3-9.4,1.8C287.4,115.3,283.7,121.1,282,124.6L282,124.6z"/>
	<path class="st0_seo-1-33" d="M306.6,124.9c0,0-4,0.3-3.9-3.7"/>
	<path class="st1_seo-1-33" d="M306.5,125.6c-1.2,0-2.3-0.4-3.2-1.2c-0.8-0.8-1.3-2-1.2-3.2c0-0.4,0.3-0.7,0.7-0.7l0,0l0,0&#10;&#9;&#9;c0.4,0,0.7,0.3,0.7,0.7v0c-0.1,0.8,0.2,1.6,0.8,2.2c0.7,0.5,1.5,0.8,2.4,0.8c0.4,0,0.7,0.2,0.7,0.6c0,0,0,0,0,0.1&#10;&#9;&#9;c0,0.4-0.3,0.7-0.6,0.7c0,0,0,0,0,0L306.5,125.6L306.5,125.6z"/>
	<path class="st1_seo-1-33" d="M296.7,125.6c0,0-3.2-1.8-3.5-4.9c0,0-2.9,6,1.3,10.4L296.7,125.6z"/>
	<path class="st1_seo-1-33" d="M294.4,131.8c-0.2,0-0.4-0.1-0.5-0.2c-4.4-4.6-1.5-10.9-1.4-11.2c0.1-0.3,0.4-0.5,0.8-0.4&#10;&#9;&#9;c0.3,0.1,0.5,0.3,0.6,0.6c0.3,2.7,3.1,4.4,3.2,4.4c0.3,0.2,0.4,0.5,0.3,0.9l-2.3,5.5c-0.1,0.2-0.3,0.4-0.5,0.4L294.4,131.8&#10;&#9;&#9;L294.4,131.8z M293.2,123c-0.6,2.3-0.2,4.8,1.1,6.8l1.6-3.9C294.7,125.1,293.8,124.1,293.2,123L293.2,123z"/>
	<ellipse transform="matrix(0.5243 -0.8515 0.8515 0.5243 52.4867 318.239)" class="st1_seo-1-33" cx="311.1" cy="112.1" rx="1.6" ry="0.6"/>
	<path class="st0_seo-1-33" d="M302.5,112.6c0.4-1,0.5-2.1,0.3-3.2c0-0.8-0.2-1.7-0.5-2.5c-0.3-0.8-0.9-1.4-1.8-1.7c-0.7-0.2-1.5,0-2.1,0.4&#10;&#9;&#9;c-0.6,0.4-1.1,1-1.5,1.7c-1.7,2.9-1.7,6.5,0,9.3l-0.1-0.3"/>
	<path class="st1_seo-1-33" d="M296.9,117.2c-0.2,0-0.5-0.1-0.6-0.3c-1.8-3.1-1.8-7,0-10.1c0.4-0.7,1-1.4,1.7-1.9c0.8-0.5,1.8-0.7,2.7-0.5&#10;&#9;&#9;c1,0.3,1.8,1.1,2.2,2.1c0.3,0.9,0.5,1.8,0.5,2.7c0.2,1.2,0.1,2.5-0.4,3.6c-0.2,0.3-0.6,0.5-0.9,0.3c-0.3-0.2-0.5-0.6-0.3-0.9&#10;&#9;&#9;c0,0,0,0,0,0c0.3-0.9,0.4-1.9,0.2-2.8c0-0.8-0.2-1.5-0.4-2.3c-0.2-0.6-0.7-1.1-1.3-1.3c-0.5-0.1-1.1,0-1.6,0.3&#10;&#9;&#9;c-0.5,0.4-1,0.9-1.3,1.4c-1.5,2.6-1.5,5.8-0.1,8.5h0.1l0.1,0.3c0.1,0.3-0.1,0.7-0.4,0.8C297.1,117.2,297,117.2,296.9,117.2&#10;&#9;&#9;L296.9,117.2z"/>
	<path class="st1_seo-1-33" d="M225.1,144.7c-6.9-2.8-23.2,0.6-33.5,4s-44.2,12.7-44.2,12.7l-24.8-39.2c0,0-17.6,6.4-16.6,7.8&#10;&#9;&#9;s17.6,41.2,34.3,49.2s95.6,0.7,95.6,0.7L225.1,144.7L225.1,144.7z"/>
	<path class="st1_seo-1-33" d="M175.2,183.8c-15.3,0-29.2-0.9-35.2-3.9c-9.8-4.7-21-20.6-33.4-47.2c-0.5-1.1-1-2.1-1.1-2.3&#10;&#9;&#9;c-0.2-0.2-0.2-0.6-0.1-0.8c0.6-1.9,12.2-6.3,17.1-8c0.3-0.1,0.7,0,0.8,0.3l24.5,38.7c4.2-1.2,34.2-9.4,43.7-12.6&#10;&#9;&#9;c8.4-2.8,26.2-7.2,33.9-4c0.2,0.1,0.3,0.2,0.4,0.4l10.8,35.3c0.1,0.2,0,0.4-0.1,0.6c-0.1,0.2-0.3,0.3-0.5,0.3&#10;&#9;&#9;C233.9,181,202.2,183.9,175.2,183.8L175.2,183.8z M106.8,130c0.2,0.4,0.5,1,1,2.2c12.3,26.3,23.3,42,32.8,46.5&#10;&#9;&#9;c15.4,7.4,85.8,1.4,94.4,0.7l-10.4-34.2c-7-2.6-23.3,1-32.7,4.2c-10.2,3.4-43.9,12.6-44.2,12.7c-0.3,0.1-0.6,0-0.8-0.3l-24.4-38.7&#10;&#9;&#9;C115.4,125.7,107.9,128.8,106.8,130L106.8,130z"/>
	<polygon class="st0_seo-1-33" points="292.3,179.9 292.3,173.8 332.2,173.8 348.6,133.1 406.6,133.1 387.6,173.6 387.6,179.9 &#9;"/>
	<path class="st1_seo-1-33" d="M387.6,180.6h-95.3c-0.4,0-0.7-0.3-0.7-0.7c0,0,0,0,0,0v-6.1c0-0.4,0.3-0.7,0.7-0.7l0,0h39.5l16.3-40.2&#10;&#9;&#9;c0.1-0.3,0.4-0.4,0.6-0.4h58c0.2,0,0.5,0.1,0.6,0.3c0.1,0.2,0.1,0.5,0,0.7l-19,40.3v6.1C388.2,180.3,387.9,180.6,387.6,180.6&#10;&#9;&#9;L387.6,180.6L387.6,180.6z M293,179.2h93.9v-5.6c0-0.1,0-0.2,0.1-0.3l18.6-39.5h-56.5l-16.2,40.2c-0.1,0.3-0.4,0.4-0.6,0.4H293&#10;&#9;&#9;V179.2L293,179.2z"/>
	<path class="st2_seo-1-33 targetColor" d="M251.9,127.9c0,0,6.6,50.9,11.3,52.1s51.8-8.6,51.8-8.6l-3.2-16.5c0,0-33.9,6-33.3,0s-3.8-28.7-3.8-28.7&#10;&#9;&#9;L251.9,127.9L251.9,127.9z" style="fill: rgb(104, 225, 253);"/>
	<path class="st1_seo-1-33" d="M263.4,179.9c-1.7,0-3.4-0.1-5-0.4c-3.3-0.7-5.7-4.1-7.1-10c-1.8-7.2-1.7-16.3-1.6-21.1&#10;&#9;&#9;c0-0.1,0.4-11.7,1.8-12.8c0.3-0.3,0.7-0.3,1,0s0.3,0.7,0,1l0,0c-0.9,1.6-3.4,25,1.4,36.4c1.2,3,2.9,4.7,4.8,5.1&#10;&#9;&#9;c11.1,2.4,55.7-7.3,56.2-7.4c0.4,0,0.7,0.2,0.8,0.6c0,0.3-0.2,0.6-0.5,0.7C313.6,172.3,279.2,179.8,263.4,179.9L263.4,179.9z"/>
	<path class="st1_seo-1-33" d="M282.1,158.3c-1,0-2.1-0.4-2.8-1.2c-5.9-5.5-5.4-30-5.3-31c0-0.4,0.3-0.7,0.7-0.7c0.4,0,0.7,0.3,0.7,0.7&#10;&#9;&#9;c0,0,0,0,0,0c0,0.2-0.5,24.9,4.9,30c0.5,0.6,1.3,0.9,2.1,0.8c8.4-0.8,29.2-2.7,29.4-2.8c0.4-0.1,0.7,0.2,0.8,0.6&#10;&#9;&#9;c0.1,0.4-0.2,0.7-0.6,0.8c0,0-0.1,0-0.1,0c-0.2,0-21,2-29.4,2.8L282.1,158.3L282.1,158.3z"/>
	<path class="st0_seo-1-33" d="M313.7,157.6c0,0,10-6.8,11.9-5.1s10.4,12.7,8.1,13.6s-6-3.1-6-3.1s-2.2,3.5-11.1,2.3L313.7,157.6L313.7,157.6&#10;&#9;&#9;z"/>
	<path class="st1_seo-1-33" d="M333,166.9c-2,0-4.3-1.9-5.3-2.9c-1.2,1.1-4.3,2.9-11.2,2c-0.3,0-0.5-0.2-0.6-0.4l-2.9-7.6&#10;&#9;&#9;c-0.1-0.3,0-0.6,0.3-0.8c3.2-2.1,10.7-6.9,12.8-5.1c1.5,1.4,9.2,11,8.7,13.8c-0.1,0.5-0.4,0.8-0.8,1&#10;&#9;&#9;C333.6,166.9,333.3,166.9,333,166.9L333,166.9z M327.6,162.2c0.2,0,0.4,0.1,0.5,0.2c1.3,1.4,3.9,3.4,5.3,2.9&#10;&#9;&#9;c0.2-0.8-4.6-8.9-8.3-12.4c-0.8-0.7-5.6,1.6-10.6,4.9l2.5,6.7c7.9,1,10-2,10-2C327.2,162.4,327.4,162.3,327.6,162.2L327.6,162.2&#10;&#9;&#9;L327.6,162.2z"/>
	<path class="st0_seo-1-33" d="M153.8,158.3c-0.4,0-0.7-0.3-0.7-0.7c0-0.3,0.2-0.6,0.5-0.7L176,152c0.4-0.1,0.7,0.1,0.8,0.5c0,0,0,0,0,0&#10;&#9;&#9;c0.1,0.4-0.2,0.7-0.5,0.8l-22.4,4.9L153.8,158.3L153.8,158.3z"/>
	<path class="st1_seo-1-33" d="M386.9,174.5h-54.7c-0.4,0-0.7-0.3-0.7-0.7c0-0.4,0.3-0.7,0.7-0.7h54.7c0.4,0,0.7,0.3,0.7,0.7&#10;&#9;&#9;C387.6,174.2,387.3,174.5,386.9,174.5z"/>
</g>
</svg>
