<?xml version="1.0" encoding="utf-8"?>
<!-- Generator: Adobe Illustrator 27.0.0, SVG Export Plug-In . SVG Version: 6.00 Build 0)  -->
<svg version="1.1"
	 id="svg1" xmlns:inkscape="http://www.inkscape.org/namespaces/inkscape" xmlns:sodipodi="http://sodipodi.sourceforge.net/DTD/sodipodi-0.dtd" xmlns:svg="http://www.w3.org/2000/svg" inkscape:version="1.3.2 (091e20e, 2023-11-25)" sodipodi:docname="apple-touch-icon.svg"
	 xmlns="http://www.w3.org/2000/svg" xmlns:xlink="http://www.w3.org/1999/xlink" x="0px" y="0px" viewBox="0 0 180 180"
	 style="enable-background:new 0 0 180 180;" xml:space="preserve">
<style type="text/css">
	.st0{fill:#3E97FF;}
</style>
<sodipodi:namedview  bordercolor="#000000" borderopacity="0.25" id="namedview1" inkscape:current-layer="g1" inkscape:cx="90" inkscape:cy="206.1547" inkscape:deskcolor="#d1d1d1" inkscape:pagecheckerboard="0" inkscape:pageopacity="0.0" inkscape:showpageshadow="2" inkscape:window-height="1212" inkscape:window-maximized="0" inkscape:window-width="1504" inkscape:window-x="3304" inkscape:window-y="58" inkscape:zoom="5.0277778" pagecolor="#ffffff">
	</sodipodi:namedview>
<g id="Layer_x0020_1">
	<path class="st0" d="M71.8,12.8c4.2-1,8.4,1,11.5,3.1c2.1,1,3.1,2.1,5.2,3.1c1,0,1,0,2.1,0c2.1-1,4.2-2.1,5.2-3.1
		c3.1-2.1,6.3-2.1,10.5-2.1c2.1,0,4.2,1,5.2,2.1c2.1,2.1,4.2,4.2,6.3,6.3c1.1,1,2.1,2.1,3.1,2.1c2.1,0,4.2-1,6.3-1
		c4.2-1,8.4,0,11.5,3.1c2.1,1,3.1,3.1,4.2,5.2s2.1,4.2,3.1,6.3c1.1,1,1.1,2.1,2.1,3.1c3.1-1,4.2-1,6.3-1c3.1,1,5.2,1,7.3,3.1
		c3.1,2.1,6.3,5.2,6.3,8.4c0,3.1,0,6.3,0,9.4c0,2.1,0,4.2,2.1,5.2c2.1,2.1,5.2,4.2,6.3,6.3c2.1,3.1,2.1,7.3,1,10.5
		c0,2.1-1,5.2-2.1,7.3s-2.1,5.2-2.1,8.4s1,6.3,0,9.4c0,1-1.1,2.1-1.1,4.2c-2.1,4.2-6.3,7.3-9.4,10.5c-4.2,4.2-8.4,7.3-12.6,11.5v1.1
		c-1.1,5.2-2.1,11.5-5.2,16.8c-2.1,4.2-5.2,8.4-9.4,10.5c-2.1,2.1-5.2,2.1-8.4,2.1c-6.3,1.1-12.6,0-18.9-1.1
		c-7.3,4.2-15.7,6.3-23.1,5.2c-4.2-1.1-7.3-2.1-11.5-4.2c-1,0-1-1.1-2.1-1.1c-3.1,0-5.2,1.1-8.4,1.1c-5.2,0-11.5,0-16.8-2.1
		c-5.2-2.1-8.4-6.3-11.5-11.5c-3.1-4.2-5.2-10.5-6.3-16.8c-7.3-5.2-13.6-11.5-19.9-17.8c-1-2.1-3.1-4.2-4.2-6.3c-1-3.1,0-7.3,0-10.5
		c0-2.1,0-4.2-1-6.3c-1-2.1-2.1-4.2-3.1-6.3c0-3.1,0-6.3,0-9.4c0-2.1,1-4.2,3.1-6.3c1-2.1,3.1-3.1,5.2-5.2c1-1,2.1-3.1,2.1-4.2
		c0-3.1-1-6.3,0-9.4c0-4.2,2.1-6.3,4.2-8.4s5.2-3.1,7.3-3.1c3.1-1,5.2-1,6.3-2.1s2.1-2.1,2.1-3.1c1-3.1,2.1-6.3,4.2-8.4
		c2.1-3.1,6.3-5.2,9.4-5.2c2.1,0,5.2,0,7.3,1c1,0,3.1,1,4.2,0c1,0,2.1-1,3.1-2.1c2.1-2.1,4.2-4.2,6.3-5.2
		C67.6,13.8,69.7,12.8,71.8,12.8z M70.8,18c-4.2,2.1-6.3,7.3-10.5,8.4c3.1,17.8,7.3,34.6,11.5,52.5c2.1,10.5,5.2,22,7.3,32.5
		c3.1,11.5,5.2,24.1,8.4,35.7c0-1.1,0-1.1,0-2.1c0-40.9,0-81.9,0-121.8c-4.2-1-6.3-4.2-10.5-5.2C75,18,72.9,17,70.8,18z M100.2,19.1
		c-3.1,1-5.2,4.2-8.4,5.2c0,40.9,0,82.9,0,123.9c1-1.1,9.4-42,10.5-46.2c6.3-25.2,11.5-49.3,16.8-74.5c-3.1-1-5.2-4.2-7.3-6.3
		c-1.1-1-3.1-3.1-5.2-3.1C104.4,18,102.3,18,100.2,19.1z M40.3,30.6c-3.1,3.1-3.1,8.4-7.3,11.5c6.3,15.7,13.6,30.4,19.9,46.2
		c9.4,21,19.9,40.9,29.4,61.9C76,125.1,70.8,101,64.5,75.8C61.3,60,57.1,44.3,54,27.5c-1,0-4.2-1-8.4-1
		C43.5,27.5,41.4,28.5,40.3,30.6z M123.3,27.5c-3.1,16.8-7.3,33.6-10.5,49.3c-5.2,24.1-11.5,48.3-16.8,72.4
		c7.3-14.7,14.7-29.4,21-44.1c9.4-21,19.9-42,28.3-64c-2.1-2.1-3.1-4.2-3.1-6.3c-1.1-2.1-2.1-4.2-3.1-6.3c-1.1-2.1-3.1-3.1-5.2-3.1
		C129.6,26.4,126.4,27.5,123.3,27.5z M22.5,46.4c-2.1,1-4.2,2.1-6.3,4.2c-1,2.1,0,4.2,0,6.3c0,3.1,1,7.3-1,10.5
		c7.3,10.5,14.7,22,23.1,32.5c12.6,16.8,26.2,33.6,39.9,50.4c0,1.1,1,1.1,2.1,2.1c-3.1-6.3-6.3-12.6-9.4-18.9
		c-5.2-10.5-10.5-21-14.7-31.5c-9.4-18.9-17.8-38.8-26.2-57.7C27.7,45.3,24.6,46.4,22.5,46.4z M147.4,48.5
		c-14.7,34.6-31.5,69.3-48.3,102.9c9.4-10.5,17.8-22,26.2-32.5c12.6-16.8,26.2-33.6,37.8-51.4c-1-1-1-3.1-1-4.2c0-3.1,1-6.3,0-10.5
		c0-3.1-3.1-5.2-5.2-6.3c-3.1-1-5.2-2.1-8.4-3.1C148.5,46.4,148.5,47.4,147.4,48.5z M6.7,76.8c-1,2.1-1,4.2-1,7.3
		c0,3.1,2.1,5.2,3.1,7.3c0,1,0,1,1,2.1c13.6,14.7,27.3,29.4,42,43c8.4,7.3,15.7,13.6,24.1,21c-1.1-1.1-1.1-2.1-2.1-3.1
		c-5.2-6.3-11.5-13.6-16.8-21c-14.7-21-30.4-40.9-45.1-61.9C10.9,72.6,8.8,73.7,6.7,76.8z M152.7,91.5c-13.6,17.8-27.3,35.7-42,53.5
		c-3.1,4.2-6.3,7.3-9.4,11.5c8.4-6.3,15.7-12.6,23.1-18.9c7.3-6.3,14.7-13.6,22-21c7.3-7.3,14.7-15.7,22-23.1
		c1.1-2.1,2.1-3.1,2.1-5.2c1.1-3.1,2.1-6.3,1.1-9.4c0-4.2-3.1-6.3-5.2-7.3C162.1,77.9,157.9,84.2,152.7,91.5z M10.9,99.9
		c0,2.1,0,4.2,0,6.3c0,1,0,2.1,1,3.1c3.1,4.2,6.3,7.3,10.5,11.5c7.3,7.3,15.7,12.6,24.1,18.9c9.4,7.3,19.9,13.6,29.4,19.9
		c-5.2-4.2-10.5-8.4-15.7-12.6c-7.3-6.3-14.7-12.6-22-19.9C27.7,118.8,19.3,109.4,10.9,99.9z M147.4,120.9
		c-7.3,7.3-15.7,14.7-24.1,22c-6.3,5.2-13.6,11.5-19.9,16.8c1,0,1-1.1,1-1.1c8.4-5.2,16.8-10.5,24.1-16.8
		c8.4-6.3,16.8-12.6,25.2-18.9c4.2-3.1,8.4-7.3,11.5-11.5c1-1,2.1-2.1,2.1-4.2s0-5.2,0-7.3C161.1,107.3,154.8,114.6,147.4,120.9z
		 M36.1,139.8c1,5.2,3.1,9.4,6.3,13.6c2.1,2.1,5.2,5.2,8.4,5.2c4.2,1.1,8.4,1.1,13.6,0c-1,0-1-1-2.1-1
		C52.9,152.4,44.5,146.1,36.1,139.8z M114.9,159.8c4.2,0,9.4,1,13.6,0c3.1-1.1,5.2-2.1,7.3-4.2c4.2-4.2,6.3-9.4,7.3-14.7
		C133.8,147.2,124.3,153.5,114.9,159.8z"/>
</g>
</svg>
