<svg xmlns="http://www.w3.org/2000/svg" viewBox="0 0 512 512" fill="#374151">
  <path d="M336 0H176c-26.5 0-48 21.5-48 48v416c0 26.5 21.5 48 48 48h160c26.5 0 48-21.5 48-48V48c0-26.5-21.5-48-48-48zM184 80h32v32h-32V80zm0 64h32v32h-32v-32zm0 64h32v32h-32v-32zm0 64h32v32h-32v-32zm0 64h32v32h-32v-32zm0 64h32v32h-32v-32zm80-320h32v32h-32V80zm0 64h32v32h-32v-32zm0 64h32v32h-32v-32zm0 64h32v32h-32v-32zm0 64h32v32h-32v-32zm0 64h32v32h-32v-32zm64-320h32v32h-32V80zm0 64h32v32h-32v-32zm0 64h32v32h-32v-32zm0 64h32v32h-32v-32zm0 64h32v32h-32v-32zm0 64h32v32h-32v-32z"/>
</svg>
