<?xml version="1.0" encoding="UTF-8" standalone="no"?><!DOCTYPE svg PUBLIC "-//W3C//DTD SVG 1.1//EN" "http://www.w3.org/Graphics/SVG/1.1/DTD/svg11.dtd"><svg width="100%" height="100%" viewBox="0 0 642 634" version="1.1" xmlns="http://www.w3.org/2000/svg" xmlns:xlink="http://www.w3.org/1999/xlink" xml:space="preserve" xmlns:serif="http://www.serif.com/" style="fill-rule:evenodd;clip-rule:evenodd;stroke-linejoin:round;stroke-miterlimit:2;"><g><path d="M89.583,621.125c-17.958,-4.333 -31.417,-11.958 -47,-26.708c-24.667,-23.375 -25.917,-34.375 -25.917,-226.667c0,-110.458 1.625,-178.875 4.542,-190.417c5.833,-23.167 25.75,-47.167 47.25,-56.958c14.875,-6.75 28.542,-7.708 111.75,-7.792l94.792,-0.083l0,33.333l-87.625,0c-98.25,0 -110.583,2.542 -124.75,25.792c-8.125,13.292 -8.417,20.583 -8.458,194.208c0,199.167 -0.208,197.375 26.25,213.5c12.667,7.75 22.125,8.125 191.583,8.167c197.083,0 199.875,-0.333 215.375,-25.792c7.792,-12.75 8.417,-20.875 8.458,-108.833l0,-95l17.708,1.25l17.708,1.292l-0.042,97.917c0,87.333 -0.833,99.5 -7.75,112.5c-12.417,23.375 -27.583,36.875 -51.458,45.833c-21.083,7.875 -31.833,8.292 -196.125,7.917c-95.583,-0.25 -179.417,-1.792 -186.292,-3.458Z" style="fill:#242022;fill-rule:nonzero;"/></g><g><path d="M468.708,304.042c-5.667,-25.833 -23.042,-63.833 -36.958,-80.792c-15.792,-19.292 -49.875,-39.125 -86.958,-50.667c-13.167,-4.083 -23.958,-8.708 -23.958,-10.292c0,-1.542 12.667,-7.042 28.125,-12.208c69.792,-23.208 93.917,-47.75 115.875,-117.792c4.125,-13.167 8.792,-23.958 10.375,-23.958c1.542,-0 8.833,16.833 16.208,37.375c9.917,27.792 18.25,42.833 32.375,58.542c20.917,23.292 35.167,31.667 77.25,45.5c15.458,5.083 28.125,10.833 28.125,12.792c0,1.958 -10.792,6.625 -23.958,10.458c-67.125,19.375 -95.667,47.458 -117.75,115.75c-4.958,15.333 -10.583,27.917 -12.5,27.917c-1.917,0 -4.708,-5.667 -6.25,-12.625Z" style="fill:#242022;fill-rule:nonzero;"/><path d="M365.242,104.809c-1.225,-5.586 -4.982,-13.802 -7.991,-17.468c-3.414,-4.171 -10.784,-8.459 -18.802,-10.955c-2.847,-0.883 -5.18,-1.883 -5.18,-2.225c0,-0.333 2.739,-1.523 6.081,-2.64c15.09,-5.018 20.306,-10.324 25.054,-25.468c0.892,-2.847 1.901,-5.18 2.243,-5.18c0.333,0 1.91,3.64 3.505,8.081c2.144,6.009 3.946,9.261 7,12.658c4.523,5.036 7.604,6.847 16.703,9.838c3.342,1.099 6.081,2.342 6.081,2.766c0,0.423 -2.333,1.432 -5.18,2.261c-14.514,4.189 -20.685,10.261 -25.459,25.027c-1.072,3.315 -2.288,6.036 -2.703,6.036c-0.414,0 -1.018,-1.225 -1.351,-2.73Z" style="fill:#242022;fill-rule:nonzero;"/></g><g><path d="M130.5,485.833c1.25,-3.208 14.667,-45.875 29.833,-94.792c15.167,-48.917 30.458,-97.958 34,-108.958l6.458,-19.958l25.417,1.208l25.417,1.25l36.417,110.417c20.042,60.75 36.542,111.833 36.708,113.542c0.125,1.708 -8.667,3.125 -19.542,3.125l-19.792,0l-8.042,-26.042c-4.458,-14.333 -9.875,-28.458 -12.125,-31.417c-2.875,-3.833 -14.75,-5 -41.917,-4.167l-37.917,1.208l-19.417,60.417l-18.875,0c-14.458,0 -18.333,-1.375 -16.625,-5.833Zm125.875,-93.125c-1.542,-4 -8.792,-27.417 -16.042,-52.042c-7.292,-24.583 -14.292,-44.75 -15.542,-44.792c-2.417,-0.042 -24.417,73.083 -27.875,92.667l-2.042,11.458l32.167,0c28.958,0 31.917,-0.75 29.333,-7.292Z" style="fill:#242022;fill-rule:nonzero;"/></g><g><rect x="358.333" y="262.5" width="37.5" height="229.167" style="fill:#242022;fill-rule:nonzero;"/></g></svg>