<?xml version="1.0" encoding="utf-8"?>
<!-- Generator: Adobe Illustrator 27.0.0, SVG Export Plug-In . SVG Version: 6.00 Build 0)  -->
<svg version="1.1"
	 id="svg2" xmlns:inkscape="http://www.inkscape.org/namespaces/inkscape" xmlns:sodipodi="http://sodipodi.sourceforge.net/DTD/sodipodi-0.dtd" xmlns:svg="http://www.w3.org/2000/svg" inkscape:version="1.3.2 (091e20e, 2023-11-25)" sodipodi:docname="default.svg"
	 xmlns="http://www.w3.org/2000/svg" xmlns:xlink="http://www.w3.org/1999/xlink" x="0px" y="0px" viewBox="0 0 75 24"
	 style="enable-background:new 0 0 75 24;" xml:space="preserve">
<style type="text/css">
	.st0{fill:#FFFFFF;}
	.st1{font-family:'Roboto-Bold';}
	.st2{font-size:14px;}
	.st3{display:none;fill:#3F4254;}
	.st4{font-family:'FORQUE';}
	.st5{font-size:21px;}
	.st6{fill:#3E97FF;}
</style>
<sodipodi:namedview  bordercolor="#000000" borderopacity="0.25" id="namedview2" inkscape:current-layer="g2" inkscape:cx="43.887821" inkscape:cy="5.539797" inkscape:deskcolor="#d1d1d1" inkscape:pagecheckerboard="0" inkscape:pageopacity="0.0" inkscape:showpageshadow="2" inkscape:window-height="1212" inkscape:window-maximized="0" inkscape:window-width="2272" inkscape:window-x="2240" inkscape:window-y="25" inkscape:zoom="17.419411" pagecolor="#ffffff">
	</sodipodi:namedview>
<g>
	<text transform="matrix(0.8709 0 0 1 21.5327 17.0438)" class="st0 st1 st2">Dominus</text>
	<text transform="matrix(0.8709 0 0 1 24.6066 7.6948)" class="st3 st4 st5">DOMINUS</text>
</g>
<g id="Layer_x0020_1">
	<path class="st6" d="M8.8,3.4c0.4-0.1,0.8,0.1,1.1,0.3c0.2,0.1,0.3,0.2,0.5,0.3c0.1,0,0.1,0,0.2,0c0.2-0.1,0.4-0.2,0.5-0.3
		c0.3-0.2,0.6-0.2,1-0.2c0.2,0,0.4,0.1,0.5,0.2c0.2,0.2,0.4,0.4,0.6,0.6c0.1,0.1,0.2,0.2,0.3,0.2c0.2,0,0.4-0.1,0.6-0.1
		c0.4-0.1,0.8,0,1.1,0.3c0.2,0.1,0.3,0.3,0.4,0.5c0.1,0.2,0.2,0.4,0.3,0.6c0.1,0.1,0.1,0.2,0.2,0.3C16.4,6,16.5,6,16.7,6
		c0.3,0.1,0.5,0.1,0.7,0.3C17.7,6.5,18,6.8,18,7.1c0,0.3,0,0.6,0,0.9c0,0.2,0,0.4,0.2,0.5c0.2,0.2,0.5,0.4,0.6,0.6
		c0.2,0.3,0.2,0.7,0.1,1c0,0.2-0.1,0.5-0.2,0.7c-0.1,0.2-0.2,0.5-0.2,0.8c0,0.3,0.1,0.6,0,0.9c0,0.1-0.1,0.2-0.1,0.4
		c-0.2,0.4-0.6,0.7-0.9,1c-0.4,0.4-0.8,0.7-1.2,1.1c0,0,0,0.1,0,0.1c-0.1,0.5-0.2,1.1-0.5,1.6c-0.2,0.4-0.5,0.8-0.9,1
		c-0.2,0.2-0.5,0.2-0.8,0.2c-0.6,0.1-1.2,0-1.8-0.1c-0.7,0.4-1.5,0.6-2.2,0.5c-0.4-0.1-0.7-0.2-1.1-0.4c-0.1,0-0.1-0.1-0.2-0.1
		c-0.3,0-0.5,0.1-0.8,0.1c-0.5,0-1.1,0-1.6-0.2c-0.5-0.2-0.8-0.6-1.1-1.1C5,16.2,4.8,15.6,4.7,15c-0.7-0.5-1.3-1.1-1.9-1.7
		c-0.1-0.2-0.3-0.4-0.4-0.6c-0.1-0.3,0-0.7,0-1c0-0.2,0-0.4-0.1-0.6c-0.1-0.2-0.2-0.4-0.3-0.6C2,10.2,2,9.9,2,9.6
		C2,9.4,2.1,9.2,2.3,9c0.1-0.2,0.3-0.3,0.5-0.5C2.9,8.4,3,8.2,3,8.1c0-0.3-0.1-0.6,0-0.9C3,6.8,3.2,6.6,3.4,6.4
		c0.2-0.2,0.5-0.3,0.7-0.3C4.4,6,4.6,6,4.7,5.9c0.1-0.1,0.2-0.2,0.2-0.3c0.1-0.3,0.2-0.6,0.4-0.8c0.2-0.3,0.6-0.5,0.9-0.5
		c0.2,0,0.5,0,0.7,0.1c0.1,0,0.3,0.1,0.4,0c0.1,0,0.2-0.1,0.3-0.2c0.2-0.2,0.4-0.4,0.6-0.5C8.4,3.5,8.6,3.4,8.8,3.4z M8.7,3.9
		c-0.4,0.2-0.6,0.7-1,0.8c0.3,1.7,0.7,3.3,1.1,5c0.2,1,0.5,2.1,0.7,3.1c0.3,1.1,0.5,2.3,0.8,3.4c0-0.1,0-0.1,0-0.2
		c0-3.9,0-7.8,0-11.6C9.9,4.3,9.7,4,9.3,3.9C9.1,3.9,8.9,3.8,8.7,3.9z M11.5,4c-0.3,0.1-0.5,0.4-0.8,0.5c0,3.9,0,7.9,0,11.8
		c0.1-0.1,0.9-4,1-4.4c0.6-2.4,1.1-4.7,1.6-7.1c-0.3-0.1-0.5-0.4-0.7-0.6c-0.1-0.1-0.3-0.3-0.5-0.3C11.9,3.9,11.7,3.9,11.5,4z
		 M5.8,5.1C5.5,5.4,5.5,5.9,5.1,6.2c0.6,1.5,1.3,2.9,1.9,4.4c0.9,2,1.9,3.9,2.8,5.9c-0.6-2.4-1.1-4.7-1.7-7.1c-0.3-1.5-0.7-3-1-4.6
		C7,4.8,6.7,4.7,6.3,4.7C6.1,4.8,5.9,4.9,5.8,5.1z M13.7,4.8c-0.3,1.6-0.7,3.2-1,4.7c-0.5,2.3-1.1,4.6-1.6,6.9
		c0.7-1.4,1.4-2.8,2-4.2c0.9-2,1.9-4,2.7-6.1c-0.2-0.2-0.3-0.4-0.3-0.6c-0.1-0.2-0.2-0.4-0.3-0.6c-0.1-0.2-0.3-0.3-0.5-0.3
		C14.3,4.7,14,4.8,13.7,4.8z M4.1,6.6C3.9,6.7,3.7,6.8,3.5,7C3.4,7.2,3.5,7.4,3.5,7.6c0,0.3,0.1,0.7-0.1,1c0.7,1,1.4,2.1,2.2,3.1
		c1.2,1.6,2.5,3.2,3.8,4.8c0,0.1,0.1,0.1,0.2,0.2c-0.3-0.6-0.6-1.2-0.9-1.8c-0.5-1-1-2-1.4-3c-0.9-1.8-1.7-3.7-2.5-5.5
		C4.6,6.5,4.3,6.6,4.1,6.6z M16,6.8c-1.4,3.3-3,6.6-4.6,9.8c0.9-1,1.7-2.1,2.5-3.1c1.2-1.6,2.5-3.2,3.6-4.9
		c-0.1-0.1-0.1-0.3-0.1-0.4c0-0.3,0.1-0.6,0-1c0-0.3-0.3-0.5-0.5-0.6c-0.3-0.1-0.5-0.2-0.8-0.3C16.1,6.6,16.1,6.7,16,6.8z M2.6,9.5
		c-0.1,0.2-0.1,0.4-0.1,0.7c0,0.3,0.2,0.5,0.3,0.7c0,0.1,0,0.1,0.1,0.2c1.3,1.4,2.6,2.8,4,4.1c0.8,0.7,1.5,1.3,2.3,2
		c-0.1-0.1-0.1-0.2-0.2-0.3c-0.5-0.6-1.1-1.3-1.6-2C6,12.9,4.5,11,3.1,9C3,9.1,2.8,9.2,2.6,9.5z M16.5,10.9c-1.3,1.7-2.6,3.4-4,5.1
		c-0.3,0.4-0.6,0.7-0.9,1.1c0.8-0.6,1.5-1.2,2.2-1.8c0.7-0.6,1.4-1.3,2.1-2c0.7-0.7,1.4-1.5,2.1-2.2c0.1-0.2,0.2-0.3,0.2-0.5
		c0.1-0.3,0.2-0.6,0.1-0.9C18.3,9.3,18,9.1,17.8,9C17.4,9.6,17,10.2,16.5,10.9z M3,11.7c0,0.2,0,0.4,0,0.6c0,0.1,0,0.2,0.1,0.3
		c0.3,0.4,0.6,0.7,1,1.1c0.7,0.7,1.5,1.2,2.3,1.8c0.9,0.7,1.9,1.3,2.8,1.9c-0.5-0.4-1-0.8-1.5-1.2c-0.7-0.6-1.4-1.2-2.1-1.9
		C4.6,13.5,3.8,12.6,3,11.7z M16,13.7c-0.7,0.7-1.5,1.4-2.3,2.1c-0.6,0.5-1.3,1.1-1.9,1.6c0.1,0,0.1-0.1,0.1-0.1
		c0.8-0.5,1.6-1,2.3-1.6c0.8-0.6,1.6-1.2,2.4-1.8c0.4-0.3,0.8-0.7,1.1-1.1c0.1-0.1,0.2-0.2,0.2-0.4c0-0.2,0-0.5,0-0.7
		C17.3,12.4,16.7,13.1,16,13.7z M5.4,15.5C5.5,16,5.7,16.4,6,16.8c0.2,0.2,0.5,0.5,0.8,0.5c0.4,0.1,0.8,0.1,1.3,0
		c-0.1,0-0.1-0.1-0.2-0.1C7,16.7,6.2,16.1,5.4,15.5z M12.9,17.4c0.4,0,0.9,0.1,1.3,0c0.3-0.1,0.5-0.2,0.7-0.4
		c0.4-0.4,0.6-0.9,0.7-1.4C14.7,16.2,13.8,16.8,12.9,17.4z"/>
</g>
</svg>
