<?xml version="1.0" encoding="utf-8"?>
<!-- Generator: Adobe Illustrator 27.0.0, SVG Export Plug-In . SVG Version: 6.00 Build 0)  -->
<svg version="1.1"
	 id="svg2" xmlns:inkscape="http://www.inkscape.org/namespaces/inkscape" xmlns:sodipodi="http://sodipodi.sourceforge.net/DTD/sodipodi-0.dtd" xmlns:svg="http://www.w3.org/2000/svg" inkscape:version="1.3.2 (091e20e, 2023-11-25)" sodipodi:docname="default-dark.svg"
	 xmlns="http://www.w3.org/2000/svg" xmlns:xlink="http://www.w3.org/1999/xlink" x="0px" y="0px" viewBox="0 0 75 24"
	 style="enable-background:new 0 0 75 24;" xml:space="preserve">
<style type="text/css">
	.st0{fill:#FFFFFF;}
	.st1{font-family:'zArista';}
	.st2{font-size:16.3893px;}
	.st3{display:none;fill:#FFFFFF;}
	.st4{fill:#3E97FF;}
</style>
<sodipodi:namedview  bordercolor="#000000" borderopacity="0.25" id="namedview2" inkscape:current-layer="g2" inkscape:cx="37.5" inkscape:cy="11.975138" inkscape:deskcolor="#d1d1d1" inkscape:pagecheckerboard="0" inkscape:pageopacity="0.0" inkscape:showpageshadow="2" inkscape:window-height="1212" inkscape:window-maximized="0" inkscape:window-width="1504" inkscape:window-x="3071" inkscape:window-y="88" inkscape:zoom="12.066667" pagecolor="#ffffff">
	</sodipodi:namedview>
<g>
	<text transform="matrix(0.8709 0 0 1 21.7242 18.6475)" class="st0 st1 st2">Dominus</text>
	<text transform="matrix(0.8709 0 0 1 21.7237 8.855)" class="st3 st1 st2">DOMINUS</text>
</g>
<g id="Layer_x0020_1">
	<path class="st4" d="M7.9,4.5C8.3,4.4,8.7,4.6,9,4.8C9.2,4.9,9.4,5,9.5,5.1c0.1,0,0.1,0,0.2,0c0.2-0.1,0.4-0.2,0.5-0.3
		c0.3-0.2,0.6-0.2,1-0.2c0.2,0,0.4,0.1,0.5,0.2c0.2,0.2,0.4,0.4,0.6,0.6c0.1,0.1,0.2,0.2,0.3,0.2c0.2,0,0.4-0.1,0.6-0.1
		c0.4-0.1,0.8,0,1.1,0.3c0.2,0.1,0.3,0.3,0.4,0.5C15,6.3,15,6.5,15.1,6.7c0.1,0.1,0.1,0.2,0.2,0.3c0.1,0.1,0.3,0.1,0.4,0.2
		c0.3,0.1,0.5,0.1,0.7,0.3c0.3,0.2,0.5,0.5,0.6,0.8c0,0.3,0,0.6,0,0.9c0,0.2,0,0.4,0.2,0.5c0.2,0.2,0.5,0.4,0.6,0.6
		c0.2,0.3,0.2,0.7,0.1,1c0,0.2-0.1,0.5-0.2,0.7c-0.1,0.2-0.2,0.5-0.2,0.8c0,0.3,0.1,0.6,0,0.9c0,0.1-0.1,0.2-0.1,0.4
		c-0.2,0.4-0.6,0.7-0.9,1c-0.4,0.4-0.8,0.7-1.2,1.1c0,0,0,0.1,0,0.1c-0.1,0.5-0.2,1.1-0.5,1.6c-0.2,0.4-0.5,0.8-0.9,1
		c-0.2,0.2-0.5,0.2-0.8,0.2c-0.6,0.1-1.2,0-1.8-0.1c-0.7,0.4-1.5,0.6-2.2,0.5c-0.4-0.1-0.7-0.2-1.1-0.4C8,19,7.9,19,7.9,19
		c-0.3,0-0.5,0.1-0.8,0.1c-0.5,0-1.1,0-1.6-0.2c-0.5-0.2-0.8-0.6-1.1-1.1c-0.3-0.5-0.4-1.1-0.5-1.7c-0.7-0.5-1.3-1.1-1.9-1.7
		c-0.1-0.2-0.3-0.4-0.4-0.6c-0.1-0.3,0-0.7,0-1c0-0.2,0-0.4-0.1-0.6c-0.1-0.2-0.2-0.4-0.3-0.6c-0.1-0.3-0.1-0.6-0.1-0.9
		c0-0.2,0.1-0.5,0.3-0.6C1.5,10,1.7,9.8,1.9,9.7C2,9.6,2.1,9.4,2.1,9.2c0-0.3-0.1-0.6,0-0.9C2.1,8,2.3,7.7,2.5,7.5
		C2.8,7.4,3,7.3,3.3,7.2C3.5,7.2,3.6,7.1,3.8,7C3.9,6.9,4,6.8,4,6.7c0.1-0.3,0.2-0.6,0.4-0.8C4.7,5.6,5,5.4,5.4,5.3
		c0.2,0,0.5,0,0.7,0.1c0.1,0,0.3,0.1,0.4,0c0.1,0,0.2-0.1,0.3-0.2C7,5.1,7.2,4.9,7.4,4.7C7.5,4.6,7.7,4.5,7.9,4.5z M7.8,5.1
		c-0.4,0.2-0.6,0.7-1,0.8c0.3,1.7,0.7,3.3,1.1,5C8.1,12,8.3,13,8.6,14c0.3,1.1,0.5,2.3,0.8,3.4c0-0.1,0-0.1,0-0.2
		c0-3.9,0-7.8,0-11.6C9,5.5,8.8,5.2,8.4,5.1C8.2,5,8,5,7.8,5.1z M10.6,5.1c-0.3,0.1-0.5,0.4-0.8,0.5c0,3.9,0,7.9,0,11.8
		c0.1-0.1,0.9-4,1-4.4c0.6-2.4,1.1-4.7,1.6-7.1c-0.3-0.1-0.5-0.4-0.7-0.6c-0.1-0.1-0.3-0.3-0.5-0.3C11,5,10.8,5.1,10.6,5.1z
		 M4.8,6.2C4.6,6.6,4.5,7.1,4.2,7.4c0.6,1.5,1.3,2.9,1.9,4.4c0.9,2,1.9,3.9,2.8,5.9c-0.6-2.4-1.1-4.7-1.7-7.1C7,9,6.7,7.5,6.4,6
		C6.1,6,5.8,5.8,5.4,5.9C5.2,5.9,5,6,4.8,6.2z M12.8,6c-0.3,1.6-0.7,3.2-1,4.7c-0.5,2.3-1.1,4.6-1.6,6.9c0.7-1.4,1.4-2.8,2-4.2
		c0.9-2,1.9-4,2.7-6.1c-0.2-0.2-0.3-0.4-0.3-0.6c-0.1-0.2-0.2-0.4-0.3-0.6c-0.1-0.2-0.3-0.3-0.5-0.3C13.4,5.8,13.1,6,12.8,6z
		 M3.2,7.8C3,7.9,2.8,8,2.6,8.2C2.5,8.4,2.6,8.6,2.6,8.8c0,0.3,0.1,0.7-0.1,1c0.7,1,1.4,2.1,2.2,3.1c1.2,1.6,2.5,3.2,3.8,4.8
		c0,0.1,0.1,0.1,0.2,0.2c-0.3-0.6-0.6-1.2-0.9-1.8c-0.5-1-1-2-1.4-3c-0.9-1.8-1.7-3.7-2.5-5.5C3.7,7.7,3.4,7.7,3.2,7.8z M15.1,8
		c-1.4,3.3-3,6.6-4.6,9.8c0.9-1,1.7-2.1,2.5-3.1c1.2-1.6,2.5-3.2,3.6-4.9c-0.1-0.1-0.1-0.3-0.1-0.4c0-0.3,0.1-0.6,0-1
		c0-0.3-0.3-0.5-0.5-0.6c-0.3-0.1-0.5-0.2-0.8-0.3C15.2,7.7,15.2,7.9,15.1,8z M1.7,10.6c-0.1,0.2-0.1,0.4-0.1,0.7
		c0,0.3,0.2,0.5,0.3,0.7c0,0.1,0,0.1,0.1,0.2c1.3,1.4,2.6,2.8,4,4.1c0.8,0.7,1.5,1.3,2.3,2c-0.1-0.1-0.1-0.2-0.2-0.3
		c-0.5-0.6-1.1-1.3-1.6-2c-1.5-1.9-3-3.9-4.4-5.9C2.1,10.3,1.8,10.4,1.7,10.6z M15.6,12c-1.3,1.7-2.6,3.4-4,5.1
		c-0.3,0.4-0.6,0.7-0.9,1.1c0.8-0.6,1.5-1.2,2.2-1.8c0.7-0.6,1.4-1.3,2.1-2c0.7-0.7,1.4-1.5,2.1-2.2c0.1-0.2,0.2-0.3,0.2-0.5
		c0.1-0.3,0.2-0.6,0.1-0.9c-0.1-0.3-0.4-0.4-0.6-0.6C16.5,10.8,16,11.4,15.6,12z M2.1,12.9c0,0.2,0,0.4,0,0.6c0,0.1,0,0.2,0.1,0.3
		c0.3,0.4,0.6,0.7,1,1.1c0.7,0.7,1.5,1.2,2.3,1.8c0.9,0.7,1.9,1.3,2.8,1.9c-0.5-0.4-1-0.8-1.5-1.2c-0.7-0.6-1.4-1.2-2.1-1.9
		C3.7,14.6,2.9,13.8,2.1,12.9z M15.1,14.9c-0.7,0.7-1.5,1.4-2.3,2.1c-0.6,0.5-1.3,1.1-1.9,1.6c0.1,0,0.1-0.1,0.1-0.1
		c0.8-0.5,1.6-1,2.3-1.6c0.8-0.6,1.6-1.2,2.4-1.8c0.4-0.3,0.8-0.7,1.1-1.1c0.1-0.1,0.2-0.2,0.2-0.4c0-0.2,0-0.5,0-0.7
		C16.4,13.6,15.8,14.2,15.1,14.9z M4.5,16.7c0.1,0.5,0.3,0.9,0.6,1.3c0.2,0.2,0.5,0.5,0.8,0.5c0.4,0.1,0.8,0.1,1.3,0
		c-0.1,0-0.1-0.1-0.2-0.1C6.1,17.8,5.3,17.3,4.5,16.7z M12,18.5c0.4,0,0.9,0.1,1.3,0c0.3-0.1,0.5-0.2,0.7-0.4
		c0.4-0.4,0.6-0.9,0.7-1.4C13.8,17.3,12.9,17.9,12,18.5z"/>
</g>
</svg>
