<?xml version="1.0" encoding="utf-8" ?><svg xmlns="http://www.w3.org/2000/svg" xmlns:xlink="http://www.w3.org/1999/xlink" width="768" height="768" viewBox="0 0 768 768"><path fill="#398F3C" d="M464.982 112.771C501.87 90.2511 533.459 76.2393 577.541 81.1528C580.37 82.2455 583.462 82.7281 586.359 83.5418C591.632 85.0225 596.757 86.9275 601.579 89.5301C606.017 91.6515 612.55 98.0709 615.464 99.5289C616.243 100.957 618.599 103.475 619.753 104.911C644.123 135.249 643.681 180.403 637.598 217.024C640.587 219.054 647.527 223.926 650.568 225.389C654.658 228.663 660.456 232.196 664.99 234.993C666.613 236.613 669.994 238.744 672.036 239.933L687.952 240.046C691.302 246.44 694.569 252.878 697.75 259.357C698.846 261.548 703.435 270.3 703.572 271.982C704.141 278.996 704.587 297.5 703.9 304.066C683.773 325.533 660.499 346.572 640.113 368.082C640.052 378.409 640.052 388.736 640.115 399.063C640.127 404.156 640.33 410.754 639.815 415.709C639.599 417.777 637.323 424.271 636.55 426.595L630.824 443.79C629.624 447.385 624.974 462.576 623.313 464.713C607.62 484.902 591.976 508.297 575.997 528.034C570.884 522.916 564.952 517.243 560.055 512.023C556.156 515.925 547.724 524.835 543.88 527.985C540.508 528.069 529.576 527.552 527.298 528.826C521.65 531.985 514.978 536.717 509.538 540.355L480.043 560.045C480.043 574.654 480.582 593.695 479.984 607.957C469.252 619.578 456.342 631.164 445.319 642.697C441.321 646.88 435.7 651.887 432.062 656.164C432.047 661.243 432.159 666.915 431.988 671.943C427.066 677.478 420.973 682.642 415.926 688.204C415.932 683.161 416.113 676.965 415.909 672.018C400.043 655.936 384.064 639.966 367.973 624.108C378.82 613.118 389.725 602.186 400.69 591.314C405.028 586.982 412.292 580.154 416.022 575.781C415.971 571.896 416.024 568.03 416.067 564.143C416.115 559.732 414.601 557.593 411.962 554.364C402.234 557.728 369.518 562.221 360.143 558.609C325.455 564.836 293.295 554.512 273.829 523.699C261.144 503.62 257.942 480.457 254.979 457.338C254.574 454.18 254.412 450.869 254.426 447.739C254.435 445.795 255.757 443.772 255.825 441.752C255.896 439.622 255.603 437.498 255.696 435.373C257.828 422.799 259.855 410.247 262.972 397.868C264.487 391.851 266.55 385.859 267.917 379.845C270.786 372.967 272.821 365.523 275.56 358.575C284.378 336.207 294.416 314.743 306.19 293.756C338.854 235.53 380.439 181.385 431.358 137.956C442.096 128.797 453.394 120.781 464.982 112.771ZM444.029 175.69C449.345 176.281 458.519 175.98 464.002 175.918C464.016 178.772 463.581 190.769 464.636 192.052L465.931 192.301C469.029 191.82 489.377 191.701 492.961 192.086C493.57 192.07 494.317 192.049 495.202 192.025C500.675 188.614 507.276 179.873 512.222 176.105C527.144 180.772 545.243 186.681 559.937 191.968C560.042 197.201 560.134 202.745 559.971 207.978C565.042 202.902 570.766 196.891 576.016 192.118C581.423 197.1 586.921 203.369 592.118 208.003C602.094 207.675 612.214 208.014 622.242 207.796C623.727 202.233 623.816 193.866 624.046 187.98C624.179 184.572 623.342 180.339 623.343 176.696C623.344 171.233 623.798 165.981 623.92 160.543C621.468 129.783 606.038 100.095 572.34 97.2138C569.997 97.8897 567.697 98.4601 565.322 99.0017C529.048 107.273 496.687 128.847 468.753 152.657C463.479 157.153 458.345 161.811 453.36 166.625C451.372 168.565 445.975 174.207 444.029 175.69ZM283.726 384.029C278.033 399.182 274.549 418.037 273.09 434.176C272.609 439.504 273.815 446.044 273.533 451.476C272.065 470.315 274.683 488.083 282.409 505.49C289.485 521.431 302.597 536.041 319.832 540.894C289.936 512.883 284.454 469.091 288.095 430.163C289.549 414.618 293.699 399.086 297.885 384.084L283.726 384.029ZM397.423 532.451C393.837 526.39 387.973 517.82 383.88 512.063C379.008 512.091 372.854 512.275 368.103 511.896C365.374 509.678 354.459 498.672 352.119 495.896C351.719 487.275 351.571 472.264 352.513 463.598C352.654 462.301 357.413 453.102 358.512 450.848C354.15 446.597 352.123 444.078 348.417 439.263C336.781 429.876 336.199 429.416 328.279 416.198C325.547 416.167 322.816 416.087 320.087 415.959C317.225 411.26 313.678 403.44 310.75 398.078L310.693 398.43C310.284 400.806 309.05 404.657 308.42 407.325C306.962 413.468 305.781 419.674 304.881 425.923C300.794 454.449 303.664 494.018 320.706 517.996C331.173 532.723 339.82 536.577 355.48 542.742C367.234 541.389 386.674 537.454 397.423 532.451Z"/><path fill="#B0BEC3" d="M637.598 217.024C640.587 219.054 647.527 223.926 650.568 225.389C654.658 228.663 660.456 232.196 664.99 234.993C666.613 236.613 669.994 238.744 672.036 239.933L687.952 240.046C691.302 246.44 694.569 252.878 697.75 259.357C698.846 261.548 703.435 270.3 703.572 271.982C704.141 278.996 704.587 297.5 703.9 304.066C683.773 325.533 660.499 346.572 640.113 368.082C640.052 378.409 640.052 388.736 640.115 399.063C640.127 404.156 640.33 410.754 639.815 415.709C639.599 417.777 637.323 424.271 636.55 426.595L630.824 443.79C629.624 447.385 624.974 462.576 623.313 464.713C607.62 484.902 591.976 508.297 575.997 528.034C570.884 522.916 564.952 517.243 560.055 512.023C556.156 515.925 547.724 524.835 543.88 527.985C540.508 528.069 529.576 527.552 527.298 528.826C521.65 531.985 514.978 536.717 509.538 540.355L480.043 560.045C480.043 574.654 480.582 593.695 479.984 607.957C469.252 619.578 456.342 631.164 445.319 642.697C441.321 646.88 435.7 651.887 432.062 656.164C432.047 661.243 432.159 666.915 431.988 671.943C427.066 677.478 420.973 682.642 415.926 688.204C415.932 683.161 416.113 676.965 415.909 672.018C400.043 655.936 384.064 639.966 367.973 624.108C378.82 613.118 389.725 602.186 400.69 591.314C405.028 586.982 412.292 580.154 416.022 575.781C415.971 571.896 416.024 568.03 416.067 564.143C416.115 559.732 414.601 557.593 411.962 554.364C410.922 552.234 408.173 548.242 406.791 546.109C420.772 540.773 434.683 533.432 447.178 525.205C537.866 465.492 607.142 340.767 633.218 237.513C634.927 230.748 636.191 223.857 637.598 217.024Z"/><path fill="#FEC005" d="M360.143 558.609C361.867 558.1 364.343 557.75 366.152 557.485C380.316 555.406 393.468 551.319 406.791 546.109C408.173 548.242 410.922 552.234 411.962 554.364C402.234 557.728 369.518 562.221 360.143 558.609Z"/><path fill="#F7F7F8" d="M283.726 384.029C287.691 369.698 295.885 349.921 302.265 336.259C335.839 264.357 385.98 194.575 447.734 144.207C454.896 138.366 467.248 128.98 475.496 124.876C476.515 124.37 477.317 125.093 478.171 125.61L479.81 128.245C464.413 143.472 446.95 160.395 432.064 175.974C434.552 175.948 442.014 175.99 444.029 175.69C449.345 176.281 458.519 175.98 464.002 175.918C464.016 178.772 463.581 190.769 464.636 192.052L465.931 192.301C469.029 191.82 489.377 191.701 492.961 192.086C493.57 192.07 494.317 192.049 495.202 192.025C500.675 188.614 507.276 179.873 512.222 176.105C527.144 180.772 545.243 186.681 559.937 191.968C560.042 197.201 560.134 202.745 559.971 207.978C565.042 202.902 570.766 196.891 576.016 192.118C581.423 197.1 586.921 203.369 592.118 208.003C600.176 208.387 614.438 208.282 622.673 208.028C620.131 227.1 613.949 249.175 607.81 267.413C579.665 351.014 526.541 445.719 455.782 499.94C441.654 510.874 426.307 520.135 410.048 527.539C406.462 529.16 401.11 531.524 397.423 532.451C393.837 526.39 387.973 517.82 383.88 512.063C379.008 512.091 372.854 512.275 368.103 511.896C365.374 509.678 354.459 498.672 352.119 495.896C351.719 487.275 351.571 472.264 352.513 463.598C352.654 462.301 357.413 453.102 358.512 450.848C354.15 446.597 352.123 444.078 348.417 439.263C336.781 429.876 336.199 429.416 328.279 416.198C325.547 416.167 322.816 416.087 320.087 415.959C317.225 411.26 313.678 403.44 310.75 398.078C309.663 394.804 305.681 387.342 304.006 384.094C301.96 384.009 299.932 384.059 297.885 384.084L283.726 384.029Z"/><path fill="#B0BEC3" d="M512.222 176.105C527.144 180.772 545.243 186.681 559.937 191.968C560.042 197.201 560.134 202.745 559.971 207.978C565.042 202.902 570.766 196.891 576.016 192.118C581.423 197.1 586.921 203.369 592.118 208.003C600.176 208.387 614.438 208.282 622.673 208.028C620.131 227.1 613.949 249.175 607.81 267.413C579.665 351.014 526.541 445.719 455.782 499.94C441.654 510.874 426.307 520.135 410.048 527.539C406.462 529.16 401.11 531.524 397.423 532.451C393.837 526.39 387.973 517.82 383.88 512.063C379.008 512.091 372.854 512.275 368.103 511.896C365.374 509.678 354.459 498.672 352.119 495.896C351.719 487.275 351.571 472.264 352.513 463.598C352.654 462.301 357.413 453.102 358.512 450.848C354.15 446.597 352.123 444.078 348.417 439.263C352.23 441.06 357.682 443.741 361.557 444.907C374.696 448.857 391.064 448.763 404.595 446.265C443.605 439.061 471.169 415.311 493.321 384.056C496.518 378.973 500.156 373.343 502.718 367.924C484.772 368.228 466.129 367.985 448.131 367.976C437.239 381.848 423.143 397.062 404.569 399.594C399.666 400.262 388.229 399.533 384.023 397.065C357.998 385.257 369.846 356.664 377.129 336.154C391.655 335.442 411.252 336.021 426.258 336.021L521.48 336.024C535.43 303.155 547.198 268.64 543.455 232.315C542.847 226.416 541.866 222.567 539.74 217.053C528.77 196.068 513.851 195.892 492.961 192.086C493.57 192.07 494.317 192.049 495.202 192.025C500.675 188.614 507.276 179.873 512.222 176.105Z"/><path fill="#78909A" d="M539.74 217.053C541.232 216.726 541.473 217.045 542.802 217.891C558.227 227.712 559.832 244.563 559.994 261.127C560.23 285.195 554.482 307.944 546.153 330.361C543.555 337.388 540.745 345.376 537.064 352.015L445.971 352.069C428.503 352.063 410.489 352.277 393.058 352.059C389.515 362.216 386.278 371.34 384.571 382.081C384.096 385.071 384.534 395.685 384.023 397.065C357.998 385.257 369.846 356.664 377.129 336.154C391.655 335.442 411.252 336.021 426.258 336.021L521.48 336.024C535.43 303.155 547.198 268.64 543.455 232.315C542.847 226.416 541.866 222.567 539.74 217.053Z"/><path fill="#78909A" d="M493.321 384.056C501.076 383.95 511.024 383.765 518.75 384.182C500.2 418.456 470.758 448.624 432.492 459.53C407.76 466.578 379.871 466.894 358.512 450.848C354.15 446.597 352.123 444.078 348.417 439.263C352.23 441.06 357.682 443.741 361.557 444.907C374.696 448.857 391.064 448.763 404.595 446.265C443.605 439.061 471.169 415.311 493.321 384.056Z"/><path fill="#B0BEC3" d="M283.726 384.029C287.691 369.698 295.885 349.921 302.265 336.259C335.839 264.357 385.98 194.575 447.734 144.207C454.896 138.366 467.248 128.98 475.496 124.876C476.515 124.37 477.317 125.093 478.171 125.61L479.81 128.245C464.413 143.472 446.95 160.395 432.064 175.974C434.552 175.948 442.014 175.99 444.029 175.69C449.345 176.281 458.519 175.98 464.002 175.918C464.016 178.772 463.581 190.769 464.636 192.052L465.931 192.301C462.802 193.151 458.486 193.574 455.183 194.036C449.972 194.681 444.973 195.837 439.919 197.239C373.51 215.663 338.803 281.09 324.366 343.796C319.937 363.031 317.567 380.729 322.697 400.187C324.025 405.228 326.012 411.443 328.279 416.198C325.547 416.167 322.816 416.087 320.087 415.959C317.225 411.26 313.678 403.44 310.75 398.078C309.663 394.804 305.681 387.342 304.006 384.094C301.96 384.009 299.932 384.059 297.885 384.084L283.726 384.029Z"/><path fill="#78909A" d="M397.662 287.962C397.853 287.646 398.048 287.332 398.246 287.02C411.718 265.639 434.317 246.921 459.475 242.147C472.225 239.728 493.071 235.247 496.639 252.246C498.488 261.22 491.666 279.093 488.536 288.009C467.469 288.006 445.881 288.253 424.859 287.961C416.072 288.183 406.466 288.045 397.662 287.962Z"/><path fill="#B0BEC3" d="M496.639 252.246C498.488 261.22 491.666 279.093 488.536 288.009C467.469 288.006 445.881 288.253 424.859 287.961C426.869 287.134 429.42 283.944 431.105 282.313C446.84 267.083 466.907 257.622 488.858 256.259C491.417 256.1 493.704 256.376 496.239 255.948C496.738 255.059 496.622 253.359 496.639 252.246Z"/><path fill="#FEC005" d="M297.885 384.084C299.932 384.059 301.96 384.009 304.006 384.094C305.681 387.342 309.663 394.804 310.75 398.078L310.693 398.43C310.284 400.806 309.05 404.657 308.42 407.325C306.962 413.468 305.781 419.674 304.881 425.923C300.794 454.449 303.664 494.018 320.706 517.996C331.173 532.723 339.82 536.577 355.48 542.742C346.627 544.878 328.14 544.594 319.832 540.894C289.936 512.883 284.454 469.091 288.095 430.163C289.549 414.618 293.699 399.086 297.885 384.084Z"/><path fill="#FEC005" d="M478.171 125.61C480.281 123.239 490.814 116.12 493.91 114.338C513.739 102.927 539.439 95.5376 562.338 96.0944C565.266 96.1656 570.176 96.3187 572.81 96.91L572.34 97.2138C569.997 97.8897 567.697 98.4601 565.322 99.0017C529.048 107.273 496.687 128.847 468.753 152.657C463.479 157.153 458.345 161.811 453.36 166.625C451.372 168.565 445.975 174.207 444.029 175.69C442.014 175.99 434.552 175.948 432.064 175.974C446.95 160.395 464.413 143.472 479.81 128.245L478.171 125.61Z"/><path fill="#B0BEC3" d="M319.848 80.1371C322.255 82.9812 328.35 92.2676 330.34 95.709C332.604 96.0305 333.908 95.9625 336.158 95.9078C335.755 97.7437 335.346 99.8093 334.898 101.616C335.92 104.593 339.414 108.753 341.075 111.703C345.843 112.252 357.587 111.863 363.02 111.869C362.473 114.648 359.839 126.269 360.446 127.898L361.43 128.118C366.569 127.596 378.436 127.935 384.03 127.926C383.873 122.782 384.018 117.085 384.054 111.896C388.868 112.216 394.659 111.847 399.945 112.139C403.179 114.63 412.674 124.618 416.039 127.966C421.356 127.949 426.672 127.964 431.989 128.011C436.522 118.181 443.02 105.716 448.044 96.0545C453.228 101.25 459.625 108.023 464.982 112.771C453.394 120.781 442.096 128.797 431.358 137.956C380.439 181.385 338.854 235.53 306.19 293.756C294.416 314.743 284.378 336.207 275.56 358.575C272.821 365.523 270.786 372.967 267.917 379.845C260.008 372.091 247.113 359.867 240.067 351.88C239.711 341.896 240 330.264 240.007 320.157C229.648 319.906 218.557 320.096 208.154 320.127C202.523 325.004 197.502 331.07 191.907 335.958C182.415 336.427 169.8 336.045 160.074 336.035C160.009 330.734 160.01 325.431 160.079 320.13C152.573 319.97 140.39 320.55 133.435 319.89C129.647 316.611 125.176 311.89 121.558 308.264C114.854 301.507 108.109 294.791 101.323 288.116C104.429 283.416 109.627 276.933 113.125 272.274C111.564 271.871 93.6746 272.151 90.9299 272.172C91.5789 269.215 93.4001 258.221 94.2356 256.281C92.1827 255.964 86.0703 256.081 83.7727 256.084L63.9556 256.12L95.989 95.9536L128.016 95.9001C129.544 101.246 131.161 106.566 132.866 111.857C136.262 111.85 153.246 111.316 154.857 112.62C157.059 116.297 158.199 125.008 160.058 127.96L170.02 124.616C172.176 117.741 174.182 103.864 176.051 95.949C184.625 95.9618 200.049 96.419 208.167 95.7301C206.953 100.799 206.045 106.578 204.868 111.847C213.804 111.922 226.808 111.506 235.269 112.047C234.82 114.34 232.872 123.24 233.01 124.863L233.928 124.779C234.578 123.324 235.712 117.196 236.098 115.314C237.423 108.843 238.547 102.371 240.061 95.9274C247.831 95.9484 266.065 96.4621 273.212 95.6081C288.131 90.8184 305.087 84.3429 319.848 80.1371Z"/><path fill="#F7F7F8" d="M176.051 95.949C184.625 95.9618 200.049 96.419 208.167 95.7301C206.953 100.799 206.045 106.578 204.868 111.847C213.804 111.922 226.808 111.506 235.269 112.047C234.82 114.34 232.872 123.24 233.01 124.863C230.748 128.996 227.311 153.006 225.979 158.867C222.813 172.792 219.988 187.185 217.431 201.264C216.202 208.024 214.792 212.561 214.445 219.532L213.826 223.397C212.289 227.14 208.565 243.102 208.145 247.375C206.368 253.844 204.274 265.148 203.086 271.972L170.804 271.96C169.684 267.946 167.102 259.787 166.459 256.065L143.932 256.058C141.367 244.753 135.547 230.354 133.247 219.625C133.218 222.835 131.238 230.959 130.61 234.519C128.448 246.77 124.988 259.674 123.239 271.947L113.125 272.274C111.564 271.871 93.6746 272.151 90.9299 272.172C91.5789 269.215 93.4001 258.221 94.2356 256.281C92.1827 255.964 86.0703 256.081 83.7727 256.084L63.9556 256.12L95.989 95.9536L128.016 95.9001C129.544 101.246 131.161 106.566 132.866 111.857C136.262 111.85 153.246 111.316 154.857 112.62C157.059 116.297 158.199 125.008 160.058 127.96L170.02 124.616C172.176 117.741 174.182 103.864 176.051 95.949Z"/><path fill="#78909A" d="M176.018 256.024L204.868 111.847C213.804 111.922 226.808 111.506 235.269 112.047C234.82 114.34 232.872 123.24 233.01 124.863C230.748 128.996 227.311 153.006 225.979 158.867C222.813 172.792 219.988 187.185 217.431 201.264C216.202 208.024 214.792 212.561 214.445 219.532L213.826 223.397C212.289 227.14 208.565 243.102 208.145 247.375C206.368 253.844 204.274 265.148 203.086 271.972L170.804 271.96C169.684 267.946 167.102 259.787 166.459 256.065L176.018 256.024Z"/><path fill="#78909A" d="M115.441 160.337C117.919 167.083 120.768 177.756 122.851 184.911L133.247 219.625C133.218 222.835 131.238 230.959 130.61 234.519C128.448 246.77 124.988 259.674 123.239 271.947L113.125 272.274C111.564 271.871 93.6746 272.151 90.9299 272.172C91.5789 269.215 93.4001 258.221 94.2356 256.281L95.6341 255.76C97.2266 253.547 113.116 170.358 115.441 160.337Z"/><path fill="#78909A" d="M132.866 111.857C136.262 111.85 153.246 111.316 154.857 112.62C157.059 116.297 158.199 125.008 160.058 127.96C160.409 130.545 164.493 144.959 165.583 147.204C162.783 161.113 159.772 178.309 156.321 191.857C154.626 184.413 151.755 176.532 149.737 169.112C144.605 150.237 137.741 130.684 132.866 111.857Z"/><path fill="#B0BEC3" d="M160.058 127.96L170.02 124.616C168.92 131.176 167.208 140.744 165.583 147.204C164.493 144.959 160.409 130.545 160.058 127.96Z"/><path fill="#F7F7F8" d="M319.848 80.1371C322.255 82.9812 328.35 92.2676 330.34 95.709C332.604 96.0305 333.908 95.9625 336.158 95.9078C335.755 97.7437 335.346 99.8093 334.898 101.616C335.92 104.593 339.414 108.753 341.075 111.703C338.46 111.862 335.38 112.125 332.801 112.146L329.638 128.101C324.423 127.883 318.938 127.894 313.703 127.977C297.749 128.23 281.557 127.638 265.629 128.106L261.442 148.822C260.79 152.075 259.653 156.91 259.32 160.002C261.576 160.241 263.657 160.16 265.913 160.194C283.823 160.458 301.867 159.556 319.762 160.074C319.056 165.275 317.933 170.824 316.805 175.968L313.6 192.018C293.588 192.013 272.667 191.684 252.734 192.033C250.145 206.191 247.069 220.581 244.305 234.736C243.421 239.267 241.11 252.311 239.877 255.853C239.059 256.227 239.115 256.207 238.214 256.233C234.064 255.279 213.444 256.108 207.859 256.048C208.259 254.094 208.643 252.137 209.013 250.177C210.111 247.857 213.718 226.786 213.826 223.397L214.445 219.532C214.792 212.561 216.202 208.024 217.431 201.264C219.988 187.185 222.813 172.792 225.979 158.867C227.311 153.006 230.748 128.996 233.01 124.863L233.928 124.779C234.578 123.324 235.712 117.196 236.098 115.314C237.423 108.843 238.547 102.371 240.061 95.9274C247.831 95.9484 266.065 96.4621 273.212 95.6081C288.131 90.8184 305.087 84.3429 319.848 80.1371Z"/><path fill="#B0BEC3" d="M319.848 80.1371C322.255 82.9812 328.35 92.2676 330.34 95.709C318.237 96.0142 306.129 96.1182 294.022 96.0211C288.337 96.0229 278.498 96.2918 273.212 95.6081C288.131 90.8184 305.087 84.3429 319.848 80.1371Z"/><path fill="#B0BEC3" d="M233.01 124.863L233.928 124.779C233.67 128.817 232.03 135.895 231.184 140.066L225.896 166.073L219.283 198.002C217.427 206.964 217.781 209.95 214.445 219.532C214.792 212.561 216.202 208.024 217.431 201.264C219.988 187.185 222.813 172.792 225.979 158.867C227.311 153.006 230.748 128.996 233.01 124.863Z"/><path fill="#B0BEC3" d="M332.801 112.146C333.623 108.885 334.265 104.961 334.898 101.616C335.92 104.593 339.414 108.753 341.075 111.703C338.46 111.862 335.38 112.125 332.801 112.146Z"/><path fill="#78909A" d="M316.805 175.968C326.658 175.934 336.809 176.052 346.63 175.864C346.3 181.064 344.791 187.492 343.695 192.674C342.657 197.585 341.636 203.198 340.434 208.031L279.966 208.019C278.496 213.442 277.442 219.798 276.367 225.374L271.983 247.018C270.431 255.072 268.843 264.312 266.647 272.109C256.379 271.696 245.537 272.04 235.212 271.93C235.571 269.167 237.308 258.696 238.214 256.233C239.115 256.207 239.059 256.227 239.877 255.853C241.11 252.311 243.421 239.267 244.305 234.736C247.069 220.581 250.145 206.191 252.734 192.033C272.667 191.684 293.588 192.013 313.6 192.018L316.805 175.968Z"/><path fill="#78909A" d="M341.075 111.703C345.843 112.252 357.587 111.863 363.02 111.869C362.473 114.648 359.839 126.269 360.446 127.898L361.43 128.118C360.407 128.453 360.127 128.285 359.792 129.258C358.372 133.384 357.336 139.68 356.919 143.985L292.335 144.038C291.504 149.358 290.406 154.583 289.582 159.809L269.597 159.782C267.4 159.78 261.264 159.684 259.32 160.002C259.653 156.91 260.79 152.075 261.442 148.822L265.629 128.106C281.557 127.638 297.749 128.23 313.703 127.977C318.938 127.894 324.423 127.883 329.638 128.101L332.801 112.146C335.38 112.125 338.46 111.862 341.075 111.703Z"/><path fill="#FEC005" d="M577.541 81.1528C585.211 79.3532 596.71 79.8587 604.443 80.7803C670.625 88.6679 677.502 160.279 669.378 212.895C668.281 220 666.916 228.208 664.99 234.993C660.456 232.196 654.658 228.663 650.568 225.389C656.705 199.438 659.03 156.094 648.172 131.383C640.514 113.955 632.391 106.462 615.464 99.5289C612.55 98.0709 606.017 91.6515 601.579 89.5301C596.757 86.9275 591.632 85.0225 586.359 83.5418C583.462 82.7281 580.37 82.2455 577.541 81.1528Z"/></svg>