<?xml version="1.0" encoding="utf-8"?>
<!-- Generator: Adobe Illustrator 18.0.0, SVG Export Plug-In . SVG Version: 6.00 Build 0)  -->
<!DOCTYPE svg PUBLIC "-//W3C//DTD SVG 1.1//EN" "http://www.w3.org/Graphics/SVG/1.1/DTD/svg11.dtd">
<svg version="1.1" id="ecommerce_1_" xmlns="http://www.w3.org/2000/svg" xmlns:xlink="http://www.w3.org/1999/xlink" x="0px"
	 y="0px" viewBox="0 0 115 115" style="enable-background:new 0 0 115 115;" xml:space="preserve">
<style type="text/css">
	.st0{fill:#FFEEAD;}
	.st1{fill:#C9B77D;}
	.st2{fill:#99734A;}
	.st3{fill:#FF6F69;}
	.st4{fill:#96CEB4;}
	.st5{fill:none;}
	.st6{fill:#AA9865;}
	.st7{fill:#71A58A;}
	.st8{fill:#FFCC5C;}
	.st9{fill:#825E3B;}
	.st10{fill:#639376;}
	.st11{fill:#E05858;}
	.st12{fill:#C1821E;}
	.st13{fill:#D6A041;}
	.st14{fill:#B28559;}
	.st15{fill:#BF4343;}
	.st16{fill:#D3C089;}
	.st17{fill:#7C5C3C;}
	.st18{fill:#FDCC5C;}
	.st19{fill:#FFFFFF;}
</style>
<g id="checkout_1_">
	<g>
		<g>
			<path class="st11" d="M0,75.223v25.681c0,3.606,2.923,6.529,6.529,6.529h101.943c3.606,0,6.529-2.923,6.529-6.529V75.223H0z"/>
		</g>
	</g>
	<g>
		<g>
			<path class="st4" d="M103.229,80.333H11.771c-2.846,0-5.154,2.308-5.154,5.154V97.17c0,2.846,2.308,5.154,5.154,5.154h91.458
				c2.846,0,5.154-2.308,5.154-5.154V85.487C108.383,82.64,106.075,80.333,103.229,80.333z"/>
		</g>
	</g>
	<g>
		<g>
			<ellipse class="st0" cx="57.256" cy="91.328" rx="5.444" ry="5.514"/>
		</g>
	</g>
	<g>
		<g>
			<g>
				<polygon class="st3" points="102.252,66.184 12.998,66.184 0,75.223 115,75.223 				"/>
			</g>
		</g>
		<g>
			<g>
				<g>
					<path class="st7" d="M76.259,67.84c-0.123-0.254-0.914-0.456-1.769-0.456h-1.907c-0.855,0-1.488,0.202-1.413,0.456l0.172,0.584
						c0.079,0.27,0.878,0.493,1.783,0.493h2.018c0.905,0,1.53-0.223,1.399-0.493L76.259,67.84z"/>
				</g>
			</g>
			<g>
				<g>
					<path class="st7" d="M83.781,68.425l-0.439-0.584c-0.191-0.254-1.035-0.456-1.89-0.456h-1.907
						c-0.855,0-1.434,0.202-1.292,0.456l0.327,0.584c0.151,0.27,1.01,0.493,1.914,0.493h2.018
						C83.418,68.918,83.984,68.695,83.781,68.425z"/>
				</g>
			</g>
			<g>
				<g>
					<path class="st7" d="M91.02,68.425l-0.594-0.584c-0.258-0.254-1.156-0.456-2.011-0.456h-1.907
						c-0.855,0-1.381,0.202-1.171,0.456l0.482,0.584c0.223,0.27,1.141,0.493,2.045,0.493h2.018
						C90.789,68.918,91.295,68.695,91.02,68.425z"/>
				</g>
			</g>
			<g>
				<g>
					<path class="st7" d="M98.26,68.425L97.51,67.84c-0.326-0.254-1.278-0.456-2.132-0.456h-1.907c-0.855,0-1.327,0.202-1.05,0.456
						l0.638,0.584c0.295,0.27,1.272,0.493,2.177,0.493h2.018C98.159,68.918,98.606,68.695,98.26,68.425z"/>
				</g>
			</g>
			<g>
				<g>
					<path class="st7" d="M77.573,70.55l-0.329-0.678c-0.142-0.294-1-0.528-1.919-0.528h-2.049c-0.919,0-1.595,0.234-1.508,0.528
						l0.199,0.678c0.092,0.314,0.96,0.574,1.937,0.574h2.179C77.059,71.125,77.725,70.865,77.573,70.55z"/>
				</g>
			</g>
			<g>
				<g>
					<path class="st7" d="M85.377,70.55l-0.509-0.678c-0.221-0.294-1.141-0.528-2.059-0.528h-2.049
						c-0.919,0-1.532,0.234-1.368,0.528l0.379,0.678c0.176,0.314,1.113,0.574,2.09,0.574h2.179
						C85.016,71.125,85.613,70.865,85.377,70.55z"/>
				</g>
			</g>
			<g>
				<g>
					<path class="st7" d="M93.181,70.55l-0.689-0.678c-0.299-0.294-1.281-0.528-2.2-0.528h-2.049c-0.919,0-1.47,0.234-1.228,0.528
						l0.56,0.678c0.259,0.314,1.266,0.574,2.243,0.574h2.179C92.973,71.125,93.501,70.865,93.181,70.55z"/>
				</g>
			</g>
			<g>
				<g>
					<path class="st7" d="M100.986,70.55l-0.869-0.678c-0.377-0.294-1.421-0.528-2.34-0.528h-2.049
						c-0.919,0-1.408,0.234-1.087,0.528l0.74,0.678c0.343,0.314,1.419,0.574,2.395,0.574h2.179
						C100.93,71.125,101.389,70.865,100.986,70.55z"/>
				</g>
			</g>
			<g>
				<g>
					<path class="st7" d="M78.778,73.036l-0.386-0.796c-0.167-0.344-1.104-0.617-2.097-0.617H74.08
						c-0.993,0-1.718,0.273-1.617,0.617l0.234,0.796c0.109,0.37,1.059,0.677,2.12,0.677h2.367
						C78.246,73.713,78.958,73.407,78.778,73.036z"/>
				</g>
			</g>
			<g>
				<g>
					<path class="st7" d="M87.243,73.036l-0.598-0.796c-0.258-0.344-1.268-0.617-2.261-0.617h-2.215
						c-0.993,0-1.645,0.273-1.452,0.617l0.446,0.796c0.207,0.37,1.239,0.677,2.3,0.677h2.367
						C86.891,73.713,87.521,73.407,87.243,73.036z"/>
				</g>
			</g>
			<g>
				<g>
					<path class="st7" d="M95.708,73.036l-0.809-0.796c-0.35-0.344-1.433-0.617-2.425-0.617h-2.215
						c-0.993,0-1.572,0.273-1.288,0.617l0.657,0.796c0.306,0.37,1.419,0.677,2.48,0.677h2.367
						C95.536,73.713,96.085,73.407,95.708,73.036z"/>
				</g>
			</g>
			<g>
				<g>
					<path class="st7" d="M104.174,73.036l-1.021-0.796c-0.441-0.344-1.597-0.617-2.59-0.617h-2.215c-0.993,0-1.5,0.273-1.124,0.617
						l0.869,0.796c0.404,0.37,1.599,0.677,2.66,0.677h2.367C104.181,73.713,104.648,73.407,104.174,73.036z"/>
				</g>
			</g>
		</g>
		<g>
			<g>
				<g>
					<path class="st4" d="M76.227,67.274c-0.123-0.254-0.914-0.456-1.769-0.456h-1.907c-0.855,0-1.488,0.202-1.413,0.456
						l0.172,0.584c0.079,0.27,0.878,0.493,1.783,0.493h2.018c0.905,0,1.53-0.223,1.399-0.493L76.227,67.274z"/>
				</g>
			</g>
			<g>
				<g>
					<path class="st4" d="M83.749,67.858l-0.439-0.584c-0.191-0.254-1.035-0.456-1.89-0.456h-1.907
						c-0.855,0-1.434,0.202-1.292,0.456l0.327,0.584c0.151,0.27,1.01,0.493,1.914,0.493h2.018
						C83.386,68.352,83.952,68.129,83.749,67.858z"/>
				</g>
			</g>
			<g>
				<g>
					<path class="st4" d="M90.988,67.858l-0.594-0.584c-0.258-0.254-1.156-0.456-2.011-0.456h-1.907
						c-0.855,0-1.381,0.202-1.171,0.456l0.482,0.584c0.223,0.27,1.141,0.493,2.045,0.493h2.018
						C90.756,68.352,91.263,68.129,90.988,67.858z"/>
				</g>
			</g>
			<g>
				<g>
					<path class="st4" d="M98.227,67.858l-0.749-0.584c-0.326-0.254-1.278-0.456-2.132-0.456h-1.907
						c-0.855,0-1.327,0.202-1.05,0.456l0.638,0.584c0.295,0.27,1.272,0.493,2.177,0.493h2.018
						C98.127,68.352,98.574,68.129,98.227,67.858z"/>
				</g>
			</g>
			<g>
				<g>
					<path class="st4" d="M77.541,69.984l-0.329-0.678c-0.142-0.294-1-0.528-1.919-0.528h-2.049c-0.919,0-1.595,0.234-1.508,0.528
						l0.199,0.678c0.092,0.314,0.961,0.574,1.937,0.574h2.179C77.027,70.558,77.693,70.299,77.541,69.984z"/>
				</g>
			</g>
			<g>
				<g>
					<path class="st4" d="M85.345,69.984l-0.509-0.678c-0.221-0.294-1.141-0.528-2.059-0.528h-2.049
						c-0.919,0-1.532,0.234-1.368,0.528l0.379,0.678c0.176,0.314,1.113,0.574,2.09,0.574h2.179
						C84.984,70.558,85.581,70.299,85.345,69.984z"/>
				</g>
			</g>
			<g>
				<g>
					<path class="st4" d="M93.149,69.984l-0.689-0.678c-0.299-0.294-1.281-0.528-2.2-0.528h-2.049c-0.919,0-1.47,0.234-1.228,0.528
						l0.56,0.678c0.26,0.314,1.266,0.574,2.242,0.574h2.179C92.941,70.558,93.469,70.299,93.149,69.984z"/>
				</g>
			</g>
			<g>
				<g>
					<path class="st4" d="M100.954,69.984l-0.869-0.678c-0.377-0.294-1.421-0.528-2.34-0.528h-2.049
						c-0.919,0-1.408,0.234-1.087,0.528l0.74,0.678c0.343,0.314,1.418,0.574,2.395,0.574h2.179
						C100.898,70.558,101.357,70.299,100.954,69.984z"/>
				</g>
			</g>
			<g>
				<g>
					<path class="st4" d="M78.746,72.47l-0.386-0.796c-0.167-0.344-1.104-0.617-2.097-0.617h-2.215
						c-0.993,0-1.718,0.273-1.616,0.617l0.234,0.796c0.109,0.37,1.059,0.677,2.12,0.677h2.368
						C78.214,73.147,78.925,72.84,78.746,72.47z"/>
				</g>
			</g>
			<g>
				<g>
					<path class="st4" d="M87.211,72.47l-0.597-0.796c-0.258-0.344-1.268-0.617-2.261-0.617h-2.215
						c-0.993,0-1.645,0.273-1.452,0.617l0.446,0.796c0.207,0.37,1.239,0.677,2.3,0.677h2.367
						C86.859,73.147,87.489,72.84,87.211,72.47z"/>
				</g>
			</g>
			<g>
				<g>
					<path class="st4" d="M95.676,72.47l-0.809-0.796c-0.35-0.344-1.433-0.617-2.426-0.617h-2.215c-0.993,0-1.572,0.273-1.288,0.617
						l0.657,0.796c0.306,0.37,1.419,0.677,2.48,0.677h2.367C95.504,73.147,96.052,72.84,95.676,72.47z"/>
				</g>
			</g>
			<g>
				<g>
					<path class="st4" d="M104.141,72.47l-1.021-0.796c-0.441-0.344-1.597-0.617-2.59-0.617h-2.215c-0.993,0-1.5,0.273-1.124,0.617
						l0.869,0.796c0.404,0.37,1.599,0.677,2.66,0.677h2.367C104.149,73.147,104.616,72.84,104.141,72.47z"/>
				</g>
			</g>
		</g>
		<g>
			<g>
				<polygon class="st2" points="16.569,67.412 14.438,69.084 48.085,69.084 48.572,67.412 				"/>
			</g>
		</g>
	</g>
	<g>
		<g>
			<rect x="12.998" y="38.279" class="st11" width="89.219" height="27.905"/>
		</g>
	</g>
	<g>
		<g>
			<path class="st3" d="M101.219,36.819c-0.75-0.99-2.667-1.647-4.81-1.647H18.893c-2.142,0-4.06,0.656-4.81,1.647l-1.101,1.453
				h89.235L101.219,36.819z"/>
		</g>
	</g>
	<g>
		<g>
			<path class="st3" d="M99.849,8.619c-0.472-0.633-1.679-1.052-3.027-1.052h-48.79c-1.348,0-2.555,0.419-3.027,1.052l-0.693,0.928
				h56.285L99.849,8.619z"/>
		</g>
	</g>
	<g>
		<g>
			<path class="st4" d="M93.145,43.959h-36.28c-1.299,0-2.352,1.053-2.352,2.352v11.787c0,1.299,1.053,2.352,2.352,2.352h36.28
				c1.299,0,2.352-1.053,2.352-2.352V46.311C95.497,45.012,94.444,43.959,93.145,43.959z"/>
		</g>
	</g>
	<g>
		<g>
			<path class="st2" d="M91.771,45.301H58.239c-1.172,0-2.122,0.95-2.122,2.122v9.563c0,1.172,0.95,2.122,2.122,2.122h33.531
				c1.172,0,2.122-0.95,2.122-2.122v-9.563C93.892,46.251,92.942,45.301,91.771,45.301z"/>
		</g>
	</g>
	<g>
		<g>
			<path class="st0" d="M43.378,42.942c-0.103,1.127-1.04,2.013-2.194,2.013c-1.154,0-2.091-0.886-2.194-2.013h-2.053
				c-0.103,1.127-1.04,2.013-2.194,2.013c-1.154,0-2.091-0.886-2.194-2.013h-2.053c-0.103,1.127-1.04,2.013-2.194,2.013
				c-1.154,0-2.091-0.886-2.194-2.013h-2.053c-0.103,1.127-1.04,2.013-2.194,2.013s-2.091-0.886-2.194-2.013h-1.796v26.142h27.266
				V42.942H43.378z"/>
		</g>
	</g>
	<g>
		<g>
			<path class="st2" d="M41.797,51.665H21.213c-0.31,0-0.564,0.254-0.564,0.564c0,0.31,0.254,0.564,0.564,0.564h20.585
				c0.31,0,0.564-0.254,0.564-0.564C42.361,51.919,42.107,51.665,41.797,51.665z"/>
		</g>
	</g>
	<g>
		<g>
			<path class="st2" d="M41.797,54.939H21.213c-0.31,0-0.564,0.254-0.564,0.564c0,0.31,0.254,0.564,0.564,0.564h20.585
				c0.31,0,0.564-0.254,0.564-0.564C42.361,55.193,42.107,54.939,41.797,54.939z"/>
		</g>
	</g>
	<g>
		<g>
			<path class="st2" d="M41.797,58.213H21.213c-0.31,0-0.564,0.254-0.564,0.564c0,0.31,0.254,0.564,0.564,0.564h20.585
				c0.31,0,0.564-0.254,0.564-0.564C42.361,58.467,42.107,58.213,41.797,58.213z"/>
		</g>
	</g>
	<g>
		<g>
			<path class="st2" d="M41.797,61.487H21.213c-0.31,0-0.564,0.254-0.564,0.564c0,0.31,0.254,0.564,0.564,0.564h20.585
				c0.31,0,0.564-0.254,0.564-0.564C42.361,61.741,42.107,61.487,41.797,61.487z"/>
		</g>
	</g>
	<g>
		<g>
			<path class="st2" d="M41.797,64.761H21.213c-0.31,0-0.564,0.254-0.564,0.564s0.254,0.564,0.564,0.564h20.585
				c0.31,0,0.564-0.254,0.564-0.564S42.107,64.761,41.797,64.761z"/>
		</g>
	</g>
	<g>
		<g>
			<g>
				<path class="st0" d="M81.83,47.869c-2.007,0-2.935,0.768-2.935,2.736v2.847c0,1.969,0.954,2.761,2.935,2.761
					c1.98,0,2.934-0.792,2.934-2.761v-2.847C84.764,48.637,83.835,47.869,81.83,47.869z M83.03,53.564
					c0,0.942-0.259,1.239-1.2,1.239c-0.942,0-1.201-0.297-1.201-1.239v-3.009c0-1.052,0.321-1.274,1.201-1.274
					c0.879,0,1.2,0.223,1.2,1.274V53.564z"/>
			</g>
		</g>
		<g>
			<g>
				<path class="st0" d="M88.691,47.869c-2.007,0-2.935,0.768-2.935,2.736v2.847c0,1.969,0.954,2.761,2.935,2.761
					c1.98,0,2.934-0.792,2.934-2.761v-2.847C91.624,48.637,90.696,47.869,88.691,47.869z M89.89,53.564
					c0,0.942-0.259,1.239-1.2,1.239c-0.942,0-1.201-0.297-1.201-1.239v-3.009c0-1.052,0.321-1.274,1.201-1.274
					c0.879,0,1.2,0.223,1.2,1.274V53.564z"/>
			</g>
		</g>
	</g>
	<g>
		<g>
			<path class="st4" d="M75.206,23.05h-1.121c-1.277,0-2.322,1.045-2.322,2.322v9.964c0,0.759,0.621,1.38,1.38,1.38h3.004
				c0.759,0,1.38-0.621,1.38-1.38v-9.964C77.527,24.095,76.483,23.05,75.206,23.05z"/>
		</g>
	</g>
	<g>
		<g>
			<path class="st10" d="M76.079,22.781h-2.868c-0.797,0-1.448,0.652-1.448,1.448v2.421c0,0.797,0.652,1.448,1.448,1.448h2.868
				c0.797,0,1.448-0.652,1.448-1.448v-2.421C77.527,23.432,76.876,22.781,76.079,22.781z"/>
		</g>
	</g>
	<g>
		<g>
			<path class="st11" d="M44.311,9.547v13.354c0,1.807,1.478,3.285,3.285,3.285h49.715c1.807,0,3.285-1.478,3.285-3.285V9.547
				H44.311z"/>
		</g>
	</g>
	<g>
		<g>
			<path class="st4" d="M97.007,11.203H47.901c-0.778,0-1.409,0.631-1.409,1.409v10.51c0,0.778,0.631,1.409,1.409,1.409h49.106
				c0.778,0,1.409-0.631,1.409-1.409v-10.51C98.416,11.834,97.785,11.203,97.007,11.203z"/>
		</g>
	</g>
	<g>
		<g>
			<path class="st2" d="M95.529,12.795H49.378c-0.656,0-1.188,0.532-1.188,1.188v7.767c0,0.656,0.532,1.188,1.188,1.188h46.151
				c0.656,0,1.188-0.532,1.188-1.188v-7.767C96.717,13.327,96.185,12.795,95.529,12.795z"/>
		</g>
	</g>
	<g>
		<g>
			<g>
				<path class="st0" d="M85.564,14.578c-1.522,0-2.227,0.583-2.227,2.076v2.161c0,1.493,0.723,2.094,2.227,2.094
					c1.502,0,2.225-0.601,2.225-2.094v-2.161C87.789,15.161,87.085,14.578,85.564,14.578z M86.474,18.899
					c0,0.714-0.196,0.939-0.91,0.939c-0.714,0-0.912-0.225-0.912-0.939v-2.282c0-0.799,0.244-0.968,0.912-0.968
					c0.667,0,0.91,0.169,0.91,0.968V18.899z"/>
			</g>
		</g>
		<g>
			<g>
				<path class="st0" d="M90.764,14.578c-1.522,0-2.227,0.583-2.227,2.076v2.161c0,1.493,0.723,2.094,2.227,2.094
					c1.502,0,2.225-0.601,2.225-2.094v-2.161C92.989,15.161,92.285,14.578,90.764,14.578z M91.674,18.899
					c0,0.714-0.196,0.939-0.91,0.939c-0.714,0-0.912-0.225-0.912-0.939v-2.282c0-0.799,0.244-0.968,0.912-0.968
					c0.667,0,0.91,0.169,0.91,0.968V18.899z"/>
			</g>
		</g>
	</g>
</g>
</svg>
