<?xml version="1.0" encoding="utf-8" ?><svg xmlns="http://www.w3.org/2000/svg" xmlns:xlink="http://www.w3.org/1999/xlink" width="743" height="802" viewBox="0 0 743 802"><clipPath id="cl_3"><rect width="743" height="802"/></clipPath><g clip-path="url(#cl_3)"><path fill="white" transform="scale(0.725586 0.725136)" d="M0 0L1024 0L1024 1107L744.425 1107L450.517 1107L433.859 1107L0 1107L0 0Z"/><defs><linearGradient id="gradient_0" gradientUnits="userSpaceOnUse" x1="493.42258" y1="675.76575" x2="-48.172512" y2="560.6416"><stop offset="0" stop-color="#4783E3"/><stop offset="1" stop-color="#3AE1DD"/></linearGradient></defs><path fill="url(#gradient_0)" transform="scale(0.725586 0.725136)" d="M405.82 1106.37L283.967 1106.58C260.346 1106.63 236.52 1106.93 212.911 1106.63C150.215 1105.82 100.054 1088.28 56.0352 1042.86C30.2092 1016.16 12.6143 982.593 5.35047 946.166C-0.280979 918.015 1.2007 878.455 1.2915 849.183L1.35649 736.15L1.29756 466.629C1.3357 425.856 1.24624 385.078 1.42504 344.306C1.63745 295.872 18.6926 250.29 53.7903 216.393C76.1414 194.469 103.871 178.814 134.192 171C167.154 162.425 202.888 164.155 236.806 164.477L302.345 164.719C341.919 164.997 382.792 164.031 422.109 164.699C425.508 165.772 427.357 165.88 430.896 166.245C435.059 181.391 442.277 205.723 435.004 221.03C433.977 223.193 429.532 226.423 429.36 227.818C431.343 227.885 436.436 227.9 438.019 228.452L256.647 228.177C223.393 228.288 182.601 226.318 150.305 232.917C133.406 236.37 109.714 251.059 97.5968 263.558C65.5082 296.657 62.4736 328.831 62.7428 371.458L63.4288 762.608L62.739 865.039C62.7091 886.107 62.2226 915.725 65.9967 936.021C71.1045 962.631 84.0797 987.096 103.245 1006.25C144.306 1046.96 185.603 1049.8 240.174 1049.37C281.689 1049.02 323.205 1048.93 364.72 1049.1L405.538 1049.14C411.367 1049.15 420.943 1048.88 426.43 1049.27C437.342 1049.02 448.256 1048.91 459.171 1048.97C454.129 1063.48 441.357 1085.51 446.451 1101.34C446.771 1102.33 449.525 1106.33 450.517 1107L433.859 1107C430.304 1106.3 411.104 1106.5 405.82 1106.37Z"/><path fill="#4879DB" transform="scale(0.725586 0.725136)" d="M426.43 1049.27C437.342 1049.02 448.256 1048.91 459.171 1048.97C454.129 1063.48 441.357 1085.51 446.451 1101.34C446.771 1102.33 449.525 1106.33 450.517 1107L433.859 1107C430.304 1106.3 411.104 1106.5 405.82 1106.37C404.328 1105.94 403.79 1106.32 402.355 1105.33C399.335 1097.3 404.24 1086.95 406.961 1079.15C410.478 1069.07 413.163 1060.56 414.724 1049.96C417.279 1049.82 424.817 1050.3 426.43 1049.27Z"/><defs><linearGradient id="gradient_1" gradientUnits="userSpaceOnUse" x1="960.11572" y1="849.22327" x2="473.00568" y2="803.02985"><stop offset="0" stop-color="#8640D2"/><stop offset="1" stop-color="#565DD7"/></linearGradient></defs><path fill="url(#gradient_1)" transform="scale(0.725586 0.725136)" d="M459.171 1048.97L660.507 1049.05L720.413 1049.25C740.034 1049.23 765.095 1049.32 784.195 1044.84C810.115 1038.71 833.857 1025.6 852.842 1006.92C886.559 973.347 894.058 937.25 894.064 891.65L894.053 659.116C894.205 642.353 894.231 625.589 894.131 608.826C893.722 583.088 886.284 541.461 925.599 541.242C940.807 541.157 954.411 554.7 954.971 569.89C955.551 585.611 955.41 601.412 955.39 617.307L955.416 704.719L955.379 837.727C955.362 863.018 955.734 888.719 954.851 913.749C952.92 968.411 928.061 1018.89 887.023 1055C854.558 1083.56 821.254 1098.23 778.373 1104.05C771.96 1104.96 765.511 1105.59 759.043 1105.93C755.989 1106.11 746.98 1106.44 744.425 1107L450.517 1107C449.525 1106.33 446.771 1102.33 446.451 1101.34C441.357 1085.51 454.129 1063.48 459.171 1048.97Z"/><defs><linearGradient id="gradient_2" gradientUnits="userSpaceOnUse" x1="538.99377" y1="189.32761" x2="427.7345" y2="200.23053"><stop offset="0" stop-color="#5654D6"/><stop offset="1" stop-color="#477BDC"/></linearGradient></defs><path fill="url(#gradient_2)" transform="scale(0.725586 0.725136)" d="M422.109 164.699C437.766 164.523 453.423 164.431 469.081 164.422C479.47 164.34 489.921 164.052 500.303 164.504C511.436 164.988 522.406 164.447 531.017 172.638C537.038 178.407 540.527 186.327 540.717 194.663C541.269 221.85 516.506 230.029 493.665 228.857C474.81 227.89 456.701 228.85 438.019 228.452C436.436 227.9 431.343 227.885 429.36 227.818C429.532 226.423 433.977 223.193 435.004 221.03C442.277 205.723 435.059 181.391 430.896 166.245C427.357 165.88 425.508 165.772 422.109 164.699Z"/><defs><linearGradient id="gradient_3" gradientUnits="userSpaceOnUse" x1="423.8537" y1="818.58655" x2="280.19501" y2="561.75262"><stop offset="0" stop-color="#6235D4"/><stop offset="1" stop-color="#3DC3E7"/></linearGradient></defs><path fill="url(#gradient_3)" transform="scale(0.725586 0.725136)" d="M338.874 406.484L435.819 406.464C438.733 412.152 441.606 420.501 443.812 426.597C448.21 439.003 452.498 451.448 456.674 463.93L555.452 740.523C550.679 743.539 546.704 749.026 542.088 752.676C530.462 761.866 517.011 766.404 503.473 771.838C501.203 772.756 495.928 775.298 494.056 775.647C492.718 770.598 489.182 761.708 487.322 756.418C483.409 744.951 479.423 733.51 475.363 722.095C459.27 720.797 436.041 721.682 419.369 721.649L304.171 721.81C296.865 741.102 289.459 764.024 282.768 783.764L267.276 828.089C252.059 828.816 209.849 829.749 196.407 825.875C198.541 816.251 202.868 803.837 205.931 794.292C211.893 775.589 218.099 756.965 224.548 738.425L261.933 630.182C269.921 607.366 279.699 581.611 286.779 558.791C303.574 507.829 320.94 457.057 338.874 406.484Z"/><defs><linearGradient id="gradient_4" gradientUnits="userSpaceOnUse" x1="381.28714" y1="513.76019" x2="320.32446" y2="420.04602"><stop offset="0" stop-color="#3DCEE0"/><stop offset="1" stop-color="#48EAE6"/></linearGradient></defs><path fill="url(#gradient_4)" transform="scale(0.725586 0.725136)" d="M338.874 406.484L435.819 406.464C438.733 412.152 441.606 420.501 443.812 426.597C448.21 439.003 452.498 451.448 456.674 463.93C452.866 469.38 426.019 485.53 418.764 490.083C413.34 493.488 403.599 497.066 397.598 500.525C394.488 491.812 391.296 483.127 388.023 474.474L373.042 517.426C370.622 516.641 369.958 515.935 367.941 514.377C363.346 515.473 359.853 516.969 355.795 519.418C335.184 531.856 314.23 543.728 293.644 556.179C290.876 557.854 290.226 558.818 286.779 558.791C303.574 507.829 320.94 457.057 338.874 406.484Z"/><path fill="white" transform="scale(0.725586 0.725136)" d="M373.042 517.426L388.023 474.474C391.296 483.127 394.488 491.812 397.598 500.525C402.852 513.408 407.358 527.922 411.98 541.197L431.127 594.92L444.322 632.328C447.496 641.075 451.705 651.68 454.126 660.529L324.45 660.486C335.043 630.327 344.643 600.4 354.677 570.071C360.31 553.042 366.483 534.057 373.042 517.426Z"/><defs><linearGradient id="gradient_5" gradientUnits="userSpaceOnUse" x1="725.95569" y1="822.99561" x2="656.58313" y2="570.51263"><stop offset="0" stop-color="#873BD2"/><stop offset="1" stop-color="#3E7FDD"/></linearGradient></defs><path fill="url(#gradient_5)" transform="scale(0.725586 0.725136)" d="M724.272 552.777L724.548 552.726C725.529 549.921 725.043 547.865 725.911 544.534C726.758 554.223 726.279 570.873 726.272 581.032L726.216 646.522L726.183 755.722C726.196 776.986 726.504 799.122 726.075 820.31C726.093 822.838 726.073 825.365 726.017 827.892C718.654 828.033 709.912 828.41 702.655 828.171C698.65 828.721 687.054 828.489 682.76 828.415C673 828.248 662.498 828.202 652.782 827.631C652.089 804.713 651.845 781.784 652.048 758.857C652.053 700.872 653.449 643.997 652.537 585.937L654.23 585.18C656.088 584.147 658.065 582.796 659.936 581.623C678.26 570.132 698.607 561.58 718.419 553.006C719.584 552.502 722.913 552.706 724.272 552.777Z"/><path fill="#7744D3" transform="scale(0.725586 0.725136)" d="M702.655 828.171C715.84 824.44 721.744 828.908 725.128 811.304C725.183 814.428 724.975 817.362 726.075 820.31C726.093 822.838 726.073 825.365 726.017 827.892C718.654 828.033 709.912 828.41 702.655 828.171Z"/><defs><linearGradient id="gradient_6" gradientUnits="userSpaceOnUse" x1="863.9646" y1="262.42126" x2="800.55066" y2="147.90953"><stop offset="0" stop-color="#8512CF"/><stop offset="1" stop-color="#3E9EE6"/></linearGradient></defs><path fill="url(#gradient_6)" transform="scale(0.725586 0.725136)" d="M651.505 174.064C656.597 172.833 664.426 172.086 670.138 170.939C690.28 166.895 709.298 159.995 726.549 148.725C754.505 130.127 774.695 101.953 783.32 69.5079C786.043 59.0081 786.485 50.6724 788.597 40.9919L788.738 40.3654C791.617 68.8781 802.829 101.594 821.965 123.244C825.631 127.196 830.396 131.747 833.761 135.536L834.446 135.993C838.996 139.087 844.963 145.358 849.99 148.795C874.265 165.392 895.972 171.727 924.88 173.446C912.693 175.628 899.699 177.397 887.879 181.058C857.907 190.344 832.261 209.318 814.316 234.963C798.72 257.251 792.366 282.315 788.762 308.691C782.822 259.746 762.198 222.147 720.365 194.905C718.197 194.025 710.411 189.754 707.675 188.402C691.235 180.255 669.757 175.989 651.505 174.064Z"/><path fill="#3FC2E1" transform="scale(0.725586 0.725136)" d="M651.505 174.064C656.597 172.833 664.426 172.086 670.138 170.939C690.28 166.895 709.298 159.995 726.549 148.725C754.505 130.127 774.695 101.953 783.32 69.5079C786.043 59.0081 786.485 50.6724 788.597 40.9919L788.738 40.3654C791.617 68.8781 802.829 101.594 821.965 123.244C825.631 127.196 830.396 131.747 833.761 135.536C832.512 134.946 831.333 134.386 830.052 133.856C814.665 142.889 804.197 149.804 787.392 156.679C766.515 165.221 746.656 180.304 726.758 190.842C725.024 191.819 721.898 194.375 720.365 194.905C718.197 194.025 710.411 189.754 707.675 188.402C691.235 180.255 669.757 175.989 651.505 174.064Z"/><path fill="#45A3E5" transform="scale(0.725586 0.725136)" d="M707.675 188.402C717.05 180.233 752.902 164.364 765.265 158.099C787.009 147.08 802.789 138.73 821.965 123.244C825.631 127.196 830.396 131.747 833.761 135.536C832.512 134.946 831.333 134.386 830.052 133.856C814.665 142.889 804.197 149.804 787.392 156.679C766.515 165.221 746.656 180.304 726.758 190.842C725.024 191.819 721.898 194.375 720.365 194.905C718.197 194.025 710.411 189.754 707.675 188.402Z"/><path fill="#3FC2E1" transform="scale(0.725586 0.725136)" d="M652.574 407.134L726.348 407.182C726.572 449.143 726.51 491.106 726.162 533.067C726.24 535.544 726.592 542.326 725.911 544.534C725.043 547.865 725.529 549.921 724.548 552.726L724.272 552.777C722.913 552.706 719.584 552.502 718.419 553.006C698.607 561.58 678.26 570.132 659.936 581.623C658.065 582.796 656.088 584.147 654.23 585.18L652.537 585.937C652.198 572.774 652.246 559.603 652.68 546.443C651.853 527.724 652.43 511.932 652.484 493.266L652.574 407.134Z"/><path fill="#45A3E5" transform="scale(0.725586 0.725136)" d="M652.68 546.443C655.694 552.827 654.719 577.357 654.23 585.18L652.537 585.937C652.198 572.774 652.246 559.603 652.68 546.443Z"/><path fill="#45A3E5" transform="scale(0.725586 0.725136)" d="M724.272 552.777C724.528 543.06 724.697 533.34 724.778 523.62L725.006 523.539C724.966 526.102 724.715 530.95 725.273 533.2L726.162 533.067C726.24 535.544 726.592 542.326 725.911 544.534C725.043 547.865 725.529 549.921 724.548 552.726L724.272 552.777Z"/><defs><linearGradient id="gradient_7" gradientUnits="userSpaceOnUse" x1="966.87665" y1="387.56216" x2="890.42059" y2="247.37869"><stop offset="0" stop-color="#8212CE"/><stop offset="1" stop-color="#2BC0EA"/></linearGradient></defs><path fill="url(#gradient_7)" transform="scale(0.725586 0.725136)" d="M927.714 225.579C932.817 252.941 939.593 273.337 961.387 293.166C964.9 296.361 970.17 299.135 974.013 302.049L974.816 302.663C977.337 304.073 979.397 305.605 981.924 306.924C995.936 314.24 1008.45 316.177 1023.82 317.979C1003.58 320.749 986.895 324.694 969.739 336.563C944.269 354.183 932.191 381.755 927.705 411.564C924.735 389.457 919.189 369.898 904.108 352.637C902.663 350.983 898.248 346.728 897.367 345.416C874.333 328.038 863.905 321.32 833.844 318.477C837.939 317.452 842.745 316.407 846.886 315.597C892.999 306.573 922.73 272.129 927.714 225.579Z"/><path fill="#7744D3" transform="scale(0.725586 0.725136)" d="M555.452 740.523C559.064 750.874 586.129 820.381 583.315 826.426C576.629 829.797 523.567 828.193 512.626 828C506.166 810.027 499.824 793.97 494.056 775.647C495.928 775.298 501.203 772.756 503.473 771.838C517.011 766.404 530.462 761.866 542.088 752.676C546.704 749.026 550.679 743.539 555.452 740.523Z"/><defs><linearGradient id="gradient_8" gradientUnits="userSpaceOnUse" x1="953.0639" y1="92.24437" x2="930.63782" y2="48.436295"><stop offset="0" stop-color="#594FD8"/><stop offset="1" stop-color="#3D9BE5"/></linearGradient></defs><path fill="url(#gradient_8)" transform="scale(0.725586 0.725136)" d="M858.171 64.9045C861.864 63.7674 867.389 62.8148 871.21 61.9684C895.664 56.5515 912.373 40.5802 921.016 17.335C923.036 11.902 924.43 5.35177 926.756 0C929.325 16.1685 933.093 26.8498 943.28 39.988C959.177 55.9911 970.018 61.1358 991.945 64.6523C964.571 69.9979 945.654 78.4195 933.158 104.822C929.235 114.21 927.922 119.942 925.523 129.778C924.68 122.07 923.462 117.192 920.948 109.796C914.855 94.6737 908.48 88.9059 896.507 78.1771C885.528 70.0957 871.424 66.6761 858.171 64.9045Z"/><defs><linearGradient id="gradient_9" gradientUnits="userSpaceOnUse" x1="913.66602" y1="64.602081" x2="889.84283" y2="25.154226"><stop offset="0" stop-color="#40A3DF"/><stop offset="1" stop-color="#2BF2E9"/></linearGradient></defs><path fill="url(#gradient_9)" transform="scale(0.725586 0.725136)" d="M858.171 64.9045C861.864 63.7674 867.389 62.8148 871.21 61.9684C895.664 56.5515 912.373 40.5802 921.016 17.335C923.036 11.902 924.43 5.35177 926.756 0C929.325 16.1685 933.093 26.8498 943.28 39.988C940.241 44.597 938.726 46.9052 934.425 50.4234C920.416 61.8837 900.796 57.0845 896.507 78.1771C885.528 70.0957 871.424 66.6761 858.171 64.9045Z"/><path fill="#7744D3" transform="scale(0.725586 0.725136)" d="M920.948 109.796C921.182 108.659 921.199 107.833 922.215 107.185C924.198 105.922 930.287 102.981 932.458 103.504L933.158 104.822C929.235 114.21 927.922 119.942 925.523 129.778C924.68 122.07 923.462 117.192 920.948 109.796Z"/></g></svg>