<?xml version="1.0" encoding="UTF-8" standalone="no"?><!DOCTYPE svg PUBLIC "-//W3C//DTD SVG 1.1//EN" "http://www.w3.org/Graphics/SVG/1.1/DTD/svg11.dtd"><svg width="100%" height="100%" viewBox="0 0 16388 5053" version="1.1" xmlns="http://www.w3.org/2000/svg" xmlns:xlink="http://www.w3.org/1999/xlink" xml:space="preserve" xmlns:serif="http://www.serif.com/" style="fill-rule:evenodd;clip-rule:evenodd;stroke-miterlimit:10;"><g><g transform="matrix(0.9,0,0,1,443.833333,0)"><text x="4438.333px" y="3738.75px" style="font-family:'Roboto-Bold', 'Roboto';font-weight:700;font-size:3135.417px;fill:#fff;stroke:#000;stroke-width:4.17px;">Dominus</text></g></g><g id="Layer_x5F_1"><path d="M1587.083,682.917c89.583,-22.5 179.167,22.5 246.25,67.083c44.583,22.5 67.083,44.583 112.083,67.083l44.583,0c44.583,-22.5 89.583,-44.583 112.083,-67.083c67.083,-44.583 134.167,-44.583 223.75,-44.583c89.583,0 89.583,22.5 112.083,44.583c44.583,44.583 89.583,89.583 134.167,134.167c22.5,22.5 44.583,44.583 67.083,44.583c44.583,0 89.583,-22.5 134.167,-22.5c89.583,-22.5 179.167,0 246.25,67.083c44.583,22.5 67.083,67.083 89.583,112.083c22.5,44.583 44.583,89.583 67.083,134.167c22.5,22.5 22.5,44.583 45,67.083c67.083,-22.5 89.583,-22.5 134.167,-22.5c67.083,22.5 112.083,22.5 156.667,67.083c67.083,44.583 134.167,112.083 134.167,179.167l0,201.667c0,44.583 0,89.583 45,112.083c45,44.583 112.083,89.583 134.167,134.167c45,67.083 45,156.667 22.5,223.75c0,44.583 -22.5,112.083 -45,156.667c-22.5,44.583 -45,112.083 -45,179.167c0,67.083 22.5,134.167 0,201.667c0,22.5 -22.5,44.583 -22.5,89.583c-45,89.583 -134.167,156.667 -201.667,223.75c-89.583,89.583 -179.167,156.667 -268.75,246.25l0,22.5c-22.5,112.083 -45,246.25 -112.083,358.333c-44.583,89.583 -112.083,179.167 -201.667,223.75c-44.583,45 -112.083,45 -179.167,45c-134.167,22.5 -268.75,0 -402.917,-22.5c-156.667,89.583 -335.833,134.167 -492.5,112.083c-89.583,-22.5 -156.667,-45 -246.25,-89.583c-22.5,0 -22.5,-22.5 -44.583,-22.5c-67.083,0 -112.083,22.5 -179.167,22.5c-112.083,0 -246.25,0 -358.333,-45c-112.083,-45 -179.167,-134.167 -246.25,-246.25c-67.083,-89.583 -112.083,-223.75 -134.167,-358.333c-156.667,-112.083 -291.25,-246.25 -425.417,-380.833c-22.5,-44.583 -67.083,-89.583 -89.583,-134.167c-22.5,-67.083 0,-156.667 0,-223.75c0,-67.083 0,-89.583 -22.5,-134.167c-22.5,-44.583 -44.583,-89.583 -67.083,-134.167l-0,-201.667c0,-67.5 22.5,-89.583 67.083,-134.167c22.5,-44.583 67.083,-67.083 112.083,-112.083c22.5,-22.5 44.583,-67.083 44.583,-89.583c0,-67.083 -22.5,-134.167 0,-201.667c0,-89.583 44.583,-134.167 89.583,-179.167c44.583,-44.583 112.083,-67.083 156.667,-67.083c67.083,-22.5 112.083,-22.5 134.167,-44.583c22.5,-22.5 44.583,-44.583 44.583,-67.083c22.5,-67.083 44.583,-134.167 89.583,-179.167c44.583,-67.083 134.167,-112.083 201.667,-112.083c67.5,0 112.083,0 156.667,22.5c22.5,0 67.083,22.5 89.583,0c22.5,0 44.583,-22.5 67.083,-44.583c44.583,-44.583 89.583,-89.583 134.167,-112.083c44.583,-44.583 89.583,-67.083 134.167,-67.083l2.083,0.417Zm-22.5,112.083c-89.583,44.583 -134.167,156.667 -223.75,179.167c67.083,380.833 156.667,739.167 246.25,1119.583c44.583,223.75 112.083,470.417 156.667,694.167c67.083,246.25 112.083,515 179.167,761.25l0,-2642.083c-89.583,-22.5 -134.167,-89.583 -223.75,-112.083c-44.583,0 -89.583,-22.5 -134.167,0l-0.417,0Zm627.083,22.5c-67.083,22.5 -112.083,89.583 -179.167,112.083l0,2642.5c22.5,-22.5 201.667,-895.833 223.75,-985.417c134.167,-537.5 246.25,-1052.5 358.333,-1590c-67.083,-22.5 -112.083,-89.583 -156.667,-134.167c-22.5,-22.5 -67.083,-67.083 -112.083,-67.083c-45,0 -89.583,0 -134.167,22.5l0,-0.417Zm-1276.667,246.25c-67.083,67.083 -67.083,179.167 -156.667,246.25c134.167,335.833 291.25,649.583 425.417,985.417c201.667,447.917 425.417,873.333 627.083,1321.25c-134.167,-537.5 -246.25,-1052.5 -380.833,-1590c-67.083,-335.833 -156.667,-671.667 -223.75,-1030c-22.5,0 -89.583,-22.5 -179.167,-22.5c-44.583,22.5 -89.583,44.583 -112.083,89.583Zm1769.583,-67.083c-67.083,358.333 -156.667,716.667 -223.75,1052.5c-112.083,515 -246.25,1030 -358.333,1545.417c156.667,-313.333 313.333,-627.083 447.917,-940.417c201.667,-447.917 425.417,-895.833 604.583,-1366.25c-44.583,-44.583 -67.083,-89.583 -67.083,-134.167c-22.5,-44.583 -44.583,-89.583 -67.083,-134.167c-22.5,-44.583 -67.083,-67.083 -112.083,-67.083c-89.583,22.5 -156.667,44.583 -223.75,44.583l-0.417,-0.417Zm-2150,402.917c-44.583,22.5 -89.583,44.583 -134.167,89.583c-22.5,44.583 0,89.583 0,134.167c0,67.083 22.5,156.667 -22.5,223.75c156.667,223.75 313.333,470.417 492.5,694.167c268.75,358.333 560,716.667 850.833,1075c0,22.5 22.5,22.5 44.583,45c-67.083,-134.167 -134.167,-268.75 -201.667,-402.917c-112.083,-223.75 -223.75,-447.917 -313.333,-671.667c-201.667,-402.917 -380.833,-828.75 -560,-1231.667c-45,22.5 -112.083,44.583 -156.667,44.583l0.417,0Zm2665,45c-313.333,739.167 -671.667,1477.917 -1030,2194.583c201.667,-223.75 380.833,-470.417 560,-694.167c268.75,-358.333 560,-716.667 806.25,-1097.5c-22.5,-22.5 -22.5,-67.083 -22.5,-89.583c0,-67.083 22.5,-134.167 0,-223.75c0,-67.083 -67.083,-112.083 -112.083,-134.167c-67.083,-22.5 -112.083,-44.583 -179.167,-67.083c0,67.083 0,89.583 -22.5,112.083l-0,-0.417Zm-3001.25,604.583c-22.5,44.583 -22.5,89.583 -22.5,156.667c0,67.083 44.583,112.083 67.083,156.667c0,15 7.5,29.861 22.5,44.583c291.25,313.333 582.083,627.083 895.833,918.333c179.167,156.667 335.833,291.25 515,447.917c-22.5,-22.5 -22.5,-45 -44.583,-67.083c-112.083,-134.167 -246.25,-291.25 -358.333,-447.917c-313.333,-447.917 -649.583,-873.333 -962.917,-1321.25c-22.5,22.5 -67.083,44.583 -112.083,112.083Zm3113.333,313.75c-291.25,380.833 -582.083,761.25 -895.833,1142.083c-67.083,89.583 -134.167,156.667 -201.667,246.25c179.167,-134.167 335.833,-268.75 492.5,-402.917c156.667,-134.167 313.333,-291.25 470.417,-447.917c156.667,-156.667 313.333,-335.833 470.417,-492.5c22.5,-44.583 45,-67.083 45,-112.083c22.5,-67.083 45,-134.167 22.5,-201.667c0,-89.583 -67.083,-134.167 -112.083,-156.667c-89.583,134.167 -179.167,268.75 -291.25,425.417Zm-3023.75,178.75l0,134.583c0,22.5 0,44.583 22.5,67.083c67.083,89.583 134.167,156.667 223.75,246.25c156.667,156.667 335.833,268.75 515,402.917c201.667,156.667 425.417,291.25 627.083,425.417c-112.083,-89.583 -223.75,-179.167 -335.833,-268.75c-156.667,-134.167 -313.333,-268.75 -470.417,-425.417c-223.75,-179.167 -402.917,-380.833 -582.083,-582.083Zm2911.667,448.333c-156.667,156.667 -335.833,313.333 -515,470.417c-134.167,112.083 -291.25,246.25 -425.417,358.333c22.5,0 22.5,-22.5 22.5,-22.5c179.167,-112.083 358.333,-223.75 515,-358.333c179.167,-134.167 358.333,-268.75 537.5,-402.917c89.583,-67.083 179.167,-156.667 246.25,-246.25c22.5,-22.5 45,-44.583 45,-89.583l0,-156.667c-134.583,156.667 -268.75,313.333 -425.417,447.917l-0.417,-0.417Zm-2374.167,402.917c22.5,112.083 67.083,201.667 134.167,291.25c44.583,45 112.083,112.083 179.167,112.083c89.583,22.5 179.167,22.5 291.25,0c-22.5,0 -22.5,-22.5 -44.583,-22.5c-201.667,-112.083 -380.833,-246.25 -560,-380.833Zm1680,425.417c89.583,0 201.667,22.5 291.25,0c67.083,-22.5 112.083,-45 156.667,-89.583c89.583,-89.583 134.167,-201.667 156.667,-313.333c-201.667,134.167 -402.917,268.75 -604.583,402.917Z" style="fill:#3e97ff;fill-rule:nonzero;"/></g><g><g><path d="M15631.105,2419.861c-402.374,-129.495 -753.083,-119.97 -1187.309,-11.869c-78.452,-103.093 -3.115,-166.497 -18.486,-320.38c-3.766,-40.28 55.764,-58.953 66.353,-64.858c351.212,-193.4 672.975,-179.576 1083.99,-20.742c52.895,169.707 120.298,249.257 55.422,417.524l0.03,0.325Z" style="fill:#fafafa;"/><g><clipPath id="_clip1"><path d="M15631.105,2419.861c-402.374,-129.495 -753.083,-119.97 -1187.309,-11.869c-78.452,-103.093 -3.115,-166.497 -18.486,-320.38c-3.766,-40.28 55.764,-58.953 66.353,-64.858c351.212,-193.4 672.975,-179.576 1083.99,-20.742c52.895,169.707 120.298,249.257 55.422,417.524l0.03,0.325Z"/></clipPath><g clip-path="url(#_clip1)"><g><path d="M15263.467,1932.896l285.719,45.375c98.67,74.005 118.721,141.271 112.655,206.063c19.316,125.989 59.296,269.707 -37.987,252.588l-430.67,-106.206c133.567,-1.347 157.039,-51.711 140.456,-148.464c-14.393,-83.851 -61.622,-140.383 -70.172,-249.357Z" style="fill:#ebebeb;"/><path d="M15454.608,1979.578l287.516,43.569c95.573,75.933 115.391,144.203 109.771,210.265c19.204,128.293 58.452,274.701 -35.288,256.923l-422.878,-131.51c128.725,-0.567 158.038,-30.505 141.953,-128.943c-14.22,-85.505 -71.987,-139.087 -80.719,-250.009l-0.355,-0.294Z" style="fill:#d8d8d8;"/><path d="M14416.857,2361.686c11.67,12.671 34.143,21.711 50.761,17.208c260.787,-70.586 692.217,-163.025 1169.938,22.34l-6.775,18.656c-201.634,19.835 -761.771,-41.17 -1187.309,-11.869c-16.4,-14.195 -33.336,-41.12 -26.645,-46.661l0.03,0.325Z" style="fill:#d3d3d3;"/></g></g></g><path d="M15631.105,2419.861c-402.374,-129.495 -753.083,-119.97 -1187.309,-11.869c-78.452,-103.093 -3.115,-166.497 -18.486,-320.38c-3.766,-40.28 55.764,-58.953 66.353,-64.858c351.212,-193.4 672.975,-179.576 1083.99,-20.742c52.895,169.707 120.298,249.257 55.422,417.524l0.03,0.325Z" style="fill:none;fill-rule:nonzero;stroke:#050505;stroke-width:13.7px;stroke-linecap:round;stroke-linejoin:round;stroke-miterlimit:4;"/></g><g><path d="M14484.791,2026.345c3.083,-110.716 15.738,-220.689 102.716,-317.295c95.525,-218.974 238.713,-292.655 385.006,-319.112c350.71,-135.682 556.025,24.034 627.245,267.067c122.384,106.85 160.194,279.934 187.197,477.621l-102.781,130.851c-34.258,-89.53 -59.155,-180.591 -149.388,-258.989c-398.421,-143.3 -741.901,-102.01 -1049.963,20.182l-0.03,-0.325Z" style="fill:#c30000;"/><g><clipPath id="_clip2"><path d="M14484.791,2026.345c3.083,-110.716 15.738,-220.689 102.716,-317.295c95.525,-218.974 238.713,-292.655 385.006,-319.112c350.71,-135.682 556.025,24.034 627.245,267.067c122.384,106.85 160.194,279.934 187.197,477.621l-102.781,130.851c-34.258,-89.53 -59.155,-180.591 -149.388,-258.989c-398.421,-143.3 -741.901,-102.01 -1049.963,20.182l-0.03,-0.325Z"/></clipPath><g clip-path="url(#_clip2)"><g><g><path d="M15533.889,2014.436c-30.324,-29.933 -51.786,-59.711 -68.791,-90.889c-26.147,-48.346 -41.757,-99.642 -62.227,-157.366c-66.756,-69.125 -133.973,-122.15 -201.893,-161.675c-80.404,-46.877 -161.646,-74.671 -243.236,-88.669c-0.65,0.061 -1.066,-0.883 -1.126,-1.533c-0.061,-0.65 0.883,-1.066 1.533,-1.126c82.179,13.288 164.04,40.696 245.358,86.832c68.865,39.109 137.381,92.013 205.142,161.371c0.03,0.325 0.741,0.914 0.771,1.239c21.09,57.338 36.994,108.28 63.435,156.27c16.914,30.203 37.991,59.362 67.868,88.026c1.806,1.797 2.11,5.046 -0.012,6.882c-1.797,1.806 -5.046,2.11 -6.882,-0.012l0.061,0.65Z" style="fill:#050505;"/><path d="M15403.187,1762.547c28.557,-48.545 39.673,-90.872 37.094,-128.969c-2.953,-45.599 -25.59,-84.442 -60.298,-119.208c-0.03,-0.325 -0.091,-0.975 -0.091,-0.975c0.325,-0.03 0.975,-0.091 0.975,-0.091c36.007,34.644 59.324,73.752 62.987,119.94c3.289,38.686 -7.055,82.252 -35.46,132.421c-0.823,1.715 -3.066,2.253 -4.487,1.075c-1.715,-0.823 -2.253,-3.066 -1.075,-4.487l0.355,0.294Z" style="fill:#050505;"/><path d="M14585.284,1706.309c19.098,-16.531 37.941,-28.779 57.058,-38.103c30.355,-15.29 61.288,-24.408 96.291,-35.545c0.325,-0.03 0.975,-0.091 1.035,0.559c0.03,0.325 0.091,0.975 -0.559,1.035c-34.263,12.051 -64.809,21.788 -94.424,37.992c-18.406,9.913 -36.57,22.425 -54.663,39.189c-1.208,1.096 -3.512,0.984 -4.608,-0.224c-1.096,-1.208 -0.984,-3.512 0.224,-4.608l-0.355,-0.294Z" style="fill:#050505;"/></g></g></g></g><path d="M14484.791,2026.345c3.083,-110.716 15.738,-220.689 102.716,-317.295c95.525,-218.974 238.713,-292.655 385.006,-319.112c350.71,-135.682 556.025,24.034 627.245,267.067c122.384,106.85 160.194,279.934 187.197,477.621l-102.781,130.851c-34.258,-89.53 -59.155,-180.591 -149.388,-258.989c-398.421,-143.3 -741.901,-102.01 -1049.963,20.182l-0.03,-0.325Z" style="fill:none;fill-rule:nonzero;stroke:#050505;stroke-width:13.7px;stroke-linecap:round;stroke-linejoin:round;stroke-miterlimit:4;"/></g><g><path d="M15860.024,2120.585c-29.354,-9.052 -59.431,-11.81 -88.342,-9.107c-29.56,2.764 -58.219,11.669 -84.473,25.265c-81.178,42.979 -118.812,99.582 -127.63,127.932c-0.762,2.365 26.257,-24.082 17.205,5.273c-9.052,29.354 -11.841,59.106 -9.138,88.017c2.794,29.885 11.375,58.574 25.265,84.473c43.01,81.503 99.582,118.812 128.256,127.6c28.674,8.788 -24.082,-26.257 5.273,-17.205c29.354,9.052 59.106,11.841 88.017,9.138c29.885,-2.794 58.574,-11.375 84.473,-25.265c82.447,-43.426 118.812,-99.582 127.63,-127.932c8.818,-28.35 -26.257,24.082 -17.205,-5.273c9.052,-29.354 11.841,-59.106 9.138,-88.017c-2.764,-29.56 -11.669,-58.219 -25.265,-84.473c-42.949,-80.853 -99.582,-118.812 -128.256,-127.6c-1.685,-0.498 24.082,26.257 -5.273,17.205l0.325,-0.03Z" style="fill:#d6d6d6;"/><g><clipPath id="_clip3"><path d="M15860.024,2120.585c-29.354,-9.052 -59.431,-11.81 -88.342,-9.107c-29.56,2.764 -58.219,11.669 -84.473,25.265c-81.178,42.979 -118.812,99.582 -127.63,127.932c-0.762,2.365 26.257,-24.082 17.205,5.273c-9.052,29.354 -11.841,59.106 -9.138,88.017c2.794,29.885 11.375,58.574 25.265,84.473c43.01,81.503 99.582,118.812 128.256,127.6c4.05,1.26 -24.082,-26.257 5.273,-17.205c29.354,9.052 59.106,11.841 88.017,9.138c29.885,-2.794 58.574,-11.375 84.473,-25.265c82.447,-43.426 118.812,-99.582 127.63,-127.932c1.29,-3.725 -26.257,24.082 -17.205,-5.273c9.052,-29.354 11.841,-59.106 9.138,-88.017c-2.764,-29.56 -11.669,-58.219 -25.265,-84.473c-42.949,-80.853 -99.582,-118.812 -128.256,-127.6c-1.685,-0.498 24.082,26.257 -5.273,17.205l0.325,-0.03Z"/></clipPath><g clip-path="url(#_clip3)"><path d="M15876.092,2085.66c-26.665,-8.32 -39.83,29.611 -66.142,32.071c-26.962,2.521 -53.082,10.534 -76.504,22.882c-74.011,39.032 -107.877,90.368 -115.933,116.352c-8.056,25.985 23.84,-21.89 15.52,4.775c-8.32,26.665 -10.702,53.757 -8.273,79.744c2.521,26.962 10.534,53.082 22.912,76.828c39.032,74.011 90.398,108.202 116.352,115.933c25.954,7.731 -21.89,-23.84 4.775,-15.52c26.665,8.32 53.757,10.702 80.069,8.242c26.962,-2.521 53.082,-10.534 76.828,-22.912c74.955,-39.448 108.202,-90.398 115.933,-116.352c7.731,-25.954 -23.84,21.89 -15.52,-4.775c8.32,-26.665 10.702,-53.757 8.242,-80.069c-2.521,-26.962 -10.534,-53.082 -22.882,-76.504c-39.002,-73.686 -82.013,-109.641 -107.998,-117.697c-25.985,-8.056 -0.747,-15.003 -27.412,-23.324l0.03,0.325Z" style="fill:#fafafa;"/></g></g><path d="M15860.024,2120.585c-29.354,-9.052 -59.431,-11.81 -88.342,-9.107c-29.56,2.764 -58.219,11.669 -84.473,25.265c-81.178,42.979 -118.812,99.582 -127.63,127.932c-0.762,2.365 26.257,-24.082 17.205,5.273c-9.052,29.354 -11.841,59.106 -9.138,88.017c2.794,29.885 11.375,58.574 25.265,84.473c43.01,81.503 99.582,118.812 128.256,127.6c28.674,8.788 -24.082,-26.257 5.273,-17.205c29.354,9.052 59.106,11.841 88.017,9.138c29.885,-2.794 58.574,-11.375 84.473,-25.265c82.447,-43.426 118.812,-99.582 127.63,-127.932c8.818,-28.35 -26.257,24.082 -17.205,-5.273c9.052,-29.354 11.841,-59.106 9.138,-88.017c-2.764,-29.56 -11.669,-58.219 -25.265,-84.473c-42.949,-80.853 -99.582,-118.812 -128.256,-127.6c-1.685,-0.498 24.082,26.257 -5.273,17.205l0.325,-0.03Z" style="fill:none;fill-rule:nonzero;stroke:#050505;stroke-width:13.7px;stroke-linecap:round;stroke-linejoin:round;stroke-miterlimit:4;"/></g></g></svg>