<?xml version="1.0" encoding="utf-8" ?><svg xmlns="http://www.w3.org/2000/svg" xmlns:xlink="http://www.w3.org/1999/xlink" width="956" height="1238" viewBox="0 0 956 1238"><path fill="#FEBEBD" d="M695.868 418.054C711.386 380.165 731.169 359.573 767.276 339.065C771.803 336.494 799.648 323.138 803.006 324.103C817.99 370.404 820.603 426.274 806.574 473.104C804.455 480.177 800.582 491.563 797.215 498.113C797.004 498.531 796.785 498.945 796.561 499.356C819.082 523.081 841.247 557.993 855.217 587.363C866.802 588.122 877.026 589.638 887.665 594.47C924.31 611.113 946.477 649.443 953.503 687.824C954.762 694.699 954.765 702.008 956 708.589L956 722.876L955.897 723.427C954.682 730.15 954.483 737.099 953.043 743.848C947.608 769.32 934.906 793.95 913.042 809.059C901.851 816.792 892.02 819.906 878.899 822.024C877.231 832.786 869.982 853.462 866.069 863.852C846.852 913.379 817.348 958.27 779.504 995.562C769.641 1005.31 760.645 1012.24 750.839 1021.21C749.844 1059.02 748.275 1097.76 751.705 1135.55C748.178 1132.65 743.312 1128.43 739.661 1125.95C732.93 1119.81 719.318 1109.39 711.58 1104.65C704.553 1110.81 699.108 1115.13 693.571 1122.83C690.048 1127.41 688.586 1131.26 687.266 1136.76C677.574 1121.73 670.614 1105.04 663.802 1088.58C662.227 1084.54 660.978 1081.13 659.68 1076.99C651.357 1080.89 643.656 1083.66 635.477 1087.23C635.807 1095.02 636.193 1112.3 637.233 1119.48C637.502 1124.73 638.105 1137.06 639.029 1141.88C639.393 1146.48 639.694 1150.05 640.47 1154.63C640.383 1157.82 641.063 1161.65 641.525 1164.86L641.213 1165.95C639.118 1165.3 634.222 1161.09 632 1159.44C631.212 1158.39 625.359 1153.74 623.968 1152.6C622.126 1150.79 620.317 1149.29 618.351 1147.64C615.046 1144.44 601.776 1130.11 600.059 1128.78L598.822 1129.2L596.462 1131.72C593.582 1134.74 590.8 1137.71 588.538 1141.23C587.665 1142.4 586.847 1143.37 586.216 1144.69C584.74 1146.92 584.225 1147.63 583.254 1150.18C581.689 1152.58 580.845 1155.33 579.861 1158.03C578.423 1163.79 578.14 1165.67 577.729 1171.5C577.101 1170.56 572.439 1163.39 571.84 1162.95C570.665 1160.36 564.958 1150.48 563.338 1148.27C562.065 1145.46 561.141 1143.78 559.589 1141.12C555.332 1132.26 548.734 1119.32 545.874 1110.33C504.05 1115.2 478.285 1116.27 435.911 1112.43C435.314 1121.97 433.717 1137.2 434.131 1146.24L434.067 1146.53C433.319 1153.63 433.606 1165.5 433.603 1172.87C433.048 1172.39 430.159 1169.8 429.752 1169.54C425.618 1164.62 416.176 1156.28 411.225 1151.97C410.463 1151.19 409.331 1150.25 408.495 1149.51C404.644 1145.86 400.283 1142.48 396.143 1139.14C392.336 1141.74 389.841 1143.49 386.305 1146.52L384.065 1148.35L381.396 1150.77C378.897 1153.23 377.497 1154.64 375.356 1157.4L374.847 1158.11C372.288 1161.68 371.15 1165.9 369.214 1167.71C367.65 1166.91 367.852 1166.53 366.785 1164.68C366.195 1162.92 364.626 1159.9 363.769 1158.11C363.396 1157.02 362.483 1155.09 361.99 1153.96L360.105 1149.7C352.597 1130.15 346.303 1112.34 341.835 1091.81C328.84 1087.82 316.276 1081.33 305.204 1078.01C299.403 1098.25 288.14 1134.58 285.091 1154.74C284.19 1158.01 283.816 1159.86 283.302 1163.22C282.825 1164.85 282.434 1166.67 281.466 1168C280.334 1165.24 276.262 1159.07 274.329 1156.74C273.173 1154.42 272.973 1153.81 271.288 1151.92C269.889 1148.71 265.964 1142.16 264.107 1138.67C260.481 1131.88 257.98 1126.56 255.033 1119.44C252.678 1118.68 242.237 1125.22 239.981 1127.09C230.975 1132.6 223.951 1142.68 219.859 1152.27C218.163 1145.97 216.646 1139.63 215.311 1133.25C207.2 1098.24 207.119 1054.36 209.687 1018.55C195.644 1006.36 183.948 995.677 171.236 981.983C124.91 932.081 90.3544 865.517 79.6091 797.934C77.1311 785.507 74.4017 759.713 74.5728 746.584C74.9081 745.344 74.5857 733.796 74.5518 731.764C74.1796 727.261 75.2225 714.965 75.602 709.982C79.2108 665.775 91.0931 622.639 110.631 582.816C147.423 506.55 213.448 443.896 288.906 406.489C308.587 396.733 328.542 389.256 349.218 382.055C352.725 384.445 370.951 397.106 371.869 399.972C374.066 401.216 375.249 402.225 377.181 403.782C378.911 405.69 385.269 413.224 386.88 413.922L391.857 412.719C393.663 412.646 398.306 411.655 400.312 411.279L407.763 410.091C410.497 409.72 413.028 409.431 415.707 408.749L416.853 408.888C428.488 406.397 464.699 403.915 476.85 403.958L482.281 403.968C490.352 403.985 503.204 405.185 509.601 404.982C513.177 405.066 515.109 405.109 518.616 405.712C522.063 406.047 525.508 406.41 528.95 406.801C531.546 407.027 533.925 407.228 536.513 407.618L538.657 407.972L542.598 408.324C546.079 408.866 552.267 409.786 555.516 410.712L563.504 412.313L569.221 413.357C571.559 410.197 575.982 402.48 578.221 398.828C582.701 391.091 587.3 383.423 592.014 375.825C623.95 384.121 667.815 400.494 695.868 418.054Z"/><defs><linearGradient id="gradient_0" gradientUnits="userSpaceOnUse" x1="646.47827" y1="715.50586" x2="826.98181" y2="964.95795"><stop offset="0" stop-color="#D95F5F"/><stop offset="1" stop-color="#F4A3A3"/></linearGradient></defs><path fill="url(#gradient_0)" d="M871.859 823.221C848.977 826.894 828.716 822.318 809.766 808.423C755.064 768.314 740.602 678.439 780.251 623.324C794.964 602.871 812.752 593.751 837.021 590.12C826.401 595.345 820.563 596.34 810.407 604.709C787.885 623.377 776.584 650.913 773.322 679.577C766.778 737.071 798.493 809.212 860.469 820.674C866.349 821.762 872.865 821.39 878.899 822.024C877.231 832.786 869.982 853.462 866.069 863.852C846.852 913.379 817.348 958.27 779.504 995.562C769.641 1005.31 760.645 1012.24 750.839 1021.21C749.844 1059.02 748.275 1097.76 751.705 1135.55C748.178 1132.65 743.312 1128.43 739.661 1125.95C732.93 1119.81 719.318 1109.39 711.58 1104.65C704.553 1110.81 699.108 1115.13 693.571 1122.83C690.048 1127.41 688.586 1131.26 687.266 1136.76C677.574 1121.73 670.614 1105.04 663.802 1088.58C662.227 1084.54 660.978 1081.13 659.68 1076.99C651.357 1080.89 643.656 1083.66 635.477 1087.23C634.358 1067.97 635.028 1048.67 635.796 1029.41C740.437 989.955 820.987 923.81 871.859 823.221Z"/><path fill="#DF7070" d="M659.68 1076.99C694.646 1061.77 720.913 1043.9 750.839 1021.21C749.844 1059.02 748.275 1097.76 751.705 1135.55C748.178 1132.65 743.312 1128.43 739.661 1125.95C732.93 1119.81 719.318 1109.39 711.58 1104.65C704.553 1110.81 699.108 1115.13 693.571 1122.83C690.048 1127.41 688.586 1131.26 687.266 1136.76C677.574 1121.73 670.614 1105.04 663.802 1088.58C662.227 1084.54 660.978 1081.13 659.68 1076.99Z"/><path fill="#F19D9E" d="M323.316 1027.57C392.598 1052.43 454.613 1059.57 527.488 1053.49C532.176 1072.87 538.323 1091.87 545.874 1110.33C504.05 1115.2 478.285 1116.27 435.911 1112.43C435.314 1121.97 433.717 1137.2 434.131 1146.24L434.067 1146.53C433.319 1153.63 433.606 1165.5 433.603 1172.87C433.048 1172.39 430.159 1169.8 429.752 1169.54C425.618 1164.62 416.176 1156.28 411.225 1151.97C410.463 1151.19 409.331 1150.25 408.495 1149.51C404.644 1145.86 400.283 1142.48 396.143 1139.14C392.336 1141.74 389.841 1143.49 386.305 1146.52L384.065 1148.35L381.396 1150.77C378.897 1153.23 377.497 1154.64 375.356 1157.4L374.847 1158.11C372.288 1161.68 371.15 1165.9 369.214 1167.71C367.65 1166.91 367.852 1166.53 366.785 1164.68C366.195 1162.92 364.626 1159.9 363.769 1158.11C363.396 1157.02 362.483 1155.09 361.99 1153.96L360.105 1149.7C352.597 1130.15 346.303 1112.34 341.835 1091.81C328.84 1087.82 316.276 1081.33 305.204 1078.01C310.424 1061.98 316.549 1043.03 323.316 1027.57Z"/><path fill="#DF7070" d="M341.835 1091.81C362.937 1099.05 384.594 1104.55 406.591 1108.27C416.186 1109.91 426.987 1110.8 435.911 1112.43C435.314 1121.97 433.717 1137.2 434.131 1146.24L434.067 1146.53C433.319 1153.63 433.606 1165.5 433.603 1172.87C433.048 1172.39 430.159 1169.8 429.752 1169.54C425.618 1164.62 416.176 1156.28 411.225 1151.97C410.463 1151.19 409.331 1150.25 408.495 1149.51C404.644 1145.86 400.283 1142.48 396.143 1139.14C392.336 1141.74 389.841 1143.49 386.305 1146.52L384.065 1148.35L381.396 1150.77C378.897 1153.23 377.497 1154.64 375.356 1157.4L374.847 1158.11C372.288 1161.68 371.15 1165.9 369.214 1167.71C367.65 1166.91 367.852 1166.53 366.785 1164.68C366.195 1162.92 364.626 1159.9 363.769 1158.11C363.396 1157.02 362.483 1155.09 361.99 1153.96L360.105 1149.7C352.597 1130.15 346.303 1112.34 341.835 1091.81Z"/><path fill="#FACBCA" d="M187.279 946.628C185.688 941.434 171.581 924.229 167.621 918.353C160.212 907.243 153.444 895.718 147.35 883.836C102.4 795.974 100.547 692.286 142.327 602.874C173.687 537.213 224.628 482.879 288.143 447.345C299.969 440.596 318.342 431.138 331.172 426.421C332.014 426.112 332.86 425.815 333.71 425.529C245.156 477.099 179.145 555.798 152.877 655.819C129.571 745.257 142.909 840.294 189.936 919.867C199.431 936.098 207.3 946.486 218.002 961.372C217.594 964.235 217.275 967.578 216.338 970.261C205.756 962.564 196.808 955.48 187.279 946.628Z"/><path fill="#FACBCA" d="M695.868 418.054C711.386 380.165 731.169 359.573 767.276 339.065C771.803 336.494 799.648 323.138 803.006 324.103C817.99 370.404 820.603 426.274 806.574 473.104C804.455 480.177 800.582 491.563 797.215 498.113C797.004 498.531 796.785 498.945 796.561 499.356C789.519 491.722 783.029 484.802 775.556 477.594C751.607 454.472 724.833 434.467 695.868 418.054Z"/><path fill="#DF7070" d="M803.006 324.103C817.99 370.404 820.603 426.274 806.574 473.104C804.455 480.177 800.582 491.563 797.215 498.113C797.004 498.531 796.785 498.945 796.561 499.356C789.519 491.722 783.029 484.802 775.556 477.594C794.919 437.612 802.36 399.196 803.545 354.743C803.82 344.415 802.867 334.321 803.006 324.103Z"/><path fill="#F19D9E" d="M79.6091 797.934C82.0296 800.593 94.892 829.091 98.2818 835.458C117.058 870.351 140.975 902.223 169.231 930.006C173.546 934.291 182.415 943.087 187.279 946.628C196.808 955.48 205.756 962.564 216.338 970.261C215.696 977.581 213.756 987.505 212.694 995.053C211.695 1002.15 210.972 1011.89 209.687 1018.55C195.644 1006.36 183.948 995.677 171.236 981.983C124.91 932.081 90.3544 865.517 79.6091 797.934Z"/><path fill="#461416" d="M482.281 403.968C490.352 403.985 503.204 405.185 509.601 404.982C513.177 405.066 515.109 405.109 518.616 405.712C522.063 406.047 525.508 406.41 528.95 406.801C531.546 407.027 533.925 407.228 536.513 407.618L538.657 407.972L542.598 408.324C546.079 408.866 552.267 409.786 555.516 410.712L563.504 412.313L569.221 413.357C572.258 413.972 575.278 414.339 577.952 415.81L578.513 416.955L575.065 428.967C522.046 413.084 460.631 414.023 406.507 423.285C395.307 425.202 378.576 428.515 367.758 431.983L364.139 419.438C366.295 416.79 382.872 414.278 386.88 413.922L391.857 412.719C393.663 412.646 398.306 411.655 400.312 411.279L407.763 410.091C410.497 409.72 413.028 409.431 415.707 408.749L416.853 408.888C428.488 406.397 464.699 403.915 476.85 403.958L482.281 403.968Z"/><path fill="#782B3A" d="M371.869 399.972C374.066 401.216 375.249 402.225 377.181 403.782C378.911 405.69 385.269 413.224 386.88 413.922C382.872 414.278 366.295 416.79 364.139 419.438C362.722 414.265 360.817 408.484 359.24 403.299L371.869 399.972Z"/><path fill="#782B3A" d="M578.221 398.828C581.2 399.652 581.028 399.061 582.333 401.01C582.536 406.285 579.883 411.292 578.513 416.955L577.952 415.81C575.278 414.339 572.258 413.972 569.221 413.357C571.559 410.197 575.982 402.48 578.221 398.828Z"/><path fill="#DF7070" d="M294.783 462.996C298.066 461.785 301.167 460.261 304.479 459.107C365.127 437.989 440.83 469.768 489.85 505.742C452.984 541.265 424.765 584.15 421.477 636.303C375.582 602.837 306.132 543.807 294.919 484.209C293.919 478.893 294.192 469.269 293.546 466.258L294.783 462.996Z"/><path fill="#C45A5E" d="M376.928 499.559C379.649 499.089 387.481 499.458 390.268 499.741C416.471 502.409 438.079 514.129 459.563 528.334C442.64 544.152 430.026 563.403 424.165 585.897C423.234 591.159 422.792 594.042 422.487 599.448C411.54 592.163 395.072 578.311 386.021 568.768C368.176 549.956 352.917 532.536 353.009 505.456C361.719 501.501 367.443 500.282 376.928 499.559Z"/><path fill="#782B3A" d="M627.231 544.343C643.517 543.733 657.277 556.301 658.138 572.57C658.999 588.839 646.64 602.787 630.382 603.898C619.639 604.633 609.334 599.522 603.419 590.528C597.504 581.533 596.897 570.05 601.83 560.481C606.763 550.913 616.471 544.745 627.231 544.343Z"/><path fill="#FEFEFE" d="M625.7 550.391C630.361 549.321 635.016 552.204 636.133 556.853C637.249 561.502 634.412 566.184 629.773 567.346C625.068 568.526 620.304 565.641 619.171 560.925C618.038 556.21 620.972 551.476 625.7 550.391Z"/><path fill="#782B3A" d="M701.849 495.963C716.629 494.4 729.893 505.071 731.527 519.839C733.162 534.607 722.551 547.918 707.787 549.623C692.922 551.34 679.495 540.644 677.85 525.776C676.204 510.907 686.968 497.536 701.849 495.963Z"/><path fill="#FEFEFE" d="M701.817 501.433C704.564 500.627 707.532 501.369 709.576 503.373C711.621 505.377 712.421 508.329 711.669 511.09C710.918 513.852 708.731 515.991 705.953 516.683C701.778 517.722 697.539 515.233 696.414 511.083C695.288 506.933 697.689 502.644 701.817 501.433Z"/><path fill="#C45A5E" d="M824.242 677.591C850.742 672.607 862.657 741.448 838.733 750.17C816.495 752.478 801.94 692.307 824.242 677.591Z"/><path fill="#782B3A" d="M824.242 677.591C850.742 672.607 862.657 741.448 838.733 750.17L837.382 749.376C838.504 748.071 842.781 742.41 843.356 741.044C848.267 729.368 847.03 712.155 842.902 700.616C838.854 689.298 834.58 682.725 824.242 677.591Z"/><path fill="#C45A5E" d="M901.499 664.994C923.257 658.325 933.21 723.958 912.041 724.843C894.622 719.776 887.665 677.438 901.499 664.994Z"/><path fill="#782B3A" d="M901.499 664.994C923.257 658.325 933.21 723.958 912.041 724.843C912.248 723.266 916.692 718.236 917.408 714.544C920.654 697.8 917.387 674.433 901.499 664.994Z"/><path fill="#C45A5E" d="M830.837 837.74C834.953 837.521 842.224 843.623 841.974 848.186C838.592 851.067 830.615 848.738 826.192 849.172C823.537 849.432 820.981 850.519 818.601 851.665C809.965 855.825 802.202 861.937 794.29 867.284C788.798 870.995 783.001 874.36 777.611 878.194C773.32 881.246 769.493 885.137 764.928 887.768C731.834 906.842 707.749 850.301 692.901 846.985C691.657 846.707 691.037 847.416 689.984 848.029C689.017 848.737 688.039 849.429 687.05 850.107C684.907 851.557 684.465 851.691 682.184 851.25C679.469 846.017 688.413 839.948 692.726 838.213C713.887 847.829 725.374 876.011 748.023 882.545C763.014 886.869 778.448 871.629 789.402 864.125C802.951 854.924 816.768 846.125 830.837 837.74Z"/><path fill="#FACBCA" d="M293.546 466.258C292.793 463.187 292.636 464.233 293.513 461.719L294.47 461.719L294.783 462.996L293.546 466.258Z"/><path fill="#8DCC9A" d="M588.089 44.8904L700.676 100.261C660.843 140.378 650.668 182.207 635.185 235.102C644.227 242.23 653.823 251.147 662.693 258.689C667.427 262.715 677.503 271.095 681.404 275.29C638.247 301.741 617.596 332.408 592.014 375.825C587.3 383.423 582.701 391.091 578.221 398.828C575.982 402.48 571.559 410.197 569.221 413.357L563.504 412.313L555.516 410.712C552.267 409.786 546.079 408.866 542.598 408.324L538.657 407.972L536.513 407.618C533.925 407.228 531.546 407.027 528.95 406.801C525.508 406.41 522.063 406.047 518.616 405.712C515.109 405.109 513.177 405.066 509.601 404.982C503.204 405.185 490.352 403.985 482.281 403.968L476.85 403.958C464.699 403.915 428.488 406.397 416.853 408.888L415.707 408.749C413.028 409.431 410.497 409.72 407.763 410.091L400.312 411.279C398.306 411.655 393.663 412.646 391.857 412.719L386.88 413.922C385.269 413.224 378.911 405.69 377.181 403.782C375.249 402.225 374.066 401.216 371.869 399.972C370.951 397.106 352.725 384.445 349.218 382.055C300.284 349.302 241.347 324.322 205.128 277.611C201.219 272.569 195.001 263.606 192.348 257.959C211.959 237.113 230.213 213.142 249.503 191.821C257.53 182.95 266.648 172.6 274.016 163.268C275.221 165.287 276.446 167.293 277.691 169.287C297.313 200.62 324.547 221.925 355.765 240.874C359.858 243.359 370.284 250.904 374.632 251.902C370.653 243.678 366.387 218.576 365.213 208.846C364.552 203.366 364.524 197.574 363.244 191.826C371.337 186.971 382.639 181.444 391.18 176.981L446.664 147.988C449.769 180.757 455.498 209.952 469.34 240.274C476.344 222.954 491.383 204.389 504.551 191.261C508.923 193.326 513.448 195.723 517.778 197.925C532.54 143.538 546.951 85.3267 588.089 44.8904Z"/><path fill="#6CA67B" d="M192.348 257.959C211.959 237.113 230.213 213.142 249.503 191.821C257.53 182.95 266.648 172.6 274.016 163.268C275.221 165.287 276.446 167.293 277.691 169.287C297.313 200.62 324.547 221.925 355.765 240.874C359.858 243.359 370.284 250.904 374.632 251.902C375.269 257.029 380.678 269.322 382.549 275.32C378.64 270.361 374.766 265.826 368.554 263.377C330.85 248.512 284.746 303.851 309.597 337.323C314.346 343.72 322.691 347.506 330.513 348.039C336.369 348.94 343.361 346.302 345.214 347.042C346.122 348.546 346.371 349.049 347.07 350.666C350.338 359.06 354.166 364.66 357.411 372.081C360.412 376.763 376.116 400.195 377.181 403.782C375.249 402.225 374.066 401.216 371.869 399.972C370.951 397.106 352.725 384.445 349.218 382.055C300.284 349.302 241.347 324.322 205.128 277.611C201.219 272.569 195.001 263.606 192.348 257.959Z"/><path fill="#7BB783" d="M347.07 350.666C350.338 359.06 354.166 364.66 357.411 372.081C355.186 370.978 348.784 366.493 346.277 364.83C340.266 360.876 334.221 356.974 328.142 353.124C334.578 353.227 341.031 353.047 347.07 350.666Z"/><path fill="#7BB783" d="M287.215 201.739C288.799 202.759 292.584 207.02 294.007 208.568C311.242 227.308 332.314 241.23 353.815 254.744C344.791 255.966 337.902 257.571 329.809 262.127C309.054 273.811 293.706 298.185 297.177 322.458C298.02 328.354 299.986 332.817 302.909 337.963C295.872 333.85 288.918 329.599 282.05 325.212C257.625 309.812 241.952 297.471 222.716 276.425C223.989 275.908 225.24 275.337 226.464 274.713C236.191 269.708 243.355 255.173 237.841 244.699C235.633 240.505 233.106 240.353 228.989 239.163L228.755 238.446C232.09 233.123 251.58 211.623 256.793 205.317C256.771 228.086 272.648 224.904 283.196 210.596C285.001 208.147 286.142 204.625 287.215 201.739Z"/><path fill="#6CA67B" d="M281.659 250.552C287.969 248.696 294.583 252.34 296.384 258.665C298.184 264.99 294.48 271.569 288.138 273.313C281.874 275.035 275.392 271.389 273.614 265.142C271.836 258.896 275.426 252.384 281.659 250.552Z"/><path fill="#8DCC9A" d="M342.675 310.861C375.348 292.763 409.87 274.962 442.913 257.335C451.756 306.129 475.521 337.061 505.463 375.675C512.785 385.118 522.409 397.043 528.95 406.801C525.508 406.41 522.063 406.047 518.616 405.712C515.109 405.109 513.177 405.066 509.601 404.982C503.204 405.185 490.352 403.985 482.281 403.968L476.85 403.958C464.699 403.915 428.488 406.397 416.853 408.888L415.707 408.749C413.028 409.431 410.497 409.72 407.763 410.091L400.312 411.279C398.306 411.655 393.663 412.646 391.857 412.719C390.884 409.721 380.045 396.148 377.497 392.285C359.201 364.545 348.818 343.308 342.675 310.861Z"/><path fill="#6CA67B" d="M342.675 310.861C375.348 292.763 409.87 274.962 442.913 257.335C451.756 306.129 475.521 337.061 505.463 375.675C512.785 385.118 522.409 397.043 528.95 406.801C525.508 406.41 522.063 406.047 518.616 405.712C515.109 405.109 513.177 405.066 509.601 404.982C503.204 405.185 490.352 403.985 482.281 403.968L476.85 403.958C464.699 403.915 428.488 406.397 416.853 408.888L415.707 408.749C413.028 409.431 410.497 409.72 407.763 410.091C408.459 406.972 409.092 403.654 410.138 400.638C419.811 372.761 453.119 354.9 481.694 361.632C483.397 362.025 485.085 362.481 486.754 362.999C468.486 339.151 453.589 316.543 443.434 288.179C430.3 305.143 403.567 306.97 413.614 281.109C400.548 288.123 386.879 295.172 373.975 302.345C382.449 306.958 384.307 313.793 379.019 322.167C373.611 330.731 365.858 334.676 355.896 335.108C367.466 365.296 380.555 385.515 400.312 411.279C398.306 411.655 393.663 412.646 391.857 412.719C390.884 409.721 380.045 396.148 377.497 392.285C359.201 364.545 348.818 343.308 342.675 310.861Z"/><path fill="#8DCC9A" d="M415.707 408.749L414.536 408.198C413.744 403.797 419.213 394.675 421.731 390.862C435.378 370.193 471.422 357.624 492.991 372.578C499.265 376.932 503.557 383.593 504.928 391.104C505.56 394.763 505.894 399.678 504.601 403.207L503.579 404.223L502.67 404.092C501.668 400.522 502.931 392.648 502.341 390.931C489.466 353.448 435.371 369.073 421.184 397.435C418.764 402.272 418.126 404.303 416.853 408.888L415.707 408.749Z"/><path fill="#8DCC9A" d="M476.85 403.958L476.698 403.293C474.934 395.917 468.45 389.478 462.388 397.813C461.927 398.447 461.497 402.724 461.345 403.812C459.866 404.721 457.016 404.636 455.497 403.831C454.636 395.803 457.841 389.581 466.546 388.659C472.012 388.08 474.032 389.934 477.871 393.206C480.008 391.94 481.574 390.63 483.939 390.798L485.334 391.592C485.452 393.543 485.553 392.797 484.429 394.662L480.18 397.103C480.932 399.385 481.726 401.631 482.281 403.968L476.85 403.958Z"/><path fill="#8DCC9A" d="M510.467 394.122C512.347 396.2 518.352 403.237 518.616 405.712C515.109 405.109 513.177 405.066 509.601 404.982C509.94 401.34 510.282 397.781 510.467 394.122Z"/><path fill="#6CA67B" d="M416.228 332.797C422.543 331.072 429.057 334.803 430.764 341.12C432.471 347.437 428.72 353.939 422.396 355.626C416.098 357.307 409.627 353.576 407.928 347.285C406.228 340.994 409.941 334.515 416.228 332.797Z"/><path fill="#6CA67B" d="M590.294 53.9099L659.051 87.5363C667.045 91.4533 685.296 99.7544 692.12 103.931C663.542 133.36 650.608 164.954 638.681 203.854C636.693 210.337 631.964 224.905 630.781 231.178C629.018 230.006 626.415 227.581 624.74 226.115C640.973 187.478 587.641 153.883 554.226 168.12C536.951 175.481 532.977 190.355 537.441 207.466C535.354 206.561 533.193 205.889 531.724 204.248L530.579 200.623C529.336 201.379 529.39 201.42 528.453 202.561C526.521 202.752 524.728 201.462 522.937 200.505C537.8 149.619 551.086 91.8696 590.294 53.9099Z"/><path fill="#8DCC9A" d="M615.489 74.3464C627.832 79.6284 643.548 87.976 655.852 94.0639C645.264 96.4955 636.641 102.401 646.156 113.859C651.421 120.199 659.539 121.786 667.491 122.198C648.034 151.153 643.301 168.719 632.065 200.663C626.936 187.057 621.584 180.082 609.927 171.187C587.522 156.29 558.616 152.256 538.362 172.854C549.353 136.896 556.778 110.563 578.197 78.9051C589.199 92.5642 616.84 96.602 615.489 74.3464Z"/><path fill="#6CA67B" d="M604.47 124.219C608.553 122.957 613 123.998 616.099 126.941C619.198 129.883 620.466 134.269 619.416 138.411C618.366 142.553 615.161 145.805 611.034 146.917C604.812 148.594 598.394 144.979 596.604 138.79C594.814 132.602 598.313 126.12 604.47 124.219Z"/><path fill="#6CA67B" d="M569.357 204.745C574.042 201.495 579.074 197.684 584.089 195.155C586.736 193.821 587.109 194.259 589.476 195.102C591.831 197.822 600.158 205.239 603.196 206.839C604.529 209.176 619.762 222.669 622.735 223.593C623.428 225.083 623.343 225.119 624.74 226.115C626.415 227.581 629.018 230.006 630.781 231.178C632.329 232.654 633.484 233.767 635.185 235.102C644.227 242.23 653.823 251.147 662.693 258.689C667.427 262.715 677.503 271.095 681.404 275.29C638.247 301.741 617.596 332.408 592.014 375.825C587.3 383.423 582.701 391.091 578.221 398.828C575.982 402.48 571.559 410.197 569.221 413.357L563.504 412.313L555.516 410.712C552.267 409.786 546.079 408.866 542.598 408.324C544.639 406.711 547.941 393.952 548.367 391.054C548.68 390.196 549.689 387.714 550.107 387.653C558.761 386.29 566.923 386.223 573.82 379.961C591.932 363.517 583.061 338.502 569.68 322.809C570.243 320.931 571.195 318.607 571.901 316.732C574.77 309.362 577.127 304.048 580.607 296.94C583.42 290.688 587.936 283.104 591.52 277.288C598.462 265.785 607.151 256.012 616.506 246.482C611.315 243.909 606.14 241.306 600.979 238.674C587.944 232.484 574.987 226.131 562.111 219.617L555.429 216.473C557.905 214.024 561.808 210.822 564.535 208.385L569.357 204.745Z"/><path fill="#7BB783" d="M600.979 238.674C604.578 234.974 604.899 233.916 606.14 228.858C617.551 238.36 628.518 248.32 639.825 257.791C635.925 257.836 628.489 257.859 626.23 261.178C616.996 274.738 634.914 285.034 643.71 288.291C618.951 310.567 607.822 327.193 589.861 354.92C588.39 342.744 582.49 323.896 571.901 316.732C574.77 309.362 577.127 304.048 580.607 296.94C583.42 290.688 587.936 283.104 591.52 277.288C598.462 265.785 607.151 256.012 616.506 246.482C611.315 243.909 606.14 241.306 600.979 238.674Z"/><path fill="#6CA67B" d="M591.52 277.288C600.278 288.518 588.775 301.387 580.607 296.94C583.42 290.688 587.936 283.104 591.52 277.288Z"/><path fill="#7BB783" d="M569.357 204.745C574.042 201.495 579.074 197.684 584.089 195.155C586.736 193.821 587.109 194.259 589.476 195.102C591.831 197.822 600.158 205.239 603.196 206.839C604.529 209.176 619.762 222.669 622.735 223.593C623.428 225.083 623.343 225.119 624.74 226.115C626.415 227.581 629.018 230.006 630.781 231.178C632.329 232.654 633.484 233.767 635.185 235.102C644.227 242.23 653.823 251.147 662.693 258.689C667.427 262.715 677.503 271.095 681.404 275.29C638.247 301.741 617.596 332.408 592.014 375.825C587.3 383.423 582.701 391.091 578.221 398.828C575.982 402.48 571.559 410.197 569.221 413.357L563.504 412.313C566.274 406.256 578.049 388.449 582.293 381.39C608.965 337.037 628.099 304.559 672.525 276.54C664.154 268.603 652.382 258.988 643.511 251.304L586.681 202.144C576.73 208.314 571.196 212.227 562.111 219.617L555.429 216.473C557.905 214.024 561.808 210.822 564.535 208.385L569.357 204.745Z"/><path fill="#7BB783" d="M548.367 391.054C552.952 393.789 564.712 390.467 569.484 388.707C564.962 396.084 560.466 403.627 555.516 410.712C552.267 409.786 546.079 408.866 542.598 408.324C544.639 406.711 547.941 393.952 548.367 391.054Z"/><path fill="#6CA67B" d="M472.558 248.697C480.292 231.81 492.998 212.931 506.495 200.024C540.058 216.615 574.809 234.067 608.6 250.049C573.283 286.283 561.818 326.139 547.953 373.725C546.23 379.64 538.909 402.303 538.169 406.853L538.657 407.972L536.513 407.618C534.911 405.033 534.147 403.793 532.166 401.451L537.4 384.676C534.392 386.585 530.797 389.124 527.476 390.134C526.386 388.838 526.722 389.302 526.716 387.156C528.802 382.605 533.626 381.84 536.25 378.789C556.622 355.099 535.014 326.801 512.315 316.433C508.946 314.919 505.465 313.67 501.902 312.697L498.64 305.823C522.715 311.273 539.65 323.592 548.431 347.115C557.139 319.679 566.909 292.101 583.787 268.417C560.964 267.582 545.669 245.872 571.727 240.449C563.955 235.463 541.051 224.98 531.456 220.266C534.396 242.023 505.687 239.648 494.47 225.007C487.518 235.573 481.562 245.259 476.485 256.927C474.947 254.001 473.867 251.732 472.558 248.697Z"/><path fill="#6CA67B" d="M541.583 209.627C534.879 192.584 538.637 177.811 556.448 170.499C586.731 158.067 635.828 188.72 622.735 223.593C619.762 222.669 604.529 209.176 603.196 206.839C600.158 205.239 591.831 197.822 589.476 195.102C587.109 194.259 586.736 193.821 584.089 195.155C579.074 197.684 574.042 201.495 569.357 204.745L564.535 208.385C561.808 210.822 557.905 214.024 555.429 216.473L541.583 209.627Z"/><path fill="#8DCC9A" d="M562.404 191.66C564.521 189.056 566.209 186.173 569.351 185.773C577.53 193.046 557.649 193.579 569.357 204.745L564.535 208.385C564.232 208.034 563.936 207.677 563.645 207.316C560.342 203.176 560.441 200.603 561.033 195.706L556.829 193.669C555.526 191.792 555.694 192.582 555.697 190.516L556.777 189.703C559.014 189.369 560.332 190.495 562.404 191.66Z"/><path fill="#8DCC9A" d="M589.476 195.102C597.05 196.605 600.094 197.84 602.755 205.568L603.035 206.361L603.196 206.839C600.158 205.239 591.831 197.822 589.476 195.102Z"/><path fill="#6CA67B" d="M444.418 156.924C445.111 157.791 446.948 175.522 447.399 178.518C449.316 191.156 452.253 203.618 456.183 215.782C472.962 269.291 504.952 317.172 517.9 372.081C519.027 376.861 519.997 381.718 520.971 386.533C519.337 384.636 514.629 379.387 514.034 377.234C506.823 351.141 498.091 325.479 485.807 301.146C485.407 306.037 481.831 326.154 476.688 327.032L475.769 325.636C475.563 323.894 478.31 317.866 479.107 315.803C486.381 296.974 480.207 270.771 457.248 267.85C453.87 267.42 448.767 267.815 447.183 264.563C447.961 261.22 448.763 261.531 451.808 261.065C459.82 261.604 463.191 262.784 470.152 266.613C457.401 236.594 450.432 219.856 443.504 187.473C430.132 204.304 414.637 196.949 422.392 176.15L392.452 191.735C402.334 200.472 396.941 214.735 386.962 220.258C383.62 222.108 381.446 221.931 377.79 222.022C381.446 241.904 386.678 256.422 393.321 275.235C392.538 276.783 390.505 277.587 388.897 278.471C376.655 246.538 372.622 229.513 369.317 196.179C376.761 191.722 388.37 186.073 396.338 181.908C412.317 173.49 428.344 165.162 444.418 156.924Z"/><path fill="#6CA67B" d="M353.047 263.795C366.876 262.381 377.023 269.58 382.136 282.107C379.273 283.568 365.283 291.223 363.361 291.868C362.034 291.029 362.005 290.585 361.429 289.131C362.161 286.38 362.922 287.233 364.946 284.42C364.672 282.549 363.969 281.725 362.174 281.45C360.088 282.502 358.996 284.415 357.557 286.347C342.998 281.004 335.666 290.627 339.908 304.596L334.589 307.44C335.034 311.331 336.065 315.917 336.836 319.816C334.862 318.515 333.419 317.877 331.865 316.003C329.506 313.158 328.72 310.997 324.794 311.15C321.832 313.618 325.929 317.383 327.893 319.694C326.284 321.663 324.9 323.213 323.693 325.48C324.914 326.463 324.965 326.514 326.374 327.186C328.999 326.273 329.456 324.959 331.514 322.602C334.038 323.571 335.173 323.741 337.764 324.205C339.752 331.151 341.674 337.069 344.061 343.894C286.482 356.818 297.521 270.379 353.047 263.795Z"/><path fill="#6CA67B" d="M503.516 316.32C528.783 323.314 555.647 354.371 532.795 378.061C530.5 379.928 528.154 381.279 525.635 382.819C524.499 377.821 522.019 369.784 521.572 365.163C523.758 364.117 524.443 363.679 524.893 361.229C523.085 359.836 521.424 359.07 519.411 358.021C518.779 349.238 516.458 347.308 513.017 339.4C509.733 331.852 506.614 323.967 503.516 316.32Z"/><path fill="#6CA67B" d="M568.291 326.228C568.425 326.318 568.558 326.407 568.692 326.496C580.145 337.967 586.056 359.847 575.605 373.597C569.964 381.019 563.292 383.156 555.331 384.266C553.41 384.485 552.871 384.69 551.094 384.111C551.084 381.125 555.781 366.109 556.829 362.632C558.999 364.596 559.791 365.889 562.682 364.876C563.517 361.539 561.007 360.146 558.696 358.185C561.664 346.077 564.054 338.059 568.291 326.228Z"/><path fill="#6CA67B" d="M449.321 270.179C480.034 269.062 486.059 299.009 473.46 322.341C471.095 319.228 462.579 305.532 464.069 299.918C464.187 299.473 467.767 297.958 468.46 295.651C467.763 293.868 468.289 294.635 466.689 293.369C465.34 294.088 464.261 294.632 462.867 295.258C461.55 294.784 458.446 290.831 455.948 289.126C453.297 282.326 451.469 277.169 449.321 270.179Z"/><path fill="#6CA67B" d="M520.704 270.485C524.821 269.202 529.309 270.264 532.413 273.255C535.518 276.246 536.745 280.691 535.614 284.85C534.484 289.01 531.176 292.223 526.984 293.232C520.791 294.724 514.53 291.036 512.835 284.896C511.14 278.757 514.622 272.38 520.704 270.485Z"/><path fill="#6CA67B" d="M421.63 227.161C433.43 229.153 435.183 245.482 424.884 251.149L424.252 251.089C412.469 250.061 410.055 232.794 421.63 227.161Z"/><path fill="#6CA67B" d="M349.425 290.061C354.634 290.402 355.023 290.996 358.74 294.53L351.722 298.233C349.888 299.351 349.246 299.712 347.244 300.471C345.15 300.112 346.036 300.576 344.554 298.926C343.806 294.722 346.128 292.208 349.425 290.061Z"/><path fill="#323031" fill-opacity="0.14117648" d="M433.603 1172.87C433.606 1165.5 433.319 1153.63 434.067 1146.53C434.252 1148.61 434.456 1150.48 434.435 1152.58L434.53 1157.85L435.433 1155.63C438.918 1155.92 441.47 1160.37 446.203 1159.84C450.732 1160.46 468.236 1160.44 473.299 1160.35C477.672 1161.57 496.91 1160.41 502.84 1160.62C514.555 1161.03 527.362 1160.35 539.19 1160.31C544.419 1160.3 554.692 1162.05 559.056 1161.43L559.149 1161.04C557.035 1159.64 554.642 1159.54 552.069 1159.14C554.794 1159.01 557.053 1159.3 558.93 1157.02C559.407 1154.18 559.438 1155.35 558.339 1152.33L561.464 1151.96C560.895 1154.76 560.808 1155.58 562.09 1158.08C563.548 1158.7 563.962 1158.46 565.504 1158.13L566.713 1158.73L565.483 1160.78C566.707 1162.89 569.46 1162.52 571.84 1162.95C572.439 1163.39 577.101 1170.56 577.729 1171.5C578.14 1165.67 578.423 1163.79 579.861 1158.03L581.218 1157.28C582.392 1159.37 583.745 1159.97 585.7 1161.25L585.243 1161.15C587.444 1162.44 589.263 1162.64 591.806 1162.88C594.736 1164.19 621.226 1165.62 623.529 1164.62L621.875 1163.68L622.843 1162.23C622.154 1161.46 621.5 1160.8 620.78 1160.07C627.142 1158.27 626.149 1160.85 629.457 1164.82C629.405 1164.76 635.118 1166.09 635.557 1166.17L635.82 1165.64C634.564 1164.44 633.437 1163.13 631.952 1162.34L630.895 1160.12L632 1159.44C634.222 1161.09 639.118 1165.3 641.213 1165.95L641.525 1164.86C642.749 1163.12 643.044 1162.64 644.919 1161.64C645.603 1161.83 646.054 1161.99 646.623 1162.42C651.213 1165.85 693.086 1165.43 696.658 1176.12C696.358 1177.63 696.112 1178.55 694.847 1179.56C692.727 1181.25 689.559 1181.77 687.201 1183.14C678.249 1188.34 663.137 1185.22 655.043 1190.93C648.694 1188.37 636.357 1192.29 634.502 1190.72L634.577 1189.47C632.444 1189.1 630.255 1193.37 626.96 1189.38L627.87 1188.77C614.154 1188.45 597.527 1191.01 583.659 1190.56L584.14 1190.38C579.344 1190.7 575.45 1191.41 570.767 1191.72C568.047 1191.91 563.202 1190.99 561.144 1191.55C559.788 1190.91 548.023 1191.73 545.445 1191.83L549.965 1192.18C518.078 1192.63 485.927 1191.74 454.014 1192.36C448.179 1192.48 442.462 1192.24 436.589 1192.53C434.821 1191.78 378.187 1189.68 369.438 1188.72C369.096 1188.56 348.607 1186.69 347.414 1186.78C352.1 1188.58 351.394 1187.17 353.866 1190.61C351.493 1190.07 351.982 1188.69 349.482 1188.91L340.21 1189.73C340.026 1189.52 338.619 1188.09 338.336 1188.04C328.954 1186.64 293.431 1185.91 290.408 1176.44C292.715 1166.89 325.797 1166.9 334.734 1165.09C334.734 1165.09 336.548 1166.11 336.774 1166.23C338.319 1165.62 337.751 1166.12 338.568 1164.72C340.965 1166.53 339.926 1165.98 343.337 1166.46L340.658 1167.46L340.603 1168.14C342.588 1168.28 342.891 1168.41 344.721 1167.79C346.726 1167.48 348.617 1167.16 350.643 1167.01C353.898 1166.6 355.411 1167.07 358.511 1165.83L361.67 1166.52C365.038 1165.95 363.698 1165.75 366.719 1167.22L366.785 1164.68C367.852 1166.53 367.65 1166.91 369.214 1167.71C371.15 1165.9 372.288 1161.68 374.847 1158.11L375.356 1157.4C377.44 1157.98 383.13 1161.73 384.046 1163.77C386.745 1163.92 406.929 1162.78 407.775 1161.71C406.253 1161.5 406.756 1161.77 405.612 1160.92L405.977 1160.34L407.356 1160.11L407.648 1159.19L406.673 1157.36L406.877 1156.06C412.908 1162.12 412.698 1163.22 420.035 1162.6C421.659 1162.46 426.443 1169.46 429.752 1169.54C430.159 1169.8 433.048 1172.39 433.603 1172.87Z"/><path fill="#504F4F" fill-opacity="0.035294119" d="M640.47 1154.63C640.693 1152.07 640.888 1150.58 641.37 1148.04C643.937 1146.94 649.721 1147.16 652.691 1147.24L652.814 1146.46C649.215 1143.34 641.081 1146.26 640.886 1144.61C646.999 1142.49 665.906 1144.29 673.361 1144.9L674.436 1146.29C688.471 1144.98 716.339 1150.56 731.285 1151.84C736.706 1152.31 744.254 1154.81 750.308 1154.58L751.185 1154.82C760.621 1157.33 804.066 1164.12 804.023 1176.59C802.385 1180.79 798.842 1184.27 794.559 1185.72C775.815 1191.26 764.032 1195.42 744.164 1198.87C733.402 1200.75 722.596 1202.35 711.756 1203.7C705.589 1204.45 673.469 1207.16 670.433 1208.5L670.095 1208.5C668.006 1208.24 667.149 1207.98 665.224 1207.53L664.378 1208.87C663.558 1208.27 663.929 1208.58 663.536 1207.27L662.433 1207.29L661.146 1208.99C658.441 1209.3 656.798 1207.37 653.778 1207.44L652.816 1208.96L651.906 1209.05L652.189 1207.8L651.698 1207.35C648.282 1207.31 645.043 1207.2 641.642 1207.57L640.664 1209.05L639.738 1209.14L640.005 1207.65C638.155 1207.25 622.558 1207.24 620.417 1207.44C617.041 1206.44 606.66 1208.4 603.54 1208.58C603.835 1207.59 603.893 1207.92 603.72 1207.01C599.636 1207.09 598.526 1208.45 594.422 1207.06C591.866 1208.14 591.396 1207.78 588.599 1207.22C591.27 1203.64 613.699 1210 617.687 1203.72L617.471 1202.89C614.444 1203.21 616.047 1203.75 612.968 1205.82L614.089 1203.28L613.571 1202.35L614.073 1202.66C612.151 1202.87 612.435 1203.14 610.624 1204.64L609.322 1203.21C605.971 1202.33 609.749 1203.79 606.196 1204.74L605.987 1203.87L606.951 1203.35C604.643 1201.69 606.855 1204.88 601.248 1202.45C602.643 1200.33 619.777 1204.98 625.27 1199.99C621.278 1198.46 592.798 1202.08 586.071 1201.42C577.587 1200.59 566.599 1203.89 557.661 1202.97C560.536 1202.69 564.549 1202.67 567.002 1201.56L566.587 1200.95C561.661 1202.34 547.222 1200.57 540.623 1201.41C541.442 1202.14 547.415 1203.03 548.989 1203.32C548.769 1203.52 530.61 1204.01 528.468 1203.9C518.348 1203.39 519.503 1206.69 519.736 1215.75C520.037 1213.92 519.665 1212.77 518.713 1211.44C515.171 1210.98 516.615 1212.42 513.746 1212.44L512.57 1211.09L507.936 1211.72C506.477 1211.22 506.005 1210.46 504.969 1209.32L505.035 1208.42C508.117 1206.93 513.851 1208.45 519.608 1206.77L520.376 1206.54L519.112 1204.57C516.52 1203.54 511.157 1202.87 509.022 1204.97L509.547 1205.91L512.355 1206.52C504.936 1206.8 435.989 1206.96 433.671 1206.13C430.64 1201.59 424.618 1202.55 419.689 1202.13C412.244 1201.48 404.906 1201.79 397.455 1202.19C393.846 1202 387.01 1202.84 384.613 1201.61C382.282 1200.4 379.731 1200.76 376.98 1200.81C379.654 1198.88 392.202 1200.45 396.33 1200.82L397.466 1199.73C394.898 1199.69 391.199 1199.09 388.444 1198.95C378.775 1198.46 352.823 1198.45 344.641 1196.19C347.171 1195.52 350.201 1195.62 352.821 1195.66C370.365 1195.94 387.955 1195.01 405.448 1196.58C407.827 1196.79 410.752 1196.57 413.165 1196.44C415.294 1196.64 418.535 1196.9 420.484 1197.55C429.154 1200.44 438.512 1198.52 447.739 1198.51L448.027 1198C444.602 1198.15 437.82 1198.34 434.569 1198.04C436.981 1196.81 476.842 1198.14 482.556 1198.55C479.073 1198.79 475.6 1199.16 472.143 1199.64C481.61 1200.26 493.123 1199.53 502.984 1199.71L503.497 1199.18C507.382 1198.96 515.146 1198.76 518.803 1199.97L518.882 1199.26C523.382 1197.99 526.135 1200.48 535.512 1197.06C541.509 1197.81 588.398 1197.13 590.613 1194.57C588.058 1192.82 571.766 1196.59 567.875 1194.4C565.039 1191.67 564.74 1192.37 561.144 1191.55C563.202 1190.99 568.047 1191.91 570.767 1191.72C575.45 1191.41 579.344 1190.7 584.14 1190.38L583.659 1190.56C597.527 1191.01 614.154 1188.45 627.87 1188.77L626.96 1189.38C630.255 1193.37 632.444 1189.1 634.577 1189.47L634.502 1190.72C636.357 1192.29 648.694 1188.37 655.043 1190.93C663.137 1185.22 678.249 1188.34 687.201 1183.14C689.559 1181.77 692.727 1181.25 694.847 1179.56C696.112 1178.55 696.358 1177.63 696.658 1176.12C693.086 1165.43 651.213 1165.85 646.623 1162.42C646.054 1161.99 645.603 1161.83 644.919 1161.64C643.044 1162.64 642.749 1163.12 641.525 1164.86C641.063 1161.65 640.383 1157.82 640.47 1154.63ZM460.162 1202.94C466.866 1202.95 501.048 1203.76 505.024 1202.26C507 1203.12 523.132 1203.87 524.54 1202.76C522.809 1200.94 509.935 1202.49 506.793 1201.62C505.931 1201.38 505.952 1201.65 505.024 1202.26C491.569 1201.52 474.548 1202.05 460.735 1202.05L460.162 1202.94ZM629.455 1195.82L631.019 1195.62C629.409 1194.77 625.488 1194.91 623.607 1195.01L622.336 1195.35C623.329 1196.25 626.85 1195.95 628.367 1195.88C628.73 1195.86 629.092 1195.84 629.455 1195.82Z"/><path fill="#555454" fill-opacity="0.011764706" d="M460.162 1202.94L460.735 1202.05C474.548 1202.05 491.569 1201.52 505.024 1202.26C501.048 1203.76 466.866 1202.95 460.162 1202.94Z"/><path fill="#555454" fill-opacity="0.011764706" d="M505.024 1202.26C505.952 1201.65 505.931 1201.38 506.793 1201.62C509.935 1202.49 522.809 1200.94 524.54 1202.76C523.132 1203.87 507 1203.12 505.024 1202.26Z"/><path fill="#444243" fill-opacity="0.047058824" d="M623.607 1195.01C625.488 1194.91 629.409 1194.77 631.019 1195.62L629.455 1195.82C629.092 1195.84 628.73 1195.86 628.367 1195.88C626.85 1195.95 623.329 1196.25 622.336 1195.35L623.607 1195.01Z"/><path fill="#DF7070" d="M14.4384 860.311C11.3525 813.317 25.0131 750.304 74.5518 731.764C74.5857 733.796 74.9081 745.344 74.5728 746.584C72.1922 746.222 67.3477 749.622 65.3928 751.108C35.8849 773.531 24.2253 815.371 24.7667 850.66C35.6072 842.758 44.8369 839.678 58.5788 841.56C88.3908 845.632 110.052 890.226 81.6544 909.913C74.6792 914.749 60.4436 918.689 51.9227 917.263C30.6586 913.703 23.6966 897.61 17.6744 879.032C8.86164 904.717 19.2184 926.881 28.3925 951.079C30.6731 957.095 29.6062 961.953 19.973 960.543C11.9591 954.186 1.68084 915.671 0 907.209L0 890.71C3.42742 876.865 5.4523 871.727 14.4384 860.311ZM26.3356 866.737C32.0367 888.095 37.0884 899.846 60.525 903.22C75.543 900.774 85.1524 893.95 81.6453 877.091C80.0094 869.5 75.3868 862.887 68.8191 858.742C63.3589 855.252 55.959 853.305 49.5183 854.293C39.3645 856.241 34.0836 859.86 26.3356 866.737Z"/><path fill="#555454" fill-opacity="0.06666667" d="M285.091 1154.74L285.612 1155.29C287.515 1153.96 288 1151.63 288.492 1149.31L288.596 1148.79C294.66 1147.59 309.41 1146.95 316.154 1146.23C319.116 1145.92 324.845 1147.14 328.858 1146.73C332.267 1144.3 332.924 1143.82 337.222 1144.31C335.364 1145.21 334.504 1145.39 333.358 1147L333.96 1147.3L335.644 1145.76C337.041 1146.68 337.729 1146.86 339.265 1147.42C341.387 1146.87 340.501 1147.37 342.053 1145.89C341.175 1143.72 339.312 1145.68 338.257 1144.73C339.817 1143.45 344.411 1144.11 346.556 1144.3L347.044 1144.94L345.405 1147.04L346.245 1147.38L347.945 1146.1C349.445 1145.97 356.566 1147.05 357.861 1147.85C356.285 1147.91 355.391 1147.71 354.185 1148.45C356.352 1149.06 358.108 1150.01 360.105 1149.7L361.99 1153.96C360.198 1154.65 359.57 1154.75 358.199 1156.02C358.81 1157.49 359.754 1158.1 360.958 1159.15L361.309 1160.45C359.442 1162.25 359.014 1160.36 356.636 1161.94C355.266 1162.2 354.647 1162.45 353.277 1162.32C352.039 1162.18 351.736 1162.48 350.469 1162.94L349.387 1162.44C345.862 1163.83 341.778 1163.36 338.568 1164.72C337.751 1166.12 338.319 1165.62 336.774 1166.23C336.548 1166.11 334.734 1165.09 334.734 1165.09C325.797 1166.9 292.715 1166.89 290.408 1176.44C293.431 1185.91 328.954 1186.64 338.336 1188.04C338.619 1188.09 340.026 1189.52 340.21 1189.73L349.482 1188.91C351.982 1188.69 351.493 1190.07 353.866 1190.61L353.677 1191.73C356.011 1192.21 357.973 1192.12 360.35 1191.93C363.457 1190.63 408.383 1194.69 415.728 1194.65L418.448 1196.12L413.165 1196.44C410.752 1196.57 407.827 1196.79 405.448 1196.58C387.955 1195.01 370.365 1195.94 352.821 1195.66C350.201 1195.62 347.171 1195.52 344.641 1196.19C343.082 1195.06 339.896 1195.52 338.104 1196.02C337.844 1197.12 338.14 1196.76 337.45 1197.27L335.956 1195.53C334.981 1195.85 335.437 1195.61 334.598 1196.26L334.755 1196.62L334.163 1195.11L333.048 1196.09L333.553 1197.83C332.675 1197.84 329.465 1196.57 328.415 1196.19L328.803 1197.18L326.082 1195.85L326.514 1197.12L325.658 1197.09L324.59 1195.59L323.706 1195.5L323.721 1197.2C321.96 1197.58 321.71 1197.5 319.726 1196.56C316.868 1195.21 315.569 1196.1 312.884 1195.75C293.38 1193.16 273.035 1191.87 254.207 1185.99C251.348 1185.09 240.287 1179.43 242.111 1175.79C247.163 1165.71 264.748 1165.04 274.153 1161.61C276.26 1160.84 272.114 1158.14 272.174 1156.49C273.429 1156.36 273.035 1156.41 274.329 1156.74C276.262 1159.07 280.334 1165.24 281.466 1168C280.9 1168.74 281.094 1168.44 280.921 1169.44C282.068 1170.2 282.298 1170.28 283.23 1171.33C272.746 1177.83 283.502 1184.44 290.502 1183.96C288.96 1182.09 283.462 1181.23 279.891 1177.86C278.134 1173.26 288.734 1170.45 292.798 1168.43C290.38 1168.31 286.636 1169.67 284.455 1170.68C283.788 1165.31 288.513 1167.72 290.929 1165.85L287.59 1165.36C287.181 1162.99 287.087 1163.19 284.945 1162.66L284.051 1163.79L283.302 1163.22C283.816 1159.86 284.19 1158.01 285.091 1154.74Z"/><defs><linearGradient id="gradient_1" gradientUnits="userSpaceOnUse" x1="500.67212" y1="1142.4648" x2="500.67636" y2="1148.5381"><stop offset="0" stop-color="#797878" stop-opacity="0"/><stop offset="1" stop-color="#5F5E5E" stop-opacity="0.0078431377"/></linearGradient></defs><path fill="url(#gradient_1)" d="M444.662 1146.25L445.184 1146.28L445.718 1145.25L444.9 1144.4C455.776 1144.4 461.223 1142.97 470.792 1142.66L471.61 1143.11C472.064 1142.93 471.922 1143.02 472.115 1142.87L467.699 1143.95L467.713 1144.25L534.228 1143.84L532.169 1143.43C534.793 1143.17 539.156 1143.37 541.587 1144.5C538.183 1145.91 523.261 1144.39 520.336 1145.28C525.773 1147.73 542.589 1148.78 547.933 1145.99L547.916 1145.09L549.813 1145C549.894 1145.61 550.004 1146.16 550.172 1146.76C554.816 1147.53 556.326 1145.77 560.544 1146.96L559.418 1147.94C558.62 1148.09 557.819 1148.23 557.017 1148.35C554.181 1148.78 553.133 1148.92 550.878 1147.26C547.893 1148.31 546.619 1150.03 544.506 1150.57C542.062 1149.93 543.005 1149.83 540.77 1150.62L542.343 1150.84C539.091 1151.57 536.798 1151.43 533.734 1152C516.121 1151 498.377 1151.72 480.626 1150.98C471.558 1150.6 462.296 1151.55 452.897 1151.04L452.732 1150.43C450.233 1149.01 445.255 1148.26 442.165 1147.36L444.662 1146.25Z"/><defs><linearGradient id="gradient_2" gradientUnits="userSpaceOnUse" x1="484.94556" y1="1197.4655" x2="484.96045" y2="1193.1671"><stop offset="0" stop-color="#3F3E3E" stop-opacity="0.05882353"/><stop offset="1" stop-color="#2D2C2D" stop-opacity="0.10980392"/></linearGradient></defs><path fill="url(#gradient_2)" d="M436.589 1192.53C442.462 1192.24 448.179 1192.48 454.014 1192.36C485.927 1191.74 518.078 1192.63 549.965 1192.18L545.445 1191.83C548.023 1191.73 559.788 1190.91 561.144 1191.55C564.74 1192.37 565.039 1191.67 567.875 1194.4C558.078 1193.89 548.597 1195.56 539.093 1195.96C533.563 1196.19 526.732 1194.6 520.047 1194.85C519.034 1196.4 519.261 1195.56 519.45 1197.49L518.882 1199.26L518.803 1199.97C515.146 1198.76 507.382 1198.96 503.497 1199.18C501.957 1198.54 485.633 1198.7 482.556 1198.55C476.842 1198.14 436.981 1196.81 434.569 1198.04C437.82 1198.34 444.602 1198.15 448.027 1198L447.739 1198.51C438.512 1198.52 429.154 1200.44 420.484 1197.55C418.535 1196.9 415.294 1196.64 413.165 1196.44L418.448 1196.12C425.481 1195.51 441.531 1195.94 449.067 1195.98C444.111 1194.77 441.983 1195.04 437.021 1194.58C438.84 1193.87 443.987 1194.09 447.24 1193.58C443.684 1193.43 440.046 1193.46 436.589 1192.53Z"/><defs><linearGradient id="gradient_3" gradientUnits="userSpaceOnUse" x1="515.88281" y1="1149.0469" x2="515.72168" y2="1158.3835"><stop offset="0" stop-color="#5C5B5B" stop-opacity="0.035294119"/><stop offset="1" stop-color="#333131" stop-opacity="0.05882353"/></linearGradient></defs><path fill="url(#gradient_3)" d="M550.878 1147.26C553.133 1148.92 554.181 1148.78 557.017 1148.35C557.819 1148.23 558.62 1148.09 559.418 1147.94C558.451 1149.15 557.884 1149.61 557.737 1151.15C559.165 1151.73 559.604 1151.67 561.109 1151.73L561.464 1151.96L558.339 1152.33C557.087 1152.69 556.756 1152.72 555.481 1152.45C553.564 1153.17 551.317 1156.83 549.758 1158.72C535.259 1161.81 482.263 1156.37 473.299 1160.35C468.236 1160.44 450.732 1160.46 446.203 1159.84C445.727 1159.22 443.9 1155.7 443.412 1154.8C446.159 1154.91 445.578 1155.01 447.921 1157.22C450.779 1158.17 462.322 1158.02 465.908 1157.83C468.724 1157.38 472.306 1155.24 475.125 1155.33C487.35 1155.76 499.641 1156.07 511.879 1155.54C511.151 1154.66 510.165 1154.59 508.864 1154.14C514.755 1154.08 534.833 1152.2 539.323 1154.39L539.941 1154L539.492 1152.69C537.38 1151.7 536.753 1152.13 534.218 1152.31L533.734 1152C536.798 1151.43 539.091 1151.57 542.343 1150.84L540.77 1150.62C543.005 1149.83 542.062 1149.93 544.506 1150.57C546.269 1151.25 546.359 1151.12 548.188 1150.96C549.903 1149.93 550 1149.19 550.878 1147.26Z"/><path fill="#504F4F" fill-opacity="0.039215688" d="M434.435 1152.58C435.985 1142.3 443.938 1152.05 452.897 1151.04C462.296 1151.55 471.558 1150.6 480.626 1150.98C498.377 1151.72 516.121 1151 533.734 1152L534.218 1152.31C536.753 1152.13 537.38 1151.7 539.492 1152.69L539.941 1154L539.323 1154.39C534.833 1152.2 514.755 1154.08 508.864 1154.14C489.976 1155.74 470.866 1153.4 451.895 1154.53C449.786 1154.66 445.805 1151.77 443.881 1152.3L444.27 1154.03C443.355 1154.33 442.507 1154.6 441.727 1155.18C442.263 1155.08 442.933 1154.99 443.412 1154.8C443.9 1155.7 445.727 1159.22 446.203 1159.84C441.47 1160.37 438.918 1155.92 435.433 1155.63L434.53 1157.85L434.435 1152.58Z"/><path fill="#444243" fill-opacity="0.1254902" d="M583.254 1150.18L583.942 1150.37L586.017 1148.32L587.046 1148.51C588.852 1153.78 591.114 1155.68 596.768 1154.04C600.251 1153.03 608.654 1156.03 612.939 1154.25L612.209 1153.47C617.607 1155 616.461 1151.42 623.968 1152.6C625.359 1153.74 631.212 1158.39 632 1159.44L630.895 1160.12L631.952 1162.34C633.437 1163.13 634.564 1164.44 635.82 1165.64L635.557 1166.17C635.118 1166.09 629.405 1164.76 629.457 1164.82C626.149 1160.85 627.142 1158.27 620.78 1160.07C618.624 1157.87 615.803 1154.6 612.482 1154.86L612.237 1155.42C613.068 1156.25 613.735 1156.76 614.177 1157.85C612.86 1157.67 611.458 1157.3 610.165 1157.73L608.804 1157.03C605.846 1154.12 597.095 1155.19 593.262 1155.82C590.783 1155.45 590.97 1155.04 589.424 1156.07C588.791 1158.65 589.791 1160.07 591.108 1162.62L591.806 1162.88C589.263 1162.64 587.444 1162.44 585.243 1161.15L585.7 1161.25C583.745 1159.97 582.392 1159.37 581.218 1157.28L579.861 1158.03C580.845 1155.33 581.689 1152.58 583.254 1150.18Z"/><path fill="#363535" fill-opacity="0.098039217" d="M369.438 1188.72C378.187 1189.68 434.821 1191.78 436.589 1192.53C440.046 1193.46 443.684 1193.43 447.24 1193.58C443.987 1194.09 438.84 1193.87 437.021 1194.58C429.106 1194.06 423.721 1194.28 415.728 1194.65C408.383 1194.69 363.457 1190.63 360.35 1191.93L359.618 1190.2C361.817 1187.93 364.423 1191.33 369.438 1188.72Z"/><path fill="#363535" fill-opacity="0.10588235" d="M591.806 1162.88L591.108 1162.62C589.791 1160.07 588.791 1158.65 589.424 1156.07C590.97 1155.04 590.783 1155.45 593.262 1155.82C597.771 1159.48 603.736 1160.07 608.804 1157.03L610.165 1157.73C611.458 1157.3 612.86 1157.67 614.177 1157.85C613.735 1156.76 613.068 1156.25 612.237 1155.42L612.482 1154.86C615.803 1154.6 618.624 1157.87 620.78 1160.07C621.5 1160.8 622.154 1161.46 622.843 1162.23L621.875 1163.68L623.529 1164.62C621.226 1165.62 594.736 1164.19 591.806 1162.88Z"/><path fill="#504F4F" fill-opacity="0.035294119" d="M595.59 1147.25C597.477 1147.22 606.481 1147.38 607.722 1146.38C608.908 1145.43 608.9 1144.63 611.489 1144.11C613.978 1144.54 614.921 1145.1 616.268 1147.26L613.626 1147.95L614.934 1149.18L614.306 1149.5C613.55 1149.09 612.86 1148.72 612.034 1148.47C611.072 1150.39 611.165 1150.45 610.925 1152.57L612.209 1153.47L612.939 1154.25C608.654 1156.03 600.251 1153.03 596.768 1154.04C591.114 1155.68 588.852 1153.78 587.046 1148.51L586.017 1148.32L583.942 1150.37L583.254 1150.18C584.225 1147.63 584.74 1146.92 586.216 1144.69C588.451 1145.37 594.111 1147.87 595.59 1147.25Z"/><path fill="#504F4F" fill-opacity="0.098039217" d="M384.065 1148.35C385.552 1148.48 385.963 1148.58 387.386 1147.95L387.768 1148.54L387.626 1149.17C386.891 1152.64 385.993 1158.54 394.022 1157.42C394.441 1157.36 395.853 1155.2 396.313 1154.61C401.16 1156.13 402.805 1154.67 405.884 1157.08C406.147 1157.17 406.41 1157.27 406.673 1157.36L407.648 1159.19L407.356 1160.11L405.977 1160.34L405.612 1160.92C406.756 1161.77 406.253 1161.5 407.775 1161.71C406.929 1162.78 386.745 1163.92 384.046 1163.77C386.167 1159.65 384.367 1155.41 384.245 1151.35C383.459 1150.9 382.377 1150.9 381.396 1150.77L384.065 1148.35Z"/><path fill="#444243" fill-opacity="0.10196079" d="M549.758 1158.72C551.317 1156.83 553.564 1153.17 555.481 1152.45C556.756 1152.72 557.087 1152.69 558.339 1152.33C559.438 1155.35 559.407 1154.18 558.93 1157.02C557.053 1159.3 554.794 1159.01 552.069 1159.14C554.642 1159.54 557.035 1159.64 559.149 1161.04L559.056 1161.43C554.692 1162.05 544.419 1160.3 539.19 1160.31C527.362 1160.35 514.555 1161.03 502.84 1160.62C496.91 1160.41 477.672 1161.57 473.299 1160.35C482.263 1156.37 535.259 1161.81 549.758 1158.72Z"/><path fill="#363535" fill-opacity="0.078431375" d="M567.875 1194.4C571.766 1196.59 588.058 1192.82 590.613 1194.57C588.398 1197.13 541.509 1197.81 535.512 1197.06C531.457 1197.14 522.658 1196.5 519.45 1197.49C519.261 1195.56 519.034 1196.4 520.047 1194.85C526.732 1194.6 533.563 1196.19 539.093 1195.96C548.597 1195.56 558.078 1193.89 567.875 1194.4Z"/><path fill="#444243" fill-opacity="0.050980393" d="M443.412 1154.8C442.933 1154.99 442.263 1155.08 441.727 1155.18C442.507 1154.6 443.355 1154.33 444.27 1154.03L443.881 1152.3C445.805 1151.77 449.786 1154.66 451.895 1154.53C470.866 1153.4 489.976 1155.74 508.864 1154.14C510.165 1154.59 511.151 1154.66 511.879 1155.54C499.641 1156.07 487.35 1155.76 475.125 1155.33C472.306 1155.24 468.724 1157.38 465.908 1157.83C462.322 1158.02 450.779 1158.17 447.921 1157.22C445.578 1155.01 446.159 1154.91 443.412 1154.8Z"/><defs><linearGradient id="gradient_4" gradientUnits="userSpaceOnUse" x1="395.3158" y1="1142.3876" x2="396.02441" y2="1149.7271"><stop offset="0" stop-color="#828080" stop-opacity="0.027450981"/><stop offset="1" stop-color="#636261" stop-opacity="0.070588239"/></linearGradient></defs><path fill="url(#gradient_4)" d="M396.143 1139.14C400.283 1142.48 404.644 1145.86 408.495 1149.51C406.517 1149.3 405.217 1149.02 403.297 1149.48C401.855 1151.47 402.315 1152.03 403.272 1154.26C403.001 1154.28 401.982 1154.37 401.766 1154.31L399.611 1149.52C397.034 1146.9 393.95 1147.76 389.562 1147.19L389.439 1146.44L386.305 1146.52C389.841 1143.49 392.336 1141.74 396.143 1139.14Z"/><path fill="#444243" fill-opacity="0.17254902" d="M411.225 1151.97C416.176 1156.28 425.618 1164.62 429.752 1169.54C426.443 1169.46 421.659 1162.46 420.035 1162.6C412.698 1163.22 412.908 1162.12 406.877 1156.06L406.842 1155.05C408.817 1155.5 408.974 1155.61 410.913 1155.25L411.005 1154.86C409.884 1153.91 408.372 1154.27 406.565 1154.26L406.748 1152.69C409.25 1150.33 406.516 1153.43 411.225 1151.97Z"/><path fill="#444243" fill-opacity="0.16862746" d="M560.544 1146.96C561.487 1147.47 562.327 1148.03 563.338 1148.27C564.958 1150.48 570.665 1160.36 571.84 1162.95C569.46 1162.52 566.707 1162.89 565.483 1160.78L566.713 1158.73L565.504 1158.13C563.962 1158.46 563.548 1158.7 562.09 1158.08C560.808 1155.58 560.895 1154.76 561.464 1151.96L561.109 1151.73C559.604 1151.67 559.165 1151.73 557.737 1151.15C557.884 1149.61 558.451 1149.15 559.418 1147.94L560.544 1146.96Z"/><path fill="#504F4F" fill-opacity="0.12941177" d="M283.302 1163.22L284.051 1163.79L284.945 1162.66C287.087 1163.19 287.181 1162.99 287.59 1165.36L290.929 1165.85C288.513 1167.72 283.788 1165.31 284.455 1170.68C286.636 1169.67 290.38 1168.31 292.798 1168.43C288.734 1170.45 278.134 1173.26 279.891 1177.86C283.462 1181.23 288.96 1182.09 290.502 1183.96C283.502 1184.44 272.746 1177.83 283.23 1171.33C282.298 1170.28 282.068 1170.2 280.921 1169.44C281.094 1168.44 280.9 1168.74 281.466 1168C282.434 1166.67 282.825 1164.85 283.302 1163.22Z"/><path fill="#504F4F" fill-opacity="0.011764706" d="M547.916 1145.09C546.314 1145.33 544.432 1145.84 543.056 1145.19L543.458 1144.5C550.207 1144.4 550.206 1142.71 556.009 1140.1C556.513 1139.88 557.666 1141.79 559.589 1141.12C561.141 1143.78 562.065 1145.46 563.338 1148.27C562.327 1148.03 561.487 1147.47 560.544 1146.96C556.326 1145.77 554.816 1147.53 550.172 1146.76C550.004 1146.16 549.894 1145.61 549.813 1145L547.916 1145.09Z"/><path fill="#444243" fill-opacity="0.12941177" d="M375.356 1157.4C377.497 1154.64 378.897 1153.23 381.396 1150.77C382.377 1150.9 383.459 1150.9 384.245 1151.35C384.367 1155.41 386.167 1159.65 384.046 1163.77C383.13 1161.73 377.44 1157.98 375.356 1157.4Z"/><path fill="#555454" fill-opacity="0.074509807" d="M384.065 1148.35L386.305 1146.52L389.439 1146.44L389.562 1147.19C389.087 1148.52 388.404 1149.36 389.124 1150.56C392.189 1155.71 397.619 1154.96 399.611 1149.52L401.766 1154.31C399.467 1154.87 399.147 1154.81 396.808 1154.38L396.313 1154.61C395.853 1155.2 394.441 1157.36 394.022 1157.42C385.993 1158.54 386.891 1152.64 387.626 1149.17L387.768 1148.54L387.386 1147.95C385.963 1148.58 385.552 1148.48 384.065 1148.35Z"/><defs><linearGradient id="gradient_5" gradientUnits="userSpaceOnUse" x1="355.69516" y1="1191.0334" x2="355.9205" y2="1188.6367"><stop offset="0" stop-color="#393939" stop-opacity="0.078431375"/><stop offset="1" stop-color="#302F2F" stop-opacity="0.10980392"/></linearGradient></defs><path fill="url(#gradient_5)" d="M353.866 1190.61C351.394 1187.17 352.1 1188.58 347.414 1186.78C348.607 1186.69 369.096 1188.56 369.438 1188.72C364.423 1191.33 361.817 1187.93 359.618 1190.2L360.35 1191.93C357.973 1192.12 356.011 1192.21 353.677 1191.73L353.866 1190.61Z"/><path fill="#504F4F" fill-opacity="0.050980393" d="M389.562 1147.19C393.95 1147.76 397.034 1146.9 399.611 1149.52C397.619 1154.96 392.189 1155.71 389.124 1150.56C388.404 1149.36 389.087 1148.52 389.562 1147.19Z"/><path fill="#555454" fill-opacity="0.10196079" d="M616.268 1147.26L618.351 1147.64C620.317 1149.29 622.126 1150.79 623.968 1152.6C616.461 1151.42 617.607 1155 612.209 1153.47L610.925 1152.57C611.165 1150.45 611.072 1150.39 612.034 1148.47C612.86 1148.72 613.55 1149.09 614.306 1149.5L614.934 1149.18L613.626 1147.95L616.268 1147.26Z"/><path fill="#555454" fill-opacity="0.023529412" d="M434.131 1146.24C436.962 1145.82 434.638 1145.35 436.122 1145.11C439.591 1144.54 441.772 1144.48 444.662 1146.25L442.165 1147.36C445.255 1148.26 450.233 1149.01 452.732 1150.43L452.897 1151.04C443.938 1152.05 435.985 1142.3 434.435 1152.58C434.456 1150.48 434.252 1148.61 434.067 1146.53L434.131 1146.24Z"/><path fill="#555454" fill-opacity="0.11372549" d="M401.766 1154.31C401.982 1154.37 403.001 1154.28 403.272 1154.26C402.315 1152.03 401.855 1151.47 403.297 1149.48C405.217 1149.02 406.517 1149.3 408.495 1149.51C409.331 1150.25 410.463 1151.19 411.225 1151.97C406.516 1153.43 409.25 1150.33 406.748 1152.69L406.565 1154.26C408.372 1154.27 409.884 1153.91 411.005 1154.86L410.913 1155.25C408.974 1155.61 408.817 1155.5 406.842 1155.05L406.877 1156.06L406.673 1157.36C406.41 1157.27 406.147 1157.17 405.884 1157.08C402.805 1154.67 401.16 1156.13 396.313 1154.61L396.808 1154.38C399.147 1154.81 399.467 1154.87 401.766 1154.31Z"/><path fill="#363535" fill-opacity="0.078431375" d="M415.728 1194.65C423.721 1194.28 429.106 1194.06 437.021 1194.58C441.983 1195.04 444.111 1194.77 449.067 1195.98C441.531 1195.94 425.481 1195.51 418.448 1196.12L415.728 1194.65Z"/><path fill="#444243" fill-opacity="0.054901961" d="M593.262 1155.82C597.095 1155.19 605.846 1154.12 608.804 1157.03C603.736 1160.07 597.771 1159.48 593.262 1155.82Z"/><path fill="#363535" fill-opacity="0.16862746" d="M361.99 1153.96C362.483 1155.09 363.396 1157.02 363.769 1158.11C362.463 1160.07 362.768 1161.8 362.063 1164.28L361.902 1164.86C360.811 1162.65 359.528 1162.36 357.398 1162.12L356.636 1161.94C359.014 1160.36 359.442 1162.25 361.309 1160.45L360.958 1159.15C359.754 1158.1 358.81 1157.49 358.199 1156.02C359.57 1154.75 360.198 1154.65 361.99 1153.96Z"/><path fill="#323031" fill-opacity="0.094117649" d="M338.568 1164.72C341.778 1163.36 345.862 1163.83 349.387 1162.44L350.469 1162.94C349.385 1164.26 346.338 1167.22 344.721 1167.79C342.891 1168.41 342.588 1168.28 340.603 1168.14L340.658 1167.46L343.337 1166.46C339.926 1165.98 340.965 1166.53 338.568 1164.72Z"/><path fill="#444243" fill-opacity="0.047058824" d="M482.556 1198.55C485.633 1198.7 501.957 1198.54 503.497 1199.18L502.984 1199.71C493.123 1199.53 481.61 1200.26 472.143 1199.64C475.6 1199.16 479.073 1198.79 482.556 1198.55Z"/><path fill="#7A7979" fill-opacity="0.019607844" d="M588.538 1141.23C589.487 1141.63 590.154 1141.88 591.182 1141.98C593.993 1144.57 593.716 1145.24 595.59 1147.25C594.111 1147.87 588.451 1145.37 586.216 1144.69C586.847 1143.37 587.665 1142.4 588.538 1141.23Z"/><path fill="#323031" fill-opacity="0.18431373" d="M363.769 1158.11C364.626 1159.9 366.195 1162.92 366.785 1164.68L366.719 1167.22C363.698 1165.75 365.038 1165.95 361.67 1166.52L361.902 1164.86L362.063 1164.28C362.768 1161.8 362.463 1160.07 363.769 1158.11Z"/><path fill="#444243" fill-opacity="0.050980393" d="M519.45 1197.49C522.658 1196.5 531.457 1197.14 535.512 1197.06C526.135 1200.48 523.382 1197.99 518.882 1199.26L519.45 1197.49Z"/><path fill="#323031" fill-opacity="0.12156863" d="M356.636 1161.94L357.398 1162.12L358.511 1165.83C355.411 1167.07 353.898 1166.6 350.643 1167.01C351.548 1166.18 352.34 1165.45 353.329 1164.72L353.981 1164.25L353.277 1162.32C354.647 1162.45 355.266 1162.2 356.636 1161.94Z"/><path fill="#323031" fill-opacity="0.10588235" d="M350.469 1162.94C351.736 1162.48 352.039 1162.18 353.277 1162.32L353.981 1164.25L353.329 1164.72C352.34 1165.45 351.548 1166.18 350.643 1167.01C348.617 1167.16 346.726 1167.48 344.721 1167.79C346.338 1167.22 349.385 1164.26 350.469 1162.94Z"/><path fill="#323031" fill-opacity="0.15294118" d="M357.398 1162.12C359.528 1162.36 360.811 1162.65 361.902 1164.86L361.67 1166.52L358.511 1165.83L357.398 1162.12Z"/><path fill="#555454" fill-opacity="0.019607844" d="M544.506 1150.57C546.619 1150.03 547.893 1148.31 550.878 1147.26C550 1149.19 549.903 1149.93 548.188 1150.96C546.359 1151.12 546.269 1151.25 544.506 1150.57Z"/></svg>